<mxfile host="app.diagrams.net" modified="2022-09-28T15:58:30.737Z" agent="5.0 (Macintosh; Intel Mac OS X 10_15_7) AppleWebKit/537.36 (KHTML, like Gecko) Chrome/105.0.0.0 Safari/537.36" etag="bNm8fcO0_TnkkN75ot4N" version="20.3.6" type="github" pages="4">
  <diagram name="Expanded with no Junction Tables" id="8U2ju1AjeIGWJlGFXqfS">
    <mxGraphModel dx="1517" dy="1019" grid="1" gridSize="10" guides="1" tooltips="1" connect="1" arrows="1" fold="1" page="1" pageScale="1" pageWidth="850" pageHeight="1100" math="0" shadow="0">
      <root>
        <mxCell id="6WNyit8LNiHGm0m6bphD-0" />
        <mxCell id="6WNyit8LNiHGm0m6bphD-1" parent="6WNyit8LNiHGm0m6bphD-0" />
        <mxCell id="6WNyit8LNiHGm0m6bphD-2" value="DataRequest" style="swimlane;childLayout=stackLayout;horizontal=1;startSize=30;horizontalStack=0;rounded=1;fontSize=14;fontStyle=0;strokeWidth=2;resizeParent=0;resizeLast=1;shadow=0;dashed=0;align=center;fillColor=#ffe6cc;strokeColor=#d79b00;" parent="6WNyit8LNiHGm0m6bphD-1" vertex="1">
          <mxGeometry x="60" y="290" width="275" height="250" as="geometry" />
        </mxCell>
        <mxCell id="6WNyit8LNiHGm0m6bphD-3" value="+DataRequest_ID&#xa;+Name&#xa;+Status&#xa;+Protocol_ID&#xa;+Project_ID&#xa;+GitLabIssue_ID&#xa;+ MUCH MUCH MORE!!" style="align=left;strokeColor=none;fillColor=none;spacingLeft=4;fontSize=12;verticalAlign=top;resizable=0;rotatable=0;part=1;" parent="6WNyit8LNiHGm0m6bphD-2" vertex="1">
          <mxGeometry y="30" width="275" height="220" as="geometry" />
        </mxCell>
        <mxCell id="6WNyit8LNiHGm0m6bphD-4" value="Protocol" style="swimlane;childLayout=stackLayout;horizontal=1;startSize=30;horizontalStack=0;rounded=1;fontSize=14;fontStyle=0;strokeWidth=2;resizeParent=0;resizeLast=1;shadow=0;dashed=0;align=center;fillColor=#ffe6cc;strokeColor=#d79b00;" parent="6WNyit8LNiHGm0m6bphD-1" vertex="1">
          <mxGeometry x="638.75" y="210" width="230" height="190" as="geometry" />
        </mxCell>
        <mxCell id="6WNyit8LNiHGm0m6bphD-5" value="+Protocol_ID&#xa;+IRAP_ID&#xa;+Name&#xa;+" style="align=left;strokeColor=none;fillColor=none;spacingLeft=4;fontSize=12;verticalAlign=top;resizable=0;rotatable=0;part=1;" parent="6WNyit8LNiHGm0m6bphD-4" vertex="1">
          <mxGeometry y="30" width="230" height="160" as="geometry" />
        </mxCell>
        <mxCell id="6WNyit8LNiHGm0m6bphD-6" value="Cohort" style="swimlane;childLayout=stackLayout;horizontal=1;startSize=30;horizontalStack=0;rounded=1;fontSize=14;fontStyle=0;strokeWidth=2;resizeParent=0;resizeLast=1;shadow=0;dashed=0;align=center;fillColor=#ffe6cc;strokeColor=#d79b00;" parent="6WNyit8LNiHGm0m6bphD-1" vertex="1">
          <mxGeometry x="638.75" y="440" width="230" height="200" as="geometry" />
        </mxCell>
        <mxCell id="6WNyit8LNiHGm0m6bphD-7" value="+Cohort_ID&#xa;+Source&#xa;+Name&#xa;+Visibility" style="align=left;strokeColor=none;fillColor=none;spacingLeft=4;fontSize=12;verticalAlign=top;resizable=0;rotatable=0;part=1;" parent="6WNyit8LNiHGm0m6bphD-6" vertex="1">
          <mxGeometry y="30" width="230" height="170" as="geometry" />
        </mxCell>
        <mxCell id="6WNyit8LNiHGm0m6bphD-8" style="edgeStyle=orthogonalEdgeStyle;rounded=0;orthogonalLoop=1;jettySize=auto;html=1;exitX=0.5;exitY=0;exitDx=0;exitDy=0;entryX=1;entryY=0.5;entryDx=0;entryDy=0;startArrow=ERzeroToMany;startFill=0;endArrow=ERzeroToMany;endFill=0;endSize=10;startSize=10;" parent="6WNyit8LNiHGm0m6bphD-1" source="6WNyit8LNiHGm0m6bphD-10" target="6WNyit8LNiHGm0m6bphD-3" edge="1">
          <mxGeometry relative="1" as="geometry">
            <mxPoint x="718.75" y="820" as="targetPoint" />
            <Array as="points">
              <mxPoint x="718.75" y="720" />
              <mxPoint x="493.75" y="720" />
              <mxPoint x="493.75" y="430" />
            </Array>
          </mxGeometry>
        </mxCell>
        <mxCell id="6WNyit8LNiHGm0m6bphD-9" style="edgeStyle=orthogonalEdgeStyle;rounded=0;orthogonalLoop=1;jettySize=auto;html=1;exitX=0.75;exitY=0;exitDx=0;exitDy=0;entryX=0.566;entryY=1.009;entryDx=0;entryDy=0;startArrow=ERzeroToMany;startFill=0;endArrow=ERzeroToMany;endFill=0;entryPerimeter=0;endSize=10;startSize=10;" parent="6WNyit8LNiHGm0m6bphD-1" source="6WNyit8LNiHGm0m6bphD-10" target="6WNyit8LNiHGm0m6bphD-7" edge="1">
          <mxGeometry relative="1" as="geometry">
            <mxPoint x="1068.75" y="580" as="targetPoint" />
            <Array as="points">
              <mxPoint x="778.75" y="770" />
              <mxPoint x="768.75" y="770" />
            </Array>
          </mxGeometry>
        </mxCell>
        <mxCell id="6WNyit8LNiHGm0m6bphD-10" value="Person" style="swimlane;childLayout=stackLayout;horizontal=1;startSize=30;horizontalStack=0;rounded=1;fontSize=14;fontStyle=0;strokeWidth=2;resizeParent=0;resizeLast=1;shadow=0;dashed=0;align=center;fillColor=#d5e8d4;strokeColor=#82b366;" parent="6WNyit8LNiHGm0m6bphD-1" vertex="1">
          <mxGeometry x="598.75" y="910" width="240" height="200" as="geometry" />
        </mxCell>
        <mxCell id="6WNyit8LNiHGm0m6bphD-11" value="+Person_ID (IDENTITY, arbitrary)&#xa;+Name&#xa;+Email&#xa;+AstrologicalSign&#xa;+FavoriteColor&#xa;+other interesting stuff" style="align=left;strokeColor=none;fillColor=none;spacingLeft=4;fontSize=12;verticalAlign=top;resizable=0;rotatable=0;part=1;" parent="6WNyit8LNiHGm0m6bphD-10" vertex="1">
          <mxGeometry y="30" width="240" height="170" as="geometry" />
        </mxCell>
        <mxCell id="6WNyit8LNiHGm0m6bphD-12" style="edgeStyle=orthogonalEdgeStyle;rounded=0;orthogonalLoop=1;jettySize=auto;html=1;exitX=0.5;exitY=0;exitDx=0;exitDy=0;startArrow=ERmandOne;startFill=0;endArrow=ERzeroToMany;endFill=0;entryX=0.5;entryY=1;entryDx=0;entryDy=0;endSize=10;startSize=10;" parent="6WNyit8LNiHGm0m6bphD-1" source="6WNyit8LNiHGm0m6bphD-13" target="6WNyit8LNiHGm0m6bphD-46" edge="1">
          <mxGeometry relative="1" as="geometry">
            <mxPoint x="848.75" y="1110" as="targetPoint" />
          </mxGeometry>
        </mxCell>
        <mxCell id="6WNyit8LNiHGm0m6bphD-13" value="User" style="swimlane;childLayout=stackLayout;horizontal=1;startSize=30;horizontalStack=0;rounded=1;fontSize=14;fontStyle=0;strokeWidth=2;resizeParent=0;resizeLast=1;shadow=0;dashed=0;align=center;fillColor=#dae8fc;strokeColor=#6c8ebf;" parent="6WNyit8LNiHGm0m6bphD-1" vertex="1">
          <mxGeometry x="1088.75" y="930" width="210" height="200" as="geometry" />
        </mxCell>
        <mxCell id="6WNyit8LNiHGm0m6bphD-14" value="+User_ID&#xa;+Person_ID&#xa;+blazerID&#xa;+UABMC_ID&#xa;+other stuff all about system access" style="align=left;strokeColor=none;fillColor=none;spacingLeft=4;fontSize=12;verticalAlign=top;resizable=0;rotatable=0;part=1;" parent="6WNyit8LNiHGm0m6bphD-13" vertex="1">
          <mxGeometry y="30" width="210" height="170" as="geometry" />
        </mxCell>
        <mxCell id="6WNyit8LNiHGm0m6bphD-15" style="edgeStyle=orthogonalEdgeStyle;rounded=0;orthogonalLoop=1;jettySize=auto;html=1;exitX=1;exitY=0;exitDx=0;exitDy=0;entryX=1;entryY=0;entryDx=0;entryDy=0;startArrow=ERzeroToMany;startFill=0;endArrow=ERzeroToMany;endFill=0;endSize=10;startSize=10;" parent="6WNyit8LNiHGm0m6bphD-1" source="6WNyit8LNiHGm0m6bphD-17" target="6WNyit8LNiHGm0m6bphD-5" edge="1">
          <mxGeometry relative="1" as="geometry">
            <Array as="points">
              <mxPoint x="1048.75" y="1280" />
              <mxPoint x="1048.75" y="240" />
            </Array>
            <mxPoint x="1308.75" y="310" as="targetPoint" />
          </mxGeometry>
        </mxCell>
        <mxCell id="6WNyit8LNiHGm0m6bphD-16" value="Project" style="swimlane;childLayout=stackLayout;horizontal=1;startSize=30;horizontalStack=0;rounded=1;fontSize=14;fontStyle=0;strokeWidth=2;resizeParent=0;resizeLast=1;shadow=0;dashed=0;align=center;fillColor=#f5f5f5;strokeColor=#666666;fontColor=#333333;" parent="6WNyit8LNiHGm0m6bphD-1" vertex="1">
          <mxGeometry x="598.75" y="1250" width="260" height="210" as="geometry" />
        </mxCell>
        <mxCell id="6WNyit8LNiHGm0m6bphD-17" value="+Project_ID&#xa;+Name&#xa;+Description&#xa;+Institution_ID&#xa;+ProjectGroup_ID" style="align=left;strokeColor=none;fillColor=none;spacingLeft=4;fontSize=12;verticalAlign=top;resizable=0;rotatable=0;part=1;" parent="6WNyit8LNiHGm0m6bphD-16" vertex="1">
          <mxGeometry y="30" width="260" height="180" as="geometry" />
        </mxCell>
        <mxCell id="6WNyit8LNiHGm0m6bphD-18" style="edgeStyle=orthogonalEdgeStyle;rounded=0;orthogonalLoop=1;jettySize=auto;html=1;exitX=0;exitY=0;exitDx=0;exitDy=0;entryX=0.75;entryY=0;entryDx=0;entryDy=0;startArrow=ERzeroToOne;startFill=0;endArrow=ERzeroToMany;endFill=0;strokeWidth=1;endSize=10;startSize=10;" parent="6WNyit8LNiHGm0m6bphD-1" source="6WNyit8LNiHGm0m6bphD-5" target="6WNyit8LNiHGm0m6bphD-2" edge="1">
          <mxGeometry relative="1" as="geometry">
            <Array as="points">
              <mxPoint x="266.75" y="240" />
            </Array>
          </mxGeometry>
        </mxCell>
        <mxCell id="6WNyit8LNiHGm0m6bphD-19" style="edgeStyle=orthogonalEdgeStyle;rounded=0;orthogonalLoop=1;jettySize=auto;html=1;startArrow=ERzeroToMany;startFill=0;endArrow=ERzeroToOne;endFill=0;entryX=0;entryY=0.75;entryDx=0;entryDy=0;exitX=0.25;exitY=1;exitDx=0;exitDy=0;endSize=10;startSize=10;" parent="6WNyit8LNiHGm0m6bphD-1" source="6WNyit8LNiHGm0m6bphD-3" target="6WNyit8LNiHGm0m6bphD-17" edge="1">
          <mxGeometry relative="1" as="geometry">
            <Array as="points">
              <mxPoint x="128.75" y="830" />
              <mxPoint x="63.75" y="830" />
              <mxPoint x="63.75" y="1415" />
            </Array>
            <mxPoint x="278.75" y="760" as="sourcePoint" />
            <mxPoint x="698.75" y="1550" as="targetPoint" />
          </mxGeometry>
        </mxCell>
        <mxCell id="6WNyit8LNiHGm0m6bphD-20" style="edgeStyle=orthogonalEdgeStyle;rounded=0;orthogonalLoop=1;jettySize=auto;html=1;exitX=1;exitY=0.75;exitDx=0;exitDy=0;startArrow=ERmandOne;startFill=0;endArrow=ERzeroToOne;endFill=0;entryX=-0.014;entryY=0.629;entryDx=0;entryDy=0;entryPerimeter=0;endSize=10;startSize=10;" parent="6WNyit8LNiHGm0m6bphD-1" source="6WNyit8LNiHGm0m6bphD-11" target="6WNyit8LNiHGm0m6bphD-14" edge="1">
          <mxGeometry relative="1" as="geometry">
            <mxPoint x="978.75" y="1110" as="targetPoint" />
            <Array as="points">
              <mxPoint x="1085.75" y="1068" />
            </Array>
          </mxGeometry>
        </mxCell>
        <mxCell id="6WNyit8LNiHGm0m6bphD-24" style="edgeStyle=orthogonalEdgeStyle;rounded=0;orthogonalLoop=1;jettySize=auto;html=1;exitX=0.5;exitY=0;exitDx=0;exitDy=0;startArrow=ERzeroToMany;startFill=0;endArrow=ERzeroToMany;endFill=0;entryX=0.5;entryY=1;entryDx=0;entryDy=0;endSize=10;startSize=10;" parent="6WNyit8LNiHGm0m6bphD-1" source="6WNyit8LNiHGm0m6bphD-25" target="6WNyit8LNiHGm0m6bphD-17" edge="1">
          <mxGeometry relative="1" as="geometry">
            <mxPoint x="898.75" y="1940" as="targetPoint" />
          </mxGeometry>
        </mxCell>
        <mxCell id="6WNyit8LNiHGm0m6bphD-25" value="Asset" style="swimlane;childLayout=stackLayout;horizontal=1;startSize=30;horizontalStack=0;rounded=1;fontSize=14;fontStyle=0;strokeWidth=2;resizeParent=0;resizeLast=1;shadow=0;dashed=0;align=center;fillColor=#f5f5f5;strokeColor=#666666;fontColor=#333333;" parent="6WNyit8LNiHGm0m6bphD-1" vertex="1">
          <mxGeometry x="598.75" y="1550" width="260" height="210" as="geometry" />
        </mxCell>
        <mxCell id="6WNyit8LNiHGm0m6bphD-26" value="+Asset_ID&#xa;+Type&#xa;+ContentType&#xa;+Name&#xa;+URL&#xa;+AssetGroup_ID" style="align=left;strokeColor=none;fillColor=none;spacingLeft=4;fontSize=12;verticalAlign=top;resizable=0;rotatable=0;part=1;" parent="6WNyit8LNiHGm0m6bphD-25" vertex="1">
          <mxGeometry y="30" width="260" height="180" as="geometry" />
        </mxCell>
        <mxCell id="6WNyit8LNiHGm0m6bphD-32" style="edgeStyle=orthogonalEdgeStyle;rounded=0;orthogonalLoop=1;jettySize=auto;html=1;exitX=1;exitY=0.25;exitDx=0;exitDy=0;entryX=1;entryY=0.5;entryDx=0;entryDy=0;startArrow=ERzeroToMany;startFill=0;endArrow=ERzeroToMany;endFill=0;endSize=10;startSize=10;" parent="6WNyit8LNiHGm0m6bphD-1" source="6WNyit8LNiHGm0m6bphD-11" target="6WNyit8LNiHGm0m6bphD-5" edge="1">
          <mxGeometry relative="1" as="geometry">
            <Array as="points">
              <mxPoint x="1008.75" y="983" />
              <mxPoint x="1008.75" y="320" />
            </Array>
            <mxPoint x="1158.75" y="62.5" as="targetPoint" />
          </mxGeometry>
        </mxCell>
        <mxCell id="6WNyit8LNiHGm0m6bphD-34" value="ProjectGroup" style="swimlane;childLayout=stackLayout;horizontal=1;startSize=30;horizontalStack=0;rounded=1;fontSize=14;fontStyle=0;strokeWidth=2;resizeParent=0;resizeLast=1;shadow=0;dashed=0;align=center;fillColor=#f5f5f5;strokeColor=#666666;fontColor=#333333;" parent="6WNyit8LNiHGm0m6bphD-1" vertex="1">
          <mxGeometry x="998.75" y="1460" width="230" height="160" as="geometry" />
        </mxCell>
        <mxCell id="6WNyit8LNiHGm0m6bphD-35" value="+ProjectGroup_ID&#xa;+Name&#xa;+Parent_ProjectGroup_ID&#xa;+" style="align=left;strokeColor=none;fillColor=none;spacingLeft=4;fontSize=12;verticalAlign=top;resizable=0;rotatable=0;part=1;" parent="6WNyit8LNiHGm0m6bphD-34" vertex="1">
          <mxGeometry y="30" width="230" height="130" as="geometry" />
        </mxCell>
        <mxCell id="6WNyit8LNiHGm0m6bphD-36" style="edgeStyle=orthogonalEdgeStyle;rounded=0;orthogonalLoop=1;jettySize=auto;html=1;exitX=0.75;exitY=1;exitDx=0;exitDy=0;entryX=0.2;entryY=1.011;entryDx=0;entryDy=0;entryPerimeter=0;startArrow=ERmandOne;startFill=0;endArrow=ERzeroToMany;endFill=0;endSize=10;startSize=10;" parent="6WNyit8LNiHGm0m6bphD-34" source="6WNyit8LNiHGm0m6bphD-35" target="6WNyit8LNiHGm0m6bphD-35" edge="1">
          <mxGeometry relative="1" as="geometry">
            <Array as="points">
              <mxPoint x="173" y="230" />
              <mxPoint x="46" y="230" />
            </Array>
          </mxGeometry>
        </mxCell>
        <mxCell id="6WNyit8LNiHGm0m6bphD-37" style="edgeStyle=orthogonalEdgeStyle;rounded=0;orthogonalLoop=1;jettySize=auto;html=1;entryX=1;entryY=0.75;entryDx=0;entryDy=0;startArrow=ERzeroToOne;startFill=0;endArrow=ERoneToMany;endFill=0;endSize=10;startSize=10;" parent="6WNyit8LNiHGm0m6bphD-1" source="6WNyit8LNiHGm0m6bphD-35" target="6WNyit8LNiHGm0m6bphD-17" edge="1">
          <mxGeometry relative="1" as="geometry">
            <mxPoint x="1178.75" y="1700" as="sourcePoint" />
            <Array as="points" />
          </mxGeometry>
        </mxCell>
        <mxCell id="6WNyit8LNiHGm0m6bphD-38" style="edgeStyle=orthogonalEdgeStyle;rounded=0;orthogonalLoop=1;jettySize=auto;html=1;exitX=0;exitY=0.5;exitDx=0;exitDy=0;entryX=1;entryY=0.25;entryDx=0;entryDy=0;startArrow=ERzeroToMany;startFill=0;endArrow=ERzeroToMany;endFill=0;endSize=10;startSize=10;" parent="6WNyit8LNiHGm0m6bphD-1" source="6WNyit8LNiHGm0m6bphD-7" target="6WNyit8LNiHGm0m6bphD-3" edge="1">
          <mxGeometry relative="1" as="geometry">
            <Array as="points">
              <mxPoint x="573.75" y="555" />
              <mxPoint x="573.75" y="375" />
            </Array>
            <mxPoint x="378.75" y="516.02" as="sourcePoint" />
          </mxGeometry>
        </mxCell>
        <mxCell id="6WNyit8LNiHGm0m6bphD-44" style="edgeStyle=orthogonalEdgeStyle;rounded=0;orthogonalLoop=1;jettySize=auto;html=1;entryX=0.25;entryY=1;entryDx=0;entryDy=0;startArrow=ERzeroToMany;startFill=0;endArrow=ERzeroToMany;endFill=0;exitX=0.25;exitY=0;exitDx=0;exitDy=0;endSize=10;startSize=10;" parent="6WNyit8LNiHGm0m6bphD-1" source="6WNyit8LNiHGm0m6bphD-16" target="6WNyit8LNiHGm0m6bphD-11" edge="1">
          <mxGeometry relative="1" as="geometry">
            <mxPoint x="778.75" y="1560" as="sourcePoint" />
            <Array as="points">
              <mxPoint x="663.75" y="1180" />
              <mxPoint x="658.75" y="1180" />
            </Array>
          </mxGeometry>
        </mxCell>
        <mxCell id="6WNyit8LNiHGm0m6bphD-46" value="&lt;font style=&quot;font-size: 16px;&quot;&gt;&lt;b&gt;All Tables/Audit Logs&lt;/b&gt;&lt;/font&gt;&lt;br&gt;(CreatedBy, UpdatedBy, Logins,&amp;nbsp;&lt;br&gt;Downloads, Admin Activity, etc)" style="whiteSpace=wrap;html=1;align=center;" parent="6WNyit8LNiHGm0m6bphD-1" vertex="1">
          <mxGeometry x="1103.75" y="730" width="180" height="90" as="geometry" />
        </mxCell>
        <mxCell id="6WNyit8LNiHGm0m6bphD-53" style="edgeStyle=orthogonalEdgeStyle;rounded=0;orthogonalLoop=1;jettySize=auto;html=1;exitX=0.75;exitY=1;exitDx=0;exitDy=0;startArrow=ERzeroToOne;startFill=0;endArrow=ERzeroToMany;endFill=0;endSize=10;startSize=10;" parent="6WNyit8LNiHGm0m6bphD-1" source="6WNyit8LNiHGm0m6bphD-55" edge="1">
          <mxGeometry relative="1" as="geometry">
            <Array as="points">
              <mxPoint x="473.75" y="1340" />
            </Array>
            <mxPoint x="598.75" y="1340" as="targetPoint" />
          </mxGeometry>
        </mxCell>
        <mxCell id="6WNyit8LNiHGm0m6bphD-54" value="PersonGroup" style="swimlane;childLayout=stackLayout;horizontal=1;startSize=30;horizontalStack=0;rounded=1;fontSize=14;fontStyle=0;strokeWidth=2;resizeParent=0;resizeLast=1;shadow=0;dashed=0;align=center;fillColor=#d5e8d4;strokeColor=#82b366;" parent="6WNyit8LNiHGm0m6bphD-1" vertex="1">
          <mxGeometry x="353.75" y="1170" width="160" height="120" as="geometry" />
        </mxCell>
        <mxCell id="6WNyit8LNiHGm0m6bphD-55" value="+PersonGroup_ID&#xa;+Group_Name&#xa;+" style="align=left;strokeColor=none;fillColor=none;spacingLeft=4;fontSize=12;verticalAlign=top;resizable=0;rotatable=0;part=1;" parent="6WNyit8LNiHGm0m6bphD-54" vertex="1">
          <mxGeometry y="30" width="160" height="90" as="geometry" />
        </mxCell>
        <mxCell id="_QqhRSo4SAw-zWMHxrnN-0" style="edgeStyle=orthogonalEdgeStyle;rounded=0;orthogonalLoop=1;jettySize=auto;html=1;exitX=0.5;exitY=1;exitDx=0;exitDy=0;entryX=0.25;entryY=1;entryDx=0;entryDy=0;strokeWidth=1;fontSize=16;startArrow=ERzeroToMany;startFill=0;endArrow=ERmandOne;endFill=0;startSize=8;endSize=8;" parent="6WNyit8LNiHGm0m6bphD-54" source="6WNyit8LNiHGm0m6bphD-55" target="6WNyit8LNiHGm0m6bphD-55" edge="1">
          <mxGeometry relative="1" as="geometry">
            <Array as="points">
              <mxPoint x="80" y="180" />
              <mxPoint x="40" y="180" />
            </Array>
          </mxGeometry>
        </mxCell>
        <mxCell id="6WNyit8LNiHGm0m6bphD-58" style="edgeStyle=orthogonalEdgeStyle;rounded=0;orthogonalLoop=1;jettySize=auto;html=1;entryX=0.5;entryY=0;entryDx=0;entryDy=0;startArrow=ERzeroToMany;startFill=0;endArrow=ERzeroToMany;endFill=0;exitX=-0.006;exitY=0.465;exitDx=0;exitDy=0;exitPerimeter=0;endSize=8;startSize=8;" parent="6WNyit8LNiHGm0m6bphD-1" source="6WNyit8LNiHGm0m6bphD-11" target="6WNyit8LNiHGm0m6bphD-54" edge="1">
          <mxGeometry relative="1" as="geometry">
            <Array as="points">
              <mxPoint x="543.75" y="1019" />
              <mxPoint x="543.75" y="1130" />
              <mxPoint x="433.75" y="1130" />
            </Array>
            <mxPoint x="578.75" y="1050" as="sourcePoint" />
            <mxPoint x="478.75" y="1020" as="targetPoint" />
          </mxGeometry>
        </mxCell>
        <mxCell id="6WNyit8LNiHGm0m6bphD-64" style="edgeStyle=orthogonalEdgeStyle;rounded=0;orthogonalLoop=1;jettySize=auto;html=1;entryX=1;entryY=0.75;entryDx=0;entryDy=0;startArrow=ERzeroToMany;startFill=0;endArrow=ERzeroToMany;endFill=0;exitX=0.615;exitY=0.005;exitDx=0;exitDy=0;exitPerimeter=0;endSize=10;startSize=10;" parent="6WNyit8LNiHGm0m6bphD-1" source="6WNyit8LNiHGm0m6bphD-16" target="6WNyit8LNiHGm0m6bphD-7" edge="1">
          <mxGeometry relative="1" as="geometry">
            <Array as="points">
              <mxPoint x="758.75" y="1150" />
              <mxPoint x="928.75" y="1150" />
              <mxPoint x="928.75" y="598" />
            </Array>
            <mxPoint x="888.75" y="1560" as="sourcePoint" />
            <mxPoint x="1028.75" y="752.5" as="targetPoint" />
          </mxGeometry>
        </mxCell>
        <mxCell id="6WNyit8LNiHGm0m6bphD-66" value="ClinicalDataSet" style="swimlane;childLayout=stackLayout;horizontal=1;startSize=30;horizontalStack=0;rounded=1;fontSize=14;fontStyle=0;strokeWidth=2;resizeParent=0;resizeLast=1;shadow=0;dashed=0;align=center;fillColor=#ffe6cc;strokeColor=#d79b00;" parent="6WNyit8LNiHGm0m6bphD-1" vertex="1">
          <mxGeometry x="188.75" y="610" width="200" height="140" as="geometry" />
        </mxCell>
        <mxCell id="6WNyit8LNiHGm0m6bphD-67" value="+ClinicalDataSet_ID&#xa;+DataRequest_ID&#xa;+FilePath&#xa;+etc" style="align=left;strokeColor=none;fillColor=none;spacingLeft=4;fontSize=12;verticalAlign=top;resizable=0;rotatable=0;part=1;" parent="6WNyit8LNiHGm0m6bphD-66" vertex="1">
          <mxGeometry y="30" width="200" height="110" as="geometry" />
        </mxCell>
        <mxCell id="6WNyit8LNiHGm0m6bphD-68" style="edgeStyle=orthogonalEdgeStyle;rounded=0;orthogonalLoop=1;jettySize=auto;html=1;entryX=0.5;entryY=0;entryDx=0;entryDy=0;startArrow=ERzeroToOne;startFill=0;endArrow=ERzeroToMany;endFill=0;endSize=10;startSize=10;exitX=0.576;exitY=0.995;exitDx=0;exitDy=0;exitPerimeter=0;" parent="6WNyit8LNiHGm0m6bphD-1" source="6WNyit8LNiHGm0m6bphD-3" target="6WNyit8LNiHGm0m6bphD-66" edge="1">
          <mxGeometry relative="1" as="geometry" />
        </mxCell>
        <mxCell id="6WNyit8LNiHGm0m6bphD-69" value="Note" style="swimlane;childLayout=stackLayout;horizontal=1;startSize=30;horizontalStack=0;rounded=1;fontSize=14;fontStyle=0;strokeWidth=2;resizeParent=0;resizeLast=1;shadow=0;dashed=0;align=center;fillColor=#fff2cc;strokeColor=#d6b656;" parent="6WNyit8LNiHGm0m6bphD-1" vertex="1">
          <mxGeometry x="1333.75" y="270" width="160" height="170" as="geometry" />
        </mxCell>
        <mxCell id="6WNyit8LNiHGm0m6bphD-70" value="+Note_ID&#xa;+Text&#xa;+NoteOrder&#xa;+CreatedBy&#xa;+Visibility&#xa;+etc&#xa;+Table_Name&#xa;+Table_PK" style="align=left;strokeColor=none;fillColor=none;spacingLeft=4;fontSize=12;verticalAlign=top;resizable=0;rotatable=0;part=1;" parent="6WNyit8LNiHGm0m6bphD-69" vertex="1">
          <mxGeometry y="30" width="160" height="140" as="geometry" />
        </mxCell>
        <mxCell id="6WNyit8LNiHGm0m6bphD-71" value="EventLog" style="swimlane;childLayout=stackLayout;horizontal=1;startSize=30;horizontalStack=0;rounded=1;fontSize=14;fontStyle=0;strokeWidth=2;resizeParent=0;resizeLast=1;shadow=0;dashed=0;align=center;fillColor=#fff2cc;strokeColor=#d6b656;" parent="6WNyit8LNiHGm0m6bphD-1" vertex="1">
          <mxGeometry x="1333.75" y="490" width="160" height="120" as="geometry" />
        </mxCell>
        <mxCell id="6WNyit8LNiHGm0m6bphD-72" value="+EventID&#xa;+SourceModule_ID&#xa;+Message&#xa;+StackTrace&#xa;+EventDate" style="align=left;strokeColor=none;fillColor=none;spacingLeft=4;fontSize=12;verticalAlign=top;resizable=0;rotatable=0;part=1;" parent="6WNyit8LNiHGm0m6bphD-71" vertex="1">
          <mxGeometry y="30" width="160" height="90" as="geometry" />
        </mxCell>
        <mxCell id="6WNyit8LNiHGm0m6bphD-73" value="AppSettings" style="swimlane;childLayout=stackLayout;horizontal=1;startSize=30;horizontalStack=0;rounded=1;fontSize=14;fontStyle=0;strokeWidth=2;resizeParent=0;resizeLast=1;shadow=0;dashed=0;align=center;fillColor=#fff2cc;strokeColor=#d6b656;" parent="6WNyit8LNiHGm0m6bphD-1" vertex="1">
          <mxGeometry x="1333.75" y="660" width="160" height="120" as="geometry" />
        </mxCell>
        <mxCell id="6WNyit8LNiHGm0m6bphD-74" value="+AppSettingID&#xa;+Name&#xa;+Value" style="align=left;strokeColor=none;fillColor=none;spacingLeft=4;fontSize=12;verticalAlign=top;resizable=0;rotatable=0;part=1;" parent="6WNyit8LNiHGm0m6bphD-73" vertex="1">
          <mxGeometry y="30" width="160" height="90" as="geometry" />
        </mxCell>
        <mxCell id="6WNyit8LNiHGm0m6bphD-77" value="UserGroup" style="swimlane;childLayout=stackLayout;horizontal=1;startSize=30;horizontalStack=0;rounded=1;fontSize=14;fontStyle=0;strokeWidth=2;resizeParent=0;resizeLast=1;shadow=0;dashed=0;align=center;fillColor=#dae8fc;strokeColor=#6c8ebf;" parent="6WNyit8LNiHGm0m6bphD-1" vertex="1">
          <mxGeometry x="1088.75" y="1220" width="210" height="170" as="geometry" />
        </mxCell>
        <mxCell id="6WNyit8LNiHGm0m6bphD-78" value="+UserGroup_ID&#xa;+UserGroup_Name&#xa;+" style="align=left;strokeColor=none;fillColor=none;spacingLeft=4;fontSize=12;verticalAlign=top;resizable=0;rotatable=0;part=1;" parent="6WNyit8LNiHGm0m6bphD-77" vertex="1">
          <mxGeometry y="30" width="210" height="140" as="geometry" />
        </mxCell>
        <mxCell id="6WNyit8LNiHGm0m6bphD-79" value="Institutions" style="swimlane;childLayout=stackLayout;horizontal=1;startSize=30;horizontalStack=0;rounded=1;fontSize=14;fontStyle=0;strokeWidth=2;resizeParent=0;resizeLast=1;shadow=0;dashed=0;align=center;fillColor=#d5e8d4;strokeColor=#82b366;" parent="6WNyit8LNiHGm0m6bphD-1" vertex="1">
          <mxGeometry x="103.75" y="1100" width="160" height="120" as="geometry" />
        </mxCell>
        <mxCell id="6WNyit8LNiHGm0m6bphD-80" value="+Institution_ID&#xa;+PersonGroup_ID&#xa;+InstitutionName" style="align=left;strokeColor=none;fillColor=none;spacingLeft=4;fontSize=12;verticalAlign=top;resizable=0;rotatable=0;part=1;" parent="6WNyit8LNiHGm0m6bphD-79" vertex="1">
          <mxGeometry y="30" width="160" height="90" as="geometry" />
        </mxCell>
        <mxCell id="6WNyit8LNiHGm0m6bphD-81" style="edgeStyle=orthogonalEdgeStyle;rounded=0;orthogonalLoop=1;jettySize=auto;html=1;exitX=0;exitY=0.25;exitDx=0;exitDy=0;entryX=1.006;entryY=0.339;entryDx=0;entryDy=0;entryPerimeter=0;endArrow=ERzeroToOne;endFill=0;startArrow=ERzeroToMany;startFill=0;endSize=8;startSize=8;" parent="6WNyit8LNiHGm0m6bphD-1" source="6WNyit8LNiHGm0m6bphD-55" target="6WNyit8LNiHGm0m6bphD-80" edge="1">
          <mxGeometry relative="1" as="geometry" />
        </mxCell>
        <mxCell id="kNtxa8KgRnWtaM6EZl-c-0" value="Training" style="swimlane;childLayout=stackLayout;horizontal=1;startSize=30;horizontalStack=0;rounded=1;fontSize=14;fontStyle=0;strokeWidth=2;resizeParent=0;resizeLast=1;shadow=0;dashed=0;align=center;fillColor=#d5e8d4;strokeColor=#82b366;" parent="6WNyit8LNiHGm0m6bphD-1" vertex="1">
          <mxGeometry x="318.75" y="790" width="160" height="120" as="geometry" />
        </mxCell>
        <mxCell id="kNtxa8KgRnWtaM6EZl-c-1" value="+Training_ID&#xa;+Person_ID&#xa;+TrainingName" style="align=left;strokeColor=none;fillColor=none;spacingLeft=4;fontSize=12;verticalAlign=top;resizable=0;rotatable=0;part=1;" parent="kNtxa8KgRnWtaM6EZl-c-0" vertex="1">
          <mxGeometry y="30" width="160" height="90" as="geometry" />
        </mxCell>
        <mxCell id="kNtxa8KgRnWtaM6EZl-c-2" style="edgeStyle=orthogonalEdgeStyle;rounded=0;orthogonalLoop=1;jettySize=auto;html=1;exitX=1;exitY=0.25;exitDx=0;exitDy=0;entryX=-0.005;entryY=0.173;entryDx=0;entryDy=0;entryPerimeter=0;startArrow=ERzeroToMany;startFill=0;endArrow=ERmandOne;endFill=0;endSize=10;startSize=10;" parent="6WNyit8LNiHGm0m6bphD-1" source="kNtxa8KgRnWtaM6EZl-c-1" target="6WNyit8LNiHGm0m6bphD-11" edge="1">
          <mxGeometry relative="1" as="geometry">
            <Array as="points">
              <mxPoint x="568.75" y="842" />
              <mxPoint x="568.75" y="969" />
            </Array>
          </mxGeometry>
        </mxCell>
        <mxCell id="kNtxa8KgRnWtaM6EZl-c-5" style="edgeStyle=orthogonalEdgeStyle;rounded=0;orthogonalLoop=1;jettySize=auto;html=1;entryX=-0.006;entryY=0.322;entryDx=0;entryDy=0;entryPerimeter=0;startArrow=ERzeroToMany;startFill=0;endArrow=ERmandOne;endFill=0;exitX=1;exitY=0.25;exitDx=0;exitDy=0;endSize=8;startSize=8;" parent="6WNyit8LNiHGm0m6bphD-1" source="kNtxa8KgRnWtaM6EZl-c-4" target="6WNyit8LNiHGm0m6bphD-11" edge="1">
          <mxGeometry relative="1" as="geometry">
            <mxPoint x="523.75" y="1040" as="sourcePoint" />
            <Array as="points">
              <mxPoint x="518.75" y="1013" />
              <mxPoint x="518.75" y="995" />
            </Array>
          </mxGeometry>
        </mxCell>
        <mxCell id="kNtxa8KgRnWtaM6EZl-c-3" value="PersonKeys" style="swimlane;childLayout=stackLayout;horizontal=1;startSize=30;horizontalStack=0;rounded=1;fontSize=14;fontStyle=0;strokeWidth=2;resizeParent=0;resizeLast=1;shadow=0;dashed=0;align=center;fillColor=#d5e8d4;strokeColor=#82b366;" parent="6WNyit8LNiHGm0m6bphD-1" vertex="1">
          <mxGeometry x="283.75" y="960" width="210" height="120" as="geometry" />
        </mxCell>
        <mxCell id="kNtxa8KgRnWtaM6EZl-c-4" value="+Person_ID&#xa;+RelatedSystemName&#xa;+RelatedSystem_ID&#xa;+" style="align=left;strokeColor=none;fillColor=none;spacingLeft=4;fontSize=12;verticalAlign=top;resizable=0;rotatable=0;part=1;" parent="kNtxa8KgRnWtaM6EZl-c-3" vertex="1">
          <mxGeometry y="30" width="210" height="90" as="geometry" />
        </mxCell>
        <mxCell id="kNtxa8KgRnWtaM6EZl-c-6" value="Roles" style="swimlane;childLayout=stackLayout;horizontal=1;startSize=30;horizontalStack=0;rounded=1;fontSize=14;fontStyle=0;strokeWidth=2;resizeParent=0;resizeLast=1;shadow=0;dashed=0;align=center;fillColor=#dae8fc;strokeColor=#6c8ebf;" parent="6WNyit8LNiHGm0m6bphD-1" vertex="1">
          <mxGeometry x="1408.75" y="1030" width="240" height="210" as="geometry" />
        </mxCell>
        <mxCell id="kNtxa8KgRnWtaM6EZl-c-7" value="+Role_D&#xa;+Name&#xa;+Description&#xa;+" style="align=left;strokeColor=none;fillColor=none;spacingLeft=4;fontSize=12;verticalAlign=top;resizable=0;rotatable=0;part=1;" parent="kNtxa8KgRnWtaM6EZl-c-6" vertex="1">
          <mxGeometry y="30" width="240" height="180" as="geometry" />
        </mxCell>
        <mxCell id="kNtxa8KgRnWtaM6EZl-c-8" style="edgeStyle=orthogonalEdgeStyle;rounded=0;orthogonalLoop=1;jettySize=auto;html=1;exitX=1;exitY=0.5;exitDx=0;exitDy=0;entryX=0;entryY=0.25;entryDx=0;entryDy=0;startArrow=ERzeroToMany;startFill=0;endArrow=ERoneToMany;endFill=0;endSize=10;startSize=10;" parent="6WNyit8LNiHGm0m6bphD-1" source="6WNyit8LNiHGm0m6bphD-14" target="kNtxa8KgRnWtaM6EZl-c-6" edge="1">
          <mxGeometry relative="1" as="geometry" />
        </mxCell>
        <mxCell id="kNtxa8KgRnWtaM6EZl-c-9" style="edgeStyle=orthogonalEdgeStyle;rounded=0;orthogonalLoop=1;jettySize=auto;html=1;exitX=1;exitY=0.25;exitDx=0;exitDy=0;entryX=0;entryY=0.75;entryDx=0;entryDy=0;startArrow=ERzeroToMany;startFill=0;endArrow=ERzeroToMany;endFill=0;endSize=10;startSize=10;" parent="6WNyit8LNiHGm0m6bphD-1" source="6WNyit8LNiHGm0m6bphD-78" target="kNtxa8KgRnWtaM6EZl-c-7" edge="1">
          <mxGeometry relative="1" as="geometry" />
        </mxCell>
        <mxCell id="kNtxa8KgRnWtaM6EZl-c-10" style="edgeStyle=orthogonalEdgeStyle;rounded=0;orthogonalLoop=1;jettySize=auto;html=1;exitX=0.5;exitY=1;exitDx=0;exitDy=0;entryX=0.5;entryY=0;entryDx=0;entryDy=0;startArrow=ERoneToMany;startFill=0;endArrow=ERzeroToMany;endFill=0;endSize=10;startSize=10;" parent="6WNyit8LNiHGm0m6bphD-1" source="6WNyit8LNiHGm0m6bphD-14" target="6WNyit8LNiHGm0m6bphD-77" edge="1">
          <mxGeometry relative="1" as="geometry" />
        </mxCell>
        <mxCell id="kNtxa8KgRnWtaM6EZl-c-11" value="Actions" style="swimlane;childLayout=stackLayout;horizontal=1;startSize=30;horizontalStack=0;rounded=1;fontSize=14;fontStyle=0;strokeWidth=2;resizeParent=0;resizeLast=1;shadow=0;dashed=0;align=center;fillColor=#dae8fc;strokeColor=#6c8ebf;" parent="6WNyit8LNiHGm0m6bphD-1" vertex="1">
          <mxGeometry x="1418.75" y="1340" width="220" height="150" as="geometry" />
        </mxCell>
        <mxCell id="kNtxa8KgRnWtaM6EZl-c-12" value="+Action_ID&#xa;+Name&#xa;+Description&#xa;+Module_ID" style="align=left;strokeColor=none;fillColor=none;spacingLeft=4;fontSize=12;verticalAlign=top;resizable=0;rotatable=0;part=1;" parent="kNtxa8KgRnWtaM6EZl-c-11" vertex="1">
          <mxGeometry y="30" width="220" height="120" as="geometry" />
        </mxCell>
        <mxCell id="kNtxa8KgRnWtaM6EZl-c-15" style="edgeStyle=orthogonalEdgeStyle;rounded=0;orthogonalLoop=1;jettySize=auto;html=1;exitX=0.5;exitY=0;exitDx=0;exitDy=0;entryX=0.5;entryY=1;entryDx=0;entryDy=0;startArrow=ERmandOne;startFill=0;endArrow=ERoneToMany;endFill=0;endSize=10;startSize=10;" parent="6WNyit8LNiHGm0m6bphD-1" source="kNtxa8KgRnWtaM6EZl-c-13" target="kNtxa8KgRnWtaM6EZl-c-12" edge="1">
          <mxGeometry relative="1" as="geometry" />
        </mxCell>
        <mxCell id="kNtxa8KgRnWtaM6EZl-c-13" value="Modules" style="swimlane;childLayout=stackLayout;horizontal=1;startSize=30;horizontalStack=0;rounded=1;fontSize=14;fontStyle=0;strokeWidth=2;resizeParent=0;resizeLast=1;shadow=0;dashed=0;align=center;fillColor=#dae8fc;strokeColor=#6c8ebf;" parent="6WNyit8LNiHGm0m6bphD-1" vertex="1">
          <mxGeometry x="1418.75" y="1570" width="220" height="150" as="geometry" />
        </mxCell>
        <mxCell id="kNtxa8KgRnWtaM6EZl-c-14" value="+Module_ID&#xa;+Name&#xa;+Description" style="align=left;strokeColor=none;fillColor=none;spacingLeft=4;fontSize=12;verticalAlign=top;resizable=0;rotatable=0;part=1;" parent="kNtxa8KgRnWtaM6EZl-c-13" vertex="1">
          <mxGeometry y="30" width="220" height="120" as="geometry" />
        </mxCell>
        <mxCell id="kNtxa8KgRnWtaM6EZl-c-16" style="edgeStyle=orthogonalEdgeStyle;rounded=0;orthogonalLoop=1;jettySize=auto;html=1;exitX=0.5;exitY=1;exitDx=0;exitDy=0;entryX=0.5;entryY=0;entryDx=0;entryDy=0;startArrow=ERzeroToMany;startFill=0;endArrow=ERzeroToMany;endFill=0;endSize=10;startSize=10;" parent="6WNyit8LNiHGm0m6bphD-1" source="kNtxa8KgRnWtaM6EZl-c-7" target="kNtxa8KgRnWtaM6EZl-c-11" edge="1">
          <mxGeometry relative="1" as="geometry" />
        </mxCell>
        <mxCell id="sgAKTOr5KQW5sn3Kh9as-0" value="&lt;h1&gt;DataLens V2 Entity-Relationship Diagram DRAFT&lt;/h1&gt;&lt;p&gt;Authors: Nick Timkovich, Brian Harmon&lt;br&gt;Last Updated: September 23, 2022&lt;/p&gt;" style="text;html=1;strokeColor=none;fillColor=none;spacing=5;spacingTop=-20;whiteSpace=wrap;overflow=hidden;rounded=0;fontSize=16;" parent="6WNyit8LNiHGm0m6bphD-1" vertex="1">
          <mxGeometry x="73.75" y="30" width="876.25" height="120" as="geometry" />
        </mxCell>
        <mxCell id="sgAKTOr5KQW5sn3Kh9as-1" value="&lt;ul&gt;&lt;li&gt;Many-to-Many relationships have an implied JOIN table between the entities.&lt;/li&gt;&lt;li&gt;Color Coding represents general entity collections for functional purposes.&lt;/li&gt;&lt;li&gt;Lookup and other tables are omitted for brevity&lt;/li&gt;&lt;li&gt;THIS IS A DRAFT and SUBJECT to change.&lt;/li&gt;&lt;/ul&gt;" style="text;html=1;strokeColor=none;fillColor=none;align=left;verticalAlign=top;whiteSpace=wrap;rounded=0;fontSize=16;" parent="6WNyit8LNiHGm0m6bphD-1" vertex="1">
          <mxGeometry x="1020" y="40" width="530" height="150" as="geometry" />
        </mxCell>
        <mxCell id="YNVSqj-bpbSQ12SEADaX-2" style="edgeStyle=orthogonalEdgeStyle;rounded=0;orthogonalLoop=1;jettySize=auto;html=1;exitX=0.5;exitY=0;exitDx=0;exitDy=0;startArrow=ERzeroToOne;startFill=0;entryX=0.385;entryY=1.005;entryDx=0;entryDy=0;entryPerimeter=0;endArrow=ERoneToMany;endFill=0;endSize=10;startSize=10;" parent="6WNyit8LNiHGm0m6bphD-1" source="YNVSqj-bpbSQ12SEADaX-0" target="6WNyit8LNiHGm0m6bphD-3" edge="1">
          <mxGeometry relative="1" as="geometry" />
        </mxCell>
        <mxCell id="YNVSqj-bpbSQ12SEADaX-0" value="Attachment" style="swimlane;childLayout=stackLayout;horizontal=1;startSize=30;horizontalStack=0;rounded=1;fontSize=14;fontStyle=0;strokeWidth=2;resizeParent=0;resizeLast=1;shadow=0;dashed=0;align=center;fillColor=#ffe6cc;strokeColor=#d79b00;" parent="6WNyit8LNiHGm0m6bphD-1" vertex="1">
          <mxGeometry x="90" y="860" width="160" height="160" as="geometry" />
        </mxCell>
        <mxCell id="YNVSqj-bpbSQ12SEADaX-1" value="+Attachment_ID&#xa;+DataRequest_ID&#xa;+DocumentName&#xa;+FileName&#xa;+ContentType&#xa;+IsFinalDeliverable" style="align=left;strokeColor=none;fillColor=none;spacingLeft=4;fontSize=12;verticalAlign=top;resizable=0;rotatable=0;part=1;" parent="YNVSqj-bpbSQ12SEADaX-0" vertex="1">
          <mxGeometry y="30" width="160" height="130" as="geometry" />
        </mxCell>
      </root>
    </mxGraphModel>
  </diagram>
  <diagram name="Simplified" id="1aNk9hnZOlQ7_WjEDchH">
    <mxGraphModel dx="1517" dy="1019" grid="1" gridSize="10" guides="1" tooltips="1" connect="1" arrows="1" fold="1" page="1" pageScale="1" pageWidth="850" pageHeight="1100" math="0" shadow="0">
      <root>
        <mxCell id="ScCZQf0IAp3NMGlHaYm5-0" />
        <mxCell id="ScCZQf0IAp3NMGlHaYm5-1" parent="ScCZQf0IAp3NMGlHaYm5-0" />
        <mxCell id="ScCZQf0IAp3NMGlHaYm5-2" value="DataRequest" style="swimlane;childLayout=stackLayout;horizontal=1;startSize=30;horizontalStack=0;rounded=1;fontSize=14;fontStyle=0;strokeWidth=2;resizeParent=0;resizeLast=1;shadow=0;dashed=0;align=center;fillColor=#ffe6cc;strokeColor=#d79b00;" vertex="1" parent="ScCZQf0IAp3NMGlHaYm5-1">
          <mxGeometry x="60" y="290" width="275" height="250" as="geometry" />
        </mxCell>
        <mxCell id="ScCZQf0IAp3NMGlHaYm5-3" value="+DataRequest_ID&#xa;+Name&#xa;+Status&#xa;+Protocol_ID&#xa;+Project_ID&#xa;+GitLabIssue_ID&#xa;+Visibility&#xa;+ MUCH MUCH MORE!!" style="align=left;strokeColor=none;fillColor=none;spacingLeft=4;fontSize=12;verticalAlign=top;resizable=0;rotatable=0;part=1;" vertex="1" parent="ScCZQf0IAp3NMGlHaYm5-2">
          <mxGeometry y="30" width="275" height="220" as="geometry" />
        </mxCell>
        <mxCell id="ScCZQf0IAp3NMGlHaYm5-4" value="Protocol" style="swimlane;childLayout=stackLayout;horizontal=1;startSize=30;horizontalStack=0;rounded=1;fontSize=14;fontStyle=0;strokeWidth=2;resizeParent=0;resizeLast=1;shadow=0;dashed=0;align=center;fillColor=#ffe6cc;strokeColor=#d79b00;" vertex="1" parent="ScCZQf0IAp3NMGlHaYm5-1">
          <mxGeometry x="638.75" y="210" width="230" height="190" as="geometry" />
        </mxCell>
        <mxCell id="ScCZQf0IAp3NMGlHaYm5-5" value="+Protocol_ID&#xa;+IRAP_ID&#xa;+Name&#xa;+Visibility" style="align=left;strokeColor=none;fillColor=none;spacingLeft=4;fontSize=12;verticalAlign=top;resizable=0;rotatable=0;part=1;" vertex="1" parent="ScCZQf0IAp3NMGlHaYm5-4">
          <mxGeometry y="30" width="230" height="160" as="geometry" />
        </mxCell>
        <mxCell id="ScCZQf0IAp3NMGlHaYm5-6" value="Cohort" style="swimlane;childLayout=stackLayout;horizontal=1;startSize=30;horizontalStack=0;rounded=1;fontSize=14;fontStyle=0;strokeWidth=2;resizeParent=0;resizeLast=1;shadow=0;dashed=0;align=center;fillColor=#ffe6cc;strokeColor=#d79b00;" vertex="1" parent="ScCZQf0IAp3NMGlHaYm5-1">
          <mxGeometry x="638.75" y="440" width="230" height="200" as="geometry" />
        </mxCell>
        <mxCell id="ScCZQf0IAp3NMGlHaYm5-7" value="+Cohort_ID&#xa;+Source&#xa;+Name&#xa;+Visibility" style="align=left;strokeColor=none;fillColor=none;spacingLeft=4;fontSize=12;verticalAlign=top;resizable=0;rotatable=0;part=1;" vertex="1" parent="ScCZQf0IAp3NMGlHaYm5-6">
          <mxGeometry y="30" width="230" height="170" as="geometry" />
        </mxCell>
        <mxCell id="ScCZQf0IAp3NMGlHaYm5-8" style="edgeStyle=orthogonalEdgeStyle;rounded=0;orthogonalLoop=1;jettySize=auto;html=1;exitX=0.5;exitY=0;exitDx=0;exitDy=0;entryX=1;entryY=0.5;entryDx=0;entryDy=0;startArrow=ERzeroToMany;startFill=0;endArrow=ERzeroToMany;endFill=0;endSize=10;startSize=10;" edge="1" parent="ScCZQf0IAp3NMGlHaYm5-1" source="ScCZQf0IAp3NMGlHaYm5-10" target="ScCZQf0IAp3NMGlHaYm5-3">
          <mxGeometry relative="1" as="geometry">
            <mxPoint x="718.75" y="820" as="targetPoint" />
            <Array as="points">
              <mxPoint x="718.75" y="720" />
              <mxPoint x="493.75" y="720" />
              <mxPoint x="493.75" y="430" />
            </Array>
          </mxGeometry>
        </mxCell>
        <mxCell id="ScCZQf0IAp3NMGlHaYm5-9" style="edgeStyle=orthogonalEdgeStyle;rounded=0;orthogonalLoop=1;jettySize=auto;html=1;exitX=0.75;exitY=0;exitDx=0;exitDy=0;entryX=0.566;entryY=1.009;entryDx=0;entryDy=0;startArrow=ERzeroToMany;startFill=0;endArrow=ERzeroToMany;endFill=0;entryPerimeter=0;endSize=10;startSize=10;" edge="1" parent="ScCZQf0IAp3NMGlHaYm5-1" source="ScCZQf0IAp3NMGlHaYm5-10" target="ScCZQf0IAp3NMGlHaYm5-7">
          <mxGeometry relative="1" as="geometry">
            <mxPoint x="1068.75" y="580" as="targetPoint" />
            <Array as="points">
              <mxPoint x="778.75" y="770" />
              <mxPoint x="768.75" y="770" />
            </Array>
          </mxGeometry>
        </mxCell>
        <mxCell id="ScCZQf0IAp3NMGlHaYm5-10" value="Person" style="swimlane;childLayout=stackLayout;horizontal=1;startSize=30;horizontalStack=0;rounded=1;fontSize=14;fontStyle=0;strokeWidth=2;resizeParent=0;resizeLast=1;shadow=0;dashed=0;align=center;fillColor=#d5e8d4;strokeColor=#82b366;" vertex="1" parent="ScCZQf0IAp3NMGlHaYm5-1">
          <mxGeometry x="598.75" y="910" width="240" height="200" as="geometry" />
        </mxCell>
        <mxCell id="ScCZQf0IAp3NMGlHaYm5-11" value="+Person_ID (IDENTITY, arbitrary)&#xa;+Name&#xa;+Email&#xa;+AstrologicalSign&#xa;+FavoriteColor&#xa;+other interesting stuff" style="align=left;strokeColor=none;fillColor=none;spacingLeft=4;fontSize=12;verticalAlign=top;resizable=0;rotatable=0;part=1;" vertex="1" parent="ScCZQf0IAp3NMGlHaYm5-10">
          <mxGeometry y="30" width="240" height="170" as="geometry" />
        </mxCell>
        <mxCell id="ScCZQf0IAp3NMGlHaYm5-12" style="edgeStyle=orthogonalEdgeStyle;rounded=0;orthogonalLoop=1;jettySize=auto;html=1;exitX=0.5;exitY=0;exitDx=0;exitDy=0;startArrow=ERmandOne;startFill=0;endArrow=ERzeroToMany;endFill=0;entryX=0.5;entryY=1;entryDx=0;entryDy=0;endSize=10;startSize=10;" edge="1" parent="ScCZQf0IAp3NMGlHaYm5-1" source="ScCZQf0IAp3NMGlHaYm5-13" target="ScCZQf0IAp3NMGlHaYm5-31">
          <mxGeometry relative="1" as="geometry">
            <mxPoint x="848.75" y="1110" as="targetPoint" />
          </mxGeometry>
        </mxCell>
        <mxCell id="ScCZQf0IAp3NMGlHaYm5-13" value="User" style="swimlane;childLayout=stackLayout;horizontal=1;startSize=30;horizontalStack=0;rounded=1;fontSize=14;fontStyle=0;strokeWidth=2;resizeParent=0;resizeLast=1;shadow=0;dashed=0;align=center;fillColor=#dae8fc;strokeColor=#6c8ebf;" vertex="1" parent="ScCZQf0IAp3NMGlHaYm5-1">
          <mxGeometry x="1088.75" y="930" width="210" height="200" as="geometry" />
        </mxCell>
        <mxCell id="ScCZQf0IAp3NMGlHaYm5-14" value="+User_ID&#xa;+Person_ID&#xa;+blazerID&#xa;+UABMC_ID&#xa;+other stuff all about system access" style="align=left;strokeColor=none;fillColor=none;spacingLeft=4;fontSize=12;verticalAlign=top;resizable=0;rotatable=0;part=1;" vertex="1" parent="ScCZQf0IAp3NMGlHaYm5-13">
          <mxGeometry y="30" width="210" height="170" as="geometry" />
        </mxCell>
        <mxCell id="ScCZQf0IAp3NMGlHaYm5-15" style="edgeStyle=orthogonalEdgeStyle;rounded=0;orthogonalLoop=1;jettySize=auto;html=1;exitX=1;exitY=0;exitDx=0;exitDy=0;entryX=1;entryY=0;entryDx=0;entryDy=0;startArrow=ERzeroToMany;startFill=0;endArrow=ERzeroToMany;endFill=0;endSize=10;startSize=10;" edge="1" parent="ScCZQf0IAp3NMGlHaYm5-1" source="ScCZQf0IAp3NMGlHaYm5-17" target="ScCZQf0IAp3NMGlHaYm5-5">
          <mxGeometry relative="1" as="geometry">
            <Array as="points">
              <mxPoint x="1048.75" y="1280" />
              <mxPoint x="1048.75" y="240" />
            </Array>
            <mxPoint x="1308.75" y="310" as="targetPoint" />
          </mxGeometry>
        </mxCell>
        <mxCell id="ScCZQf0IAp3NMGlHaYm5-16" value="Project" style="swimlane;childLayout=stackLayout;horizontal=1;startSize=30;horizontalStack=0;rounded=1;fontSize=14;fontStyle=0;strokeWidth=2;resizeParent=0;resizeLast=1;shadow=0;dashed=0;align=center;fillColor=#f5f5f5;strokeColor=#666666;fontColor=#333333;" vertex="1" parent="ScCZQf0IAp3NMGlHaYm5-1">
          <mxGeometry x="598.75" y="1250" width="260" height="210" as="geometry" />
        </mxCell>
        <mxCell id="ScCZQf0IAp3NMGlHaYm5-17" value="+Project_ID&#xa;+Name&#xa;+Description&#xa;+ProjectType" style="align=left;strokeColor=none;fillColor=none;spacingLeft=4;fontSize=12;verticalAlign=top;resizable=0;rotatable=0;part=1;" vertex="1" parent="ScCZQf0IAp3NMGlHaYm5-16">
          <mxGeometry y="30" width="260" height="180" as="geometry" />
        </mxCell>
        <mxCell id="ScCZQf0IAp3NMGlHaYm5-18" style="edgeStyle=orthogonalEdgeStyle;rounded=0;orthogonalLoop=1;jettySize=auto;html=1;exitX=0;exitY=0;exitDx=0;exitDy=0;entryX=0.75;entryY=0;entryDx=0;entryDy=0;startArrow=ERzeroToOne;startFill=0;endArrow=ERzeroToMany;endFill=0;strokeWidth=1;endSize=10;startSize=10;" edge="1" parent="ScCZQf0IAp3NMGlHaYm5-1" source="ScCZQf0IAp3NMGlHaYm5-5" target="ScCZQf0IAp3NMGlHaYm5-2">
          <mxGeometry relative="1" as="geometry">
            <Array as="points">
              <mxPoint x="266.75" y="240" />
            </Array>
          </mxGeometry>
        </mxCell>
        <mxCell id="ScCZQf0IAp3NMGlHaYm5-19" style="edgeStyle=orthogonalEdgeStyle;rounded=0;orthogonalLoop=1;jettySize=auto;html=1;startArrow=ERzeroToMany;startFill=0;endArrow=ERzeroToOne;endFill=0;entryX=0;entryY=0.75;entryDx=0;entryDy=0;exitX=0.25;exitY=1;exitDx=0;exitDy=0;endSize=10;startSize=10;" edge="1" parent="ScCZQf0IAp3NMGlHaYm5-1" source="ScCZQf0IAp3NMGlHaYm5-3" target="ScCZQf0IAp3NMGlHaYm5-17">
          <mxGeometry relative="1" as="geometry">
            <Array as="points">
              <mxPoint x="128.75" y="830" />
              <mxPoint x="63.75" y="830" />
              <mxPoint x="63.75" y="1415" />
            </Array>
            <mxPoint x="278.75" y="760" as="sourcePoint" />
            <mxPoint x="698.75" y="1550" as="targetPoint" />
          </mxGeometry>
        </mxCell>
        <mxCell id="ScCZQf0IAp3NMGlHaYm5-20" style="edgeStyle=orthogonalEdgeStyle;rounded=0;orthogonalLoop=1;jettySize=auto;html=1;exitX=1;exitY=0.75;exitDx=0;exitDy=0;startArrow=ERmandOne;startFill=0;endArrow=ERzeroToOne;endFill=0;entryX=-0.014;entryY=0.629;entryDx=0;entryDy=0;entryPerimeter=0;endSize=10;startSize=10;" edge="1" parent="ScCZQf0IAp3NMGlHaYm5-1" source="ScCZQf0IAp3NMGlHaYm5-11" target="ScCZQf0IAp3NMGlHaYm5-14">
          <mxGeometry relative="1" as="geometry">
            <mxPoint x="978.75" y="1110" as="targetPoint" />
            <Array as="points">
              <mxPoint x="1085.75" y="1068" />
            </Array>
          </mxGeometry>
        </mxCell>
        <mxCell id="ScCZQf0IAp3NMGlHaYm5-21" style="edgeStyle=orthogonalEdgeStyle;rounded=0;orthogonalLoop=1;jettySize=auto;html=1;exitX=0.5;exitY=0;exitDx=0;exitDy=0;startArrow=ERzeroToMany;startFill=0;endArrow=ERzeroToMany;endFill=0;entryX=0.5;entryY=1;entryDx=0;entryDy=0;endSize=10;startSize=10;" edge="1" parent="ScCZQf0IAp3NMGlHaYm5-1" source="ScCZQf0IAp3NMGlHaYm5-22" target="ScCZQf0IAp3NMGlHaYm5-17">
          <mxGeometry relative="1" as="geometry">
            <mxPoint x="898.75" y="1940" as="targetPoint" />
          </mxGeometry>
        </mxCell>
        <mxCell id="ScCZQf0IAp3NMGlHaYm5-22" value="Asset" style="swimlane;childLayout=stackLayout;horizontal=1;startSize=30;horizontalStack=0;rounded=1;fontSize=14;fontStyle=0;strokeWidth=2;resizeParent=0;resizeLast=1;shadow=0;dashed=0;align=center;fillColor=#f5f5f5;strokeColor=#666666;fontColor=#333333;" vertex="1" parent="ScCZQf0IAp3NMGlHaYm5-1">
          <mxGeometry x="598.75" y="1550" width="260" height="210" as="geometry" />
        </mxCell>
        <mxCell id="ScCZQf0IAp3NMGlHaYm5-23" value="+Asset_ID&#xa;+Type&#xa;+ContentType&#xa;+Name&#xa;+URL" style="align=left;strokeColor=none;fillColor=none;spacingLeft=4;fontSize=12;verticalAlign=top;resizable=0;rotatable=0;part=1;" vertex="1" parent="ScCZQf0IAp3NMGlHaYm5-22">
          <mxGeometry y="30" width="260" height="180" as="geometry" />
        </mxCell>
        <mxCell id="ScCZQf0IAp3NMGlHaYm5-24" style="edgeStyle=orthogonalEdgeStyle;rounded=0;orthogonalLoop=1;jettySize=auto;html=1;exitX=1;exitY=0.25;exitDx=0;exitDy=0;entryX=1;entryY=0.5;entryDx=0;entryDy=0;startArrow=ERzeroToMany;startFill=0;endArrow=ERzeroToMany;endFill=0;endSize=10;startSize=10;" edge="1" parent="ScCZQf0IAp3NMGlHaYm5-1" source="ScCZQf0IAp3NMGlHaYm5-11" target="ScCZQf0IAp3NMGlHaYm5-5">
          <mxGeometry relative="1" as="geometry">
            <Array as="points">
              <mxPoint x="1008.75" y="983" />
              <mxPoint x="1008.75" y="320" />
            </Array>
            <mxPoint x="1158.75" y="62.5" as="targetPoint" />
          </mxGeometry>
        </mxCell>
        <mxCell id="ScCZQf0IAp3NMGlHaYm5-29" style="edgeStyle=orthogonalEdgeStyle;rounded=0;orthogonalLoop=1;jettySize=auto;html=1;exitX=0;exitY=0.5;exitDx=0;exitDy=0;entryX=1;entryY=0.25;entryDx=0;entryDy=0;startArrow=ERzeroToMany;startFill=0;endArrow=ERzeroToMany;endFill=0;endSize=10;startSize=10;" edge="1" parent="ScCZQf0IAp3NMGlHaYm5-1" source="ScCZQf0IAp3NMGlHaYm5-7" target="ScCZQf0IAp3NMGlHaYm5-3">
          <mxGeometry relative="1" as="geometry">
            <Array as="points">
              <mxPoint x="573.75" y="555" />
              <mxPoint x="573.75" y="375" />
            </Array>
            <mxPoint x="378.75" y="516.02" as="sourcePoint" />
          </mxGeometry>
        </mxCell>
        <mxCell id="ScCZQf0IAp3NMGlHaYm5-30" style="edgeStyle=orthogonalEdgeStyle;rounded=0;orthogonalLoop=1;jettySize=auto;html=1;entryX=0.25;entryY=1;entryDx=0;entryDy=0;startArrow=ERzeroToMany;startFill=0;endArrow=ERzeroToMany;endFill=0;exitX=0.25;exitY=0;exitDx=0;exitDy=0;endSize=10;startSize=10;" edge="1" parent="ScCZQf0IAp3NMGlHaYm5-1" source="ScCZQf0IAp3NMGlHaYm5-16" target="ScCZQf0IAp3NMGlHaYm5-11">
          <mxGeometry relative="1" as="geometry">
            <mxPoint x="778.75" y="1560" as="sourcePoint" />
            <Array as="points">
              <mxPoint x="663.75" y="1180" />
              <mxPoint x="658.75" y="1180" />
            </Array>
          </mxGeometry>
        </mxCell>
        <mxCell id="ScCZQf0IAp3NMGlHaYm5-31" value="&lt;font style=&quot;font-size: 16px;&quot;&gt;&lt;b&gt;All Tables/Audit Logs&lt;/b&gt;&lt;/font&gt;&lt;br&gt;(CreatedBy, UpdatedBy, Logins,&amp;nbsp;&lt;br&gt;Downloads, Admin Activity, etc)" style="whiteSpace=wrap;html=1;align=center;" vertex="1" parent="ScCZQf0IAp3NMGlHaYm5-1">
          <mxGeometry x="1103.75" y="730" width="180" height="90" as="geometry" />
        </mxCell>
        <mxCell id="ScCZQf0IAp3NMGlHaYm5-37" style="edgeStyle=orthogonalEdgeStyle;rounded=0;orthogonalLoop=1;jettySize=auto;html=1;entryX=1;entryY=0.75;entryDx=0;entryDy=0;startArrow=ERzeroToMany;startFill=0;endArrow=ERzeroToMany;endFill=0;exitX=0.615;exitY=0.005;exitDx=0;exitDy=0;exitPerimeter=0;endSize=10;startSize=10;" edge="1" parent="ScCZQf0IAp3NMGlHaYm5-1" source="ScCZQf0IAp3NMGlHaYm5-16" target="ScCZQf0IAp3NMGlHaYm5-7">
          <mxGeometry relative="1" as="geometry">
            <Array as="points">
              <mxPoint x="758.75" y="1150" />
              <mxPoint x="928.75" y="1150" />
              <mxPoint x="928.75" y="598" />
            </Array>
            <mxPoint x="888.75" y="1560" as="sourcePoint" />
            <mxPoint x="1028.75" y="752.5" as="targetPoint" />
          </mxGeometry>
        </mxCell>
        <mxCell id="ScCZQf0IAp3NMGlHaYm5-38" value="ClinicalDataSet" style="swimlane;childLayout=stackLayout;horizontal=1;startSize=30;horizontalStack=0;rounded=1;fontSize=14;fontStyle=0;strokeWidth=2;resizeParent=0;resizeLast=1;shadow=0;dashed=0;align=center;fillColor=#ffe6cc;strokeColor=#d79b00;" vertex="1" parent="ScCZQf0IAp3NMGlHaYm5-1">
          <mxGeometry x="188.75" y="610" width="200" height="140" as="geometry" />
        </mxCell>
        <mxCell id="ScCZQf0IAp3NMGlHaYm5-39" value="+ClinicalDataSet_ID&#xa;+DataRequest_ID&#xa;+FilePath&#xa;+etc" style="align=left;strokeColor=none;fillColor=none;spacingLeft=4;fontSize=12;verticalAlign=top;resizable=0;rotatable=0;part=1;" vertex="1" parent="ScCZQf0IAp3NMGlHaYm5-38">
          <mxGeometry y="30" width="200" height="110" as="geometry" />
        </mxCell>
        <mxCell id="ScCZQf0IAp3NMGlHaYm5-40" style="edgeStyle=orthogonalEdgeStyle;rounded=0;orthogonalLoop=1;jettySize=auto;html=1;entryX=0.5;entryY=0;entryDx=0;entryDy=0;startArrow=ERzeroToOne;startFill=0;endArrow=ERzeroToMany;endFill=0;endSize=10;startSize=10;exitX=0.576;exitY=0.995;exitDx=0;exitDy=0;exitPerimeter=0;" edge="1" parent="ScCZQf0IAp3NMGlHaYm5-1" source="ScCZQf0IAp3NMGlHaYm5-3" target="ScCZQf0IAp3NMGlHaYm5-38">
          <mxGeometry relative="1" as="geometry" />
        </mxCell>
        <mxCell id="ScCZQf0IAp3NMGlHaYm5-43" value="EventLog" style="swimlane;childLayout=stackLayout;horizontal=1;startSize=30;horizontalStack=0;rounded=1;fontSize=14;fontStyle=0;strokeWidth=2;resizeParent=0;resizeLast=1;shadow=0;dashed=0;align=center;fillColor=#fff2cc;strokeColor=#d6b656;" vertex="1" parent="ScCZQf0IAp3NMGlHaYm5-1">
          <mxGeometry x="1333.75" y="490" width="160" height="120" as="geometry" />
        </mxCell>
        <mxCell id="ScCZQf0IAp3NMGlHaYm5-44" value="+EventID&#xa;+SourceModule_ID&#xa;+Message&#xa;+StackTrace&#xa;+EventDate" style="align=left;strokeColor=none;fillColor=none;spacingLeft=4;fontSize=12;verticalAlign=top;resizable=0;rotatable=0;part=1;" vertex="1" parent="ScCZQf0IAp3NMGlHaYm5-43">
          <mxGeometry y="30" width="160" height="90" as="geometry" />
        </mxCell>
        <mxCell id="ScCZQf0IAp3NMGlHaYm5-45" value="AppSettings" style="swimlane;childLayout=stackLayout;horizontal=1;startSize=30;horizontalStack=0;rounded=1;fontSize=14;fontStyle=0;strokeWidth=2;resizeParent=0;resizeLast=1;shadow=0;dashed=0;align=center;fillColor=#fff2cc;strokeColor=#d6b656;" vertex="1" parent="ScCZQf0IAp3NMGlHaYm5-1">
          <mxGeometry x="1333.75" y="660" width="160" height="120" as="geometry" />
        </mxCell>
        <mxCell id="ScCZQf0IAp3NMGlHaYm5-46" value="+AppSettingID&#xa;+Name&#xa;+Value" style="align=left;strokeColor=none;fillColor=none;spacingLeft=4;fontSize=12;verticalAlign=top;resizable=0;rotatable=0;part=1;" vertex="1" parent="ScCZQf0IAp3NMGlHaYm5-45">
          <mxGeometry y="30" width="160" height="90" as="geometry" />
        </mxCell>
        <mxCell id="ScCZQf0IAp3NMGlHaYm5-49" value="Institutions" style="swimlane;childLayout=stackLayout;horizontal=1;startSize=30;horizontalStack=0;rounded=1;fontSize=14;fontStyle=0;strokeWidth=2;resizeParent=0;resizeLast=1;shadow=0;dashed=0;align=center;fillColor=#d5e8d4;strokeColor=#82b366;" vertex="1" parent="ScCZQf0IAp3NMGlHaYm5-1">
          <mxGeometry x="318.75" y="1130" width="160" height="120" as="geometry" />
        </mxCell>
        <mxCell id="ScCZQf0IAp3NMGlHaYm5-50" value="+Institution_ID&#xa;+InstitutionName" style="align=left;strokeColor=none;fillColor=none;spacingLeft=4;fontSize=12;verticalAlign=top;resizable=0;rotatable=0;part=1;" vertex="1" parent="ScCZQf0IAp3NMGlHaYm5-49">
          <mxGeometry y="30" width="160" height="90" as="geometry" />
        </mxCell>
        <mxCell id="ScCZQf0IAp3NMGlHaYm5-51" style="edgeStyle=orthogonalEdgeStyle;rounded=0;orthogonalLoop=1;jettySize=auto;html=1;exitX=-0.016;exitY=0.882;exitDx=0;exitDy=0;entryX=1.006;entryY=0.339;entryDx=0;entryDy=0;entryPerimeter=0;endArrow=ERzeroToOne;endFill=0;startArrow=ERzeroToMany;startFill=0;endSize=8;startSize=8;exitPerimeter=0;" edge="1" parent="ScCZQf0IAp3NMGlHaYm5-1" source="ScCZQf0IAp3NMGlHaYm5-11" target="ScCZQf0IAp3NMGlHaYm5-50">
          <mxGeometry relative="1" as="geometry">
            <mxPoint x="353.75" y="1222.5" as="sourcePoint" />
          </mxGeometry>
        </mxCell>
        <mxCell id="ScCZQf0IAp3NMGlHaYm5-52" value="Training" style="swimlane;childLayout=stackLayout;horizontal=1;startSize=30;horizontalStack=0;rounded=1;fontSize=14;fontStyle=0;strokeWidth=2;resizeParent=0;resizeLast=1;shadow=0;dashed=0;align=center;fillColor=#d5e8d4;strokeColor=#82b366;" vertex="1" parent="ScCZQf0IAp3NMGlHaYm5-1">
          <mxGeometry x="318.75" y="790" width="160" height="120" as="geometry" />
        </mxCell>
        <mxCell id="ScCZQf0IAp3NMGlHaYm5-53" value="+Training_ID&#xa;+Person_ID&#xa;+TrainingName" style="align=left;strokeColor=none;fillColor=none;spacingLeft=4;fontSize=12;verticalAlign=top;resizable=0;rotatable=0;part=1;" vertex="1" parent="ScCZQf0IAp3NMGlHaYm5-52">
          <mxGeometry y="30" width="160" height="90" as="geometry" />
        </mxCell>
        <mxCell id="ScCZQf0IAp3NMGlHaYm5-54" style="edgeStyle=orthogonalEdgeStyle;rounded=0;orthogonalLoop=1;jettySize=auto;html=1;exitX=1;exitY=0.25;exitDx=0;exitDy=0;entryX=-0.005;entryY=0.173;entryDx=0;entryDy=0;entryPerimeter=0;startArrow=ERzeroToMany;startFill=0;endArrow=ERmandOne;endFill=0;endSize=10;startSize=10;" edge="1" parent="ScCZQf0IAp3NMGlHaYm5-1" source="ScCZQf0IAp3NMGlHaYm5-53" target="ScCZQf0IAp3NMGlHaYm5-11">
          <mxGeometry relative="1" as="geometry">
            <Array as="points">
              <mxPoint x="568.75" y="842" />
              <mxPoint x="568.75" y="969" />
            </Array>
          </mxGeometry>
        </mxCell>
        <mxCell id="ScCZQf0IAp3NMGlHaYm5-55" style="edgeStyle=orthogonalEdgeStyle;rounded=0;orthogonalLoop=1;jettySize=auto;html=1;entryX=-0.006;entryY=0.322;entryDx=0;entryDy=0;entryPerimeter=0;startArrow=ERzeroToMany;startFill=0;endArrow=ERmandOne;endFill=0;exitX=1;exitY=0.25;exitDx=0;exitDy=0;endSize=8;startSize=8;" edge="1" parent="ScCZQf0IAp3NMGlHaYm5-1" source="ScCZQf0IAp3NMGlHaYm5-57" target="ScCZQf0IAp3NMGlHaYm5-11">
          <mxGeometry relative="1" as="geometry">
            <mxPoint x="523.75" y="1040" as="sourcePoint" />
            <Array as="points">
              <mxPoint x="518.75" y="1013" />
              <mxPoint x="518.75" y="995" />
            </Array>
          </mxGeometry>
        </mxCell>
        <mxCell id="ScCZQf0IAp3NMGlHaYm5-56" value="PersonKeys" style="swimlane;childLayout=stackLayout;horizontal=1;startSize=30;horizontalStack=0;rounded=1;fontSize=14;fontStyle=0;strokeWidth=2;resizeParent=0;resizeLast=1;shadow=0;dashed=0;align=center;fillColor=#d5e8d4;strokeColor=#82b366;" vertex="1" parent="ScCZQf0IAp3NMGlHaYm5-1">
          <mxGeometry x="283.75" y="960" width="210" height="120" as="geometry" />
        </mxCell>
        <mxCell id="ScCZQf0IAp3NMGlHaYm5-57" value="+Person_ID&#xa;+RelatedSystemName&#xa;+RelatedSystem_ID&#xa;+" style="align=left;strokeColor=none;fillColor=none;spacingLeft=4;fontSize=12;verticalAlign=top;resizable=0;rotatable=0;part=1;" vertex="1" parent="ScCZQf0IAp3NMGlHaYm5-56">
          <mxGeometry y="30" width="210" height="90" as="geometry" />
        </mxCell>
        <mxCell id="ScCZQf0IAp3NMGlHaYm5-58" value="Roles" style="swimlane;childLayout=stackLayout;horizontal=1;startSize=30;horizontalStack=0;rounded=1;fontSize=14;fontStyle=0;strokeWidth=2;resizeParent=0;resizeLast=1;shadow=0;dashed=0;align=center;fillColor=#dae8fc;strokeColor=#6c8ebf;" vertex="1" parent="ScCZQf0IAp3NMGlHaYm5-1">
          <mxGeometry x="1408.75" y="1030" width="240" height="210" as="geometry" />
        </mxCell>
        <mxCell id="ScCZQf0IAp3NMGlHaYm5-59" value="+Role_D&#xa;+Name&#xa;+Description&#xa;+" style="align=left;strokeColor=none;fillColor=none;spacingLeft=4;fontSize=12;verticalAlign=top;resizable=0;rotatable=0;part=1;" vertex="1" parent="ScCZQf0IAp3NMGlHaYm5-58">
          <mxGeometry y="30" width="240" height="180" as="geometry" />
        </mxCell>
        <mxCell id="ScCZQf0IAp3NMGlHaYm5-60" style="edgeStyle=orthogonalEdgeStyle;rounded=0;orthogonalLoop=1;jettySize=auto;html=1;exitX=1;exitY=0.5;exitDx=0;exitDy=0;entryX=0;entryY=0.25;entryDx=0;entryDy=0;startArrow=ERzeroToMany;startFill=0;endArrow=ERoneToMany;endFill=0;endSize=10;startSize=10;" edge="1" parent="ScCZQf0IAp3NMGlHaYm5-1" source="ScCZQf0IAp3NMGlHaYm5-14" target="ScCZQf0IAp3NMGlHaYm5-58">
          <mxGeometry relative="1" as="geometry" />
        </mxCell>
        <mxCell id="ScCZQf0IAp3NMGlHaYm5-63" value="Actions" style="swimlane;childLayout=stackLayout;horizontal=1;startSize=30;horizontalStack=0;rounded=1;fontSize=14;fontStyle=0;strokeWidth=2;resizeParent=0;resizeLast=1;shadow=0;dashed=0;align=center;fillColor=#dae8fc;strokeColor=#6c8ebf;" vertex="1" parent="ScCZQf0IAp3NMGlHaYm5-1">
          <mxGeometry x="1418.75" y="1340" width="220" height="150" as="geometry" />
        </mxCell>
        <mxCell id="ScCZQf0IAp3NMGlHaYm5-64" value="+Action_ID&#xa;+Name&#xa;+Description&#xa;+" style="align=left;strokeColor=none;fillColor=none;spacingLeft=4;fontSize=12;verticalAlign=top;resizable=0;rotatable=0;part=1;" vertex="1" parent="ScCZQf0IAp3NMGlHaYm5-63">
          <mxGeometry y="30" width="220" height="120" as="geometry" />
        </mxCell>
        <mxCell id="ScCZQf0IAp3NMGlHaYm5-68" style="edgeStyle=orthogonalEdgeStyle;rounded=0;orthogonalLoop=1;jettySize=auto;html=1;exitX=0.5;exitY=1;exitDx=0;exitDy=0;entryX=0.5;entryY=0;entryDx=0;entryDy=0;startArrow=ERzeroToMany;startFill=0;endArrow=ERzeroToMany;endFill=0;endSize=10;startSize=10;" edge="1" parent="ScCZQf0IAp3NMGlHaYm5-1" source="ScCZQf0IAp3NMGlHaYm5-59" target="ScCZQf0IAp3NMGlHaYm5-63">
          <mxGeometry relative="1" as="geometry" />
        </mxCell>
        <mxCell id="ScCZQf0IAp3NMGlHaYm5-69" value="&lt;h1&gt;DataLens V2 Entity-Relationship Diagram DRAFT&lt;/h1&gt;&lt;p&gt;Authors: Nick Timkovich, Brian Harmon&lt;br&gt;Last Updated: September 23, 2022&lt;/p&gt;" style="text;html=1;strokeColor=none;fillColor=none;spacing=5;spacingTop=-20;whiteSpace=wrap;overflow=hidden;rounded=0;fontSize=16;" vertex="1" parent="ScCZQf0IAp3NMGlHaYm5-1">
          <mxGeometry x="73.75" y="30" width="876.25" height="120" as="geometry" />
        </mxCell>
        <mxCell id="ScCZQf0IAp3NMGlHaYm5-70" value="&lt;ul&gt;&lt;li&gt;Many-to-Many relationships have an implied JOIN table between the entities.&lt;/li&gt;&lt;li&gt;Color Coding represents general entity collections for functional purposes.&lt;/li&gt;&lt;li&gt;Lookup and other tables are omitted for brevity&lt;/li&gt;&lt;li&gt;THIS IS A DRAFT and SUBJECT to change.&lt;/li&gt;&lt;/ul&gt;" style="text;html=1;strokeColor=none;fillColor=none;align=left;verticalAlign=top;whiteSpace=wrap;rounded=0;fontSize=16;" vertex="1" parent="ScCZQf0IAp3NMGlHaYm5-1">
          <mxGeometry x="1020" y="40" width="530" height="150" as="geometry" />
        </mxCell>
        <mxCell id="ScCZQf0IAp3NMGlHaYm5-71" style="edgeStyle=orthogonalEdgeStyle;rounded=0;orthogonalLoop=1;jettySize=auto;html=1;exitX=0.5;exitY=0;exitDx=0;exitDy=0;startArrow=ERzeroToOne;startFill=0;entryX=0.385;entryY=1.005;entryDx=0;entryDy=0;entryPerimeter=0;endArrow=ERoneToMany;endFill=0;endSize=10;startSize=10;" edge="1" parent="ScCZQf0IAp3NMGlHaYm5-1" source="ScCZQf0IAp3NMGlHaYm5-72" target="ScCZQf0IAp3NMGlHaYm5-3">
          <mxGeometry relative="1" as="geometry" />
        </mxCell>
        <mxCell id="ScCZQf0IAp3NMGlHaYm5-72" value="Attachment" style="swimlane;childLayout=stackLayout;horizontal=1;startSize=30;horizontalStack=0;rounded=1;fontSize=14;fontStyle=0;strokeWidth=2;resizeParent=0;resizeLast=1;shadow=0;dashed=0;align=center;fillColor=#ffe6cc;strokeColor=#d79b00;" vertex="1" parent="ScCZQf0IAp3NMGlHaYm5-1">
          <mxGeometry x="90" y="860" width="160" height="160" as="geometry" />
        </mxCell>
        <mxCell id="ScCZQf0IAp3NMGlHaYm5-73" value="+Attachment_ID&#xa;+DataRequest_ID&#xa;+DocumentName&#xa;+FileName&#xa;+ContentType&#xa;+IsFinalDeliverable" style="align=left;strokeColor=none;fillColor=none;spacingLeft=4;fontSize=12;verticalAlign=top;resizable=0;rotatable=0;part=1;" vertex="1" parent="ScCZQf0IAp3NMGlHaYm5-72">
          <mxGeometry y="30" width="160" height="130" as="geometry" />
        </mxCell>
      </root>
    </mxGraphModel>
  </diagram>
  <diagram id="uDVDYQTD0BUuLCV6VyL6" name="ERD Explanations">
    <mxGraphModel dx="1517" dy="-113" grid="1" gridSize="10" guides="1" tooltips="1" connect="1" arrows="1" fold="1" page="1" pageScale="1" pageWidth="850" pageHeight="1100" math="0" shadow="0">
      <root>
        <mxCell id="0" />
        <mxCell id="1" parent="0" />
        <mxCell id="P_Ra42ijNg96cDTC_862-1" value="&lt;section style=&quot;display: block; box-sizing: border-box; color: rgb(54, 54, 54); font-family: &amp;quot;Segoe UI&amp;quot;, &amp;quot;Segoe UI Web Regular&amp;quot;, &amp;quot;Segoe UI Symbol&amp;quot;, &amp;quot;Helvetica Neue&amp;quot;, &amp;quot;BBAlpha Sans&amp;quot;, &amp;quot;S60 Sans&amp;quot;, Arial, sans-serif; font-size: 12.5px; font-style: normal; font-variant-ligatures: normal; font-variant-caps: normal; font-weight: 400; letter-spacing: normal; orphans: 2; text-align: start; text-indent: 0px; text-transform: none; widows: 2; word-spacing: 0px; -webkit-text-stroke-width: 0px; background-color: rgb(255, 255, 255); text-decoration-thickness: initial; text-decoration-style: initial; text-decoration-color: initial;&quot; aria-label=&quot;Strong and weak entities&quot; role=&quot;region&quot; class=&quot;ocpSection&quot;&gt;&lt;h2 style=&quot;font-size: 3em; color: rgb(30, 30, 30); margin-bottom: 20px; padding-bottom: 0px; font-weight: 300; box-sizing: border-box; font-family: &amp;quot;Segoe UI Light&amp;quot;, &amp;quot;Segoe WP Light&amp;quot;, wf_segoe-ui_light, wf_segoe-ui_normal, &amp;quot;Segoe UI&amp;quot;, &amp;quot;Segoe WP&amp;quot;, Helvetica, Tahoma, Arial, sans-serif; line-height: 1.33; margin-top: 48px;&quot;&gt;Strong and weak entities&lt;/h2&gt;&lt;ul style=&quot;box-sizing: border-box; list-style: square; font-size: 1.6em; margin: 30px 0px 30px 30px; padding-left: 18px; padding-bottom: 0px; display: block;&quot;&gt;&lt;li style=&quot;box-sizing: border-box; margin-top: 18px; margin-left: 0px; padding-left: 6px; display: list-item; font-size: 1em;&quot;&gt;&lt;p style=&quot;font-size: 1em; box-sizing: border-box; color: rgb(30, 30, 30); line-height: 1.5; padding: 0px; font-family: &amp;quot;Segoe UI&amp;quot;, &amp;quot;Segoe UI Web&amp;quot;, wf_segoe-ui_normal, &amp;quot;Helvetica Neue&amp;quot;, &amp;quot;BBAlpha Sans&amp;quot;, &amp;quot;S60 Sans&amp;quot;, Arial, sans-serif;&quot;&gt;A&lt;span&gt;&amp;nbsp;&lt;/span&gt;&lt;span style=&quot;box-sizing: border-box; color: rgb(30, 30, 30); font-size: 1em; line-height: 1.5; padding: 0px; font-style: italic;&quot; class=&quot;ocpTerm&quot;&gt;strong entity&lt;/span&gt;&amp;nbsp;has a primary key, meaning that it can be uniquely identified by its attributes alone.&lt;/p&gt;&lt;/li&gt;&lt;li style=&quot;box-sizing: border-box; margin-top: 18px; margin-left: 0px; padding-left: 6px; display: list-item; font-size: 1em;&quot;&gt;&lt;p style=&quot;font-size: 1em; box-sizing: border-box; color: rgb(30, 30, 30); line-height: 1.5; padding: 0px; font-family: &amp;quot;Segoe UI&amp;quot;, &amp;quot;Segoe UI Web&amp;quot;, wf_segoe-ui_normal, &amp;quot;Helvetica Neue&amp;quot;, &amp;quot;BBAlpha Sans&amp;quot;, &amp;quot;S60 Sans&amp;quot;, Arial, sans-serif;&quot;&gt;A&lt;span&gt;&amp;nbsp;&lt;/span&gt;&lt;span style=&quot;box-sizing: border-box; color: rgb(30, 30, 30); font-size: 1em; line-height: 1.5; padding: 0px; font-style: italic;&quot; class=&quot;ocpTerm&quot;&gt;weak entity&lt;/span&gt;&amp;nbsp;is an entity that can&#39;t be uniquely identified by its attributes alone. It is existence-dependent on its parent entity. It must use a foreign key in conjunction with its attributes to create a primary key.&amp;nbsp;Typically, the foreign key is the primary key of a strong entity that the weak entity is related to.&lt;/p&gt;&lt;/li&gt;&lt;/ul&gt;&lt;p style=&quot;font-size: 1.6em; box-sizing: border-box; color: rgb(30, 30, 30); line-height: 1.5; padding: 0px; font-family: &amp;quot;Segoe UI&amp;quot;, &amp;quot;Segoe UI Web&amp;quot;, wf_segoe-ui_normal, &amp;quot;Helvetica Neue&amp;quot;, &amp;quot;BBAlpha Sans&amp;quot;, &amp;quot;S60 Sans&amp;quot;, Arial, sans-serif;&quot;&gt;The relationship between two strong entities is simply called a&lt;span&gt;&amp;nbsp;&lt;/span&gt;&lt;span style=&quot;box-sizing: border-box; color: rgb(30, 30, 30); font-size: 1em; line-height: 1.5; padding: 0px; font-style: italic;&quot; class=&quot;ocpTerm&quot;&gt;relationship&lt;/span&gt;.&amp;nbsp;&lt;/p&gt;&lt;p style=&quot;font-size: 1.6em; box-sizing: border-box; color: rgb(30, 30, 30); line-height: 1.5; padding: 0px; font-family: &amp;quot;Segoe UI&amp;quot;, &amp;quot;Segoe UI Web&amp;quot;, wf_segoe-ui_normal, &amp;quot;Helvetica Neue&amp;quot;, &amp;quot;BBAlpha Sans&amp;quot;, &amp;quot;S60 Sans&amp;quot;, Arial, sans-serif;&quot;&gt;The relationship between a strong entity and a weak entity is called a&lt;span&gt;&amp;nbsp;&lt;/span&gt;&lt;span style=&quot;box-sizing: border-box; color: rgb(30, 30, 30); font-size: 1em; line-height: 1.5; padding: 0px; font-style: italic;&quot; class=&quot;ocpTerm&quot;&gt;strong relationship&lt;/span&gt;.&lt;/p&gt;&lt;/section&gt;&lt;section style=&quot;display: block; box-sizing: border-box; color: rgb(54, 54, 54); font-family: &amp;quot;Segoe UI&amp;quot;, &amp;quot;Segoe UI Web Regular&amp;quot;, &amp;quot;Segoe UI Symbol&amp;quot;, &amp;quot;Helvetica Neue&amp;quot;, &amp;quot;BBAlpha Sans&amp;quot;, &amp;quot;S60 Sans&amp;quot;, Arial, sans-serif; font-size: 12.5px; font-style: normal; font-variant-ligatures: normal; font-variant-caps: normal; font-weight: 400; letter-spacing: normal; orphans: 2; text-align: start; text-indent: 0px; text-transform: none; widows: 2; word-spacing: 0px; -webkit-text-stroke-width: 0px; background-color: rgb(255, 255, 255); text-decoration-thickness: initial; text-decoration-style: initial; text-decoration-color: initial;&quot; aria-label=&quot;Symbols in&amp;nbsp;crow&#39;s foot notation&quot; role=&quot;region&quot; class=&quot;ocpSection&quot;&gt;&lt;h2 style=&quot;font-size: 3em; color: rgb(30, 30, 30); margin-bottom: 20px; padding-bottom: 0px; font-weight: 300; box-sizing: border-box; font-family: &amp;quot;Segoe UI Light&amp;quot;, &amp;quot;Segoe WP Light&amp;quot;, wf_segoe-ui_light, wf_segoe-ui_normal, &amp;quot;Segoe UI&amp;quot;, &amp;quot;Segoe WP&amp;quot;, Helvetica, Tahoma, Arial, sans-serif; line-height: 1.33; margin-top: 48px;&quot;&gt;Symbols in&amp;nbsp;crow&#39;s foot notation&lt;/h2&gt;&lt;p style=&quot;font-size: 1.6em; box-sizing: border-box; color: rgb(30, 30, 30); line-height: 1.5; padding: 0px; font-family: &amp;quot;Segoe UI&amp;quot;, &amp;quot;Segoe UI Web&amp;quot;, wf_segoe-ui_normal, &amp;quot;Helvetica Neue&amp;quot;, &amp;quot;BBAlpha Sans&amp;quot;, &amp;quot;S60 Sans&amp;quot;, Arial, sans-serif;&quot;&gt;Crow&#39;s foot diagrams represent entities as boxes, and relationships as lines between the boxes. Different shapes at the ends of these lines represent the relative cardinality of the relationship.&amp;nbsp;&lt;/p&gt;&lt;p style=&quot;font-size: 1.6em; box-sizing: border-box; color: rgb(30, 30, 30); line-height: 1.5; padding: 0px; font-family: &amp;quot;Segoe UI&amp;quot;, &amp;quot;Segoe UI Web&amp;quot;, wf_segoe-ui_normal, &amp;quot;Helvetica Neue&amp;quot;, &amp;quot;BBAlpha Sans&amp;quot;, &amp;quot;S60 Sans&amp;quot;, Arial, sans-serif;&quot;&gt;Three symbols are used to represent cardinality:&lt;/p&gt;&lt;table style=&quot;box-sizing: border-box; border-collapse: collapse; margin: 0px; border-bottom: none; width: 768px; padding: 0px; line-height: normal;&quot; class=&quot;plain&quot;&gt;&lt;tbody style=&quot;box-sizing: border-box;&quot;&gt;&lt;tr style=&quot;box-sizing: border-box; vertical-align: top;&quot;&gt;&lt;td style=&quot;box-sizing: border-box; padding: 4px 10px; margin: 0px; vertical-align: top;&quot;&gt;&lt;p style=&quot;font-size: 1.6em; box-sizing: border-box; color: rgb(30, 30, 30); line-height: 1.5; padding: 0px; font-family: &amp;quot;Segoe UI&amp;quot;, &amp;quot;Segoe UI Web&amp;quot;, wf_segoe-ui_normal, &amp;quot;Helvetica Neue&amp;quot;, &amp;quot;BBAlpha Sans&amp;quot;, &amp;quot;S60 Sans&amp;quot;, Arial, sans-serif;&quot;&gt;A ring&amp;nbsp;represents &quot;zero&quot;&lt;/p&gt;&lt;/td&gt;&lt;td style=&quot;box-sizing: border-box; padding: 4px 10px; margin: 0px; vertical-align: top;&quot;&gt;&lt;p style=&quot;font-size: 1.6em; box-sizing: border-box; color: rgb(30, 30, 30); line-height: 1.5; padding: 0px; font-family: &amp;quot;Segoe UI&amp;quot;, &amp;quot;Segoe UI Web&amp;quot;, wf_segoe-ui_normal, &amp;quot;Helvetica Neue&amp;quot;, &amp;quot;BBAlpha Sans&amp;quot;, &amp;quot;S60 Sans&amp;quot;, Arial, sans-serif;&quot;&gt;&lt;img style=&quot;box-sizing: border-box; border: none; max-width: none;&quot; loading=&quot;lazy&quot; alt=&quot;The ring symbol in Crow&#39;s Foot Notation.&quot; src=&quot;https://support.content.office.net/en-us/media/c0df1792-dc90-41c2-a170-7f300243b69f.png&quot;&gt;&lt;/p&gt;&lt;/td&gt;&lt;/tr&gt;&lt;tr style=&quot;box-sizing: border-box; vertical-align: top;&quot;&gt;&lt;td style=&quot;box-sizing: border-box; padding: 4px 10px; margin: 0px; vertical-align: top;&quot;&gt;&lt;p style=&quot;font-size: 1.6em; box-sizing: border-box; color: rgb(30, 30, 30); line-height: 1.5; padding: 0px; font-family: &amp;quot;Segoe UI&amp;quot;, &amp;quot;Segoe UI Web&amp;quot;, wf_segoe-ui_normal, &amp;quot;Helvetica Neue&amp;quot;, &amp;quot;BBAlpha Sans&amp;quot;, &amp;quot;S60 Sans&amp;quot;, Arial, sans-serif;&quot;&gt;A dash&amp;nbsp;represents &quot;one&quot;&lt;/p&gt;&lt;/td&gt;&lt;td style=&quot;box-sizing: border-box; padding: 4px 10px; margin: 0px; vertical-align: top;&quot;&gt;&lt;p style=&quot;font-size: 1.6em; box-sizing: border-box; color: rgb(30, 30, 30); line-height: 1.5; padding: 0px; font-family: &amp;quot;Segoe UI&amp;quot;, &amp;quot;Segoe UI Web&amp;quot;, wf_segoe-ui_normal, &amp;quot;Helvetica Neue&amp;quot;, &amp;quot;BBAlpha Sans&amp;quot;, &amp;quot;S60 Sans&amp;quot;, Arial, sans-serif;&quot;&gt;&lt;img style=&quot;box-sizing: border-box; border: none; max-width: none;&quot; loading=&quot;lazy&quot; alt=&quot;The dash symbol in Crow&#39;s Foot Notation.&quot; src=&quot;https://support.content.office.net/en-us/media/97e7bb68-89e5-412d-86dc-58867ce8e446.png&quot;&gt;&lt;/p&gt;&lt;/td&gt;&lt;/tr&gt;&lt;tr style=&quot;box-sizing: border-box; vertical-align: top;&quot;&gt;&lt;td style=&quot;box-sizing: border-box; padding: 4px 10px; margin: 0px; vertical-align: top;&quot;&gt;&lt;p style=&quot;font-size: 1.6em; box-sizing: border-box; color: rgb(30, 30, 30); line-height: 1.5; padding: 0px; font-family: &amp;quot;Segoe UI&amp;quot;, &amp;quot;Segoe UI Web&amp;quot;, wf_segoe-ui_normal, &amp;quot;Helvetica Neue&amp;quot;, &amp;quot;BBAlpha Sans&amp;quot;, &amp;quot;S60 Sans&amp;quot;, Arial, sans-serif;&quot;&gt;A crow&#39;s foot&amp;nbsp;represents &quot;many&quot; or &quot;infinite&quot;&lt;/p&gt;&lt;/td&gt;&lt;td style=&quot;box-sizing: border-box; padding: 4px 10px; margin: 0px; vertical-align: top;&quot;&gt;&lt;p style=&quot;font-size: 1.6em; box-sizing: border-box; color: rgb(30, 30, 30); line-height: 1.5; padding: 0px; font-family: &amp;quot;Segoe UI&amp;quot;, &amp;quot;Segoe UI Web&amp;quot;, wf_segoe-ui_normal, &amp;quot;Helvetica Neue&amp;quot;, &amp;quot;BBAlpha Sans&amp;quot;, &amp;quot;S60 Sans&amp;quot;, Arial, sans-serif;&quot;&gt;&lt;img style=&quot;box-sizing: border-box; border: none; max-width: none;&quot; loading=&quot;lazy&quot; alt=&quot;The crow&#39;s foot symbol in Crow&#39;s Foot Notation.&quot; src=&quot;https://support.content.office.net/en-us/media/36f7c7d4-ff66-4ea7-ad3d-ff1513017cf0.png&quot;&gt;&lt;/p&gt;&lt;/td&gt;&lt;/tr&gt;&lt;/tbody&gt;&lt;/table&gt;&lt;p style=&quot;font-size: 1.6em; box-sizing: border-box; color: rgb(30, 30, 30); line-height: 1.5; padding: 0px; font-family: &amp;quot;Segoe UI&amp;quot;, &amp;quot;Segoe UI Web&amp;quot;, wf_segoe-ui_normal, &amp;quot;Helvetica Neue&amp;quot;, &amp;quot;BBAlpha Sans&amp;quot;, &amp;quot;S60 Sans&amp;quot;, Arial, sans-serif;&quot;&gt;These symbols are used in pairs to represent the four types of cardinality that an entity may have in a relationship. The inner element of the notation represents the minimum, and the outer element (closest to the entity) represents the maximum.&lt;/p&gt;&lt;table style=&quot;box-sizing: border-box; border-collapse: collapse; margin-bottom: 20px; border-bottom: none; width: 768px; margin-top: 10px; padding: 0px; line-height: normal;&quot; class=&quot;grid&quot;&gt;&lt;thead style=&quot;box-sizing: border-box;&quot;&gt;&lt;tr style=&quot;box-sizing: border-box; vertical-align: top;&quot;&gt;&lt;th style=&quot;box-sizing: border-box; text-align: left; padding: 3px 10px 3px 5px; background: rgb(216, 216, 216); border: 1px solid rgb(0, 0, 0); font-size: 1.12em; color: rgb(51, 51, 51); text-transform: uppercase; font-weight: normal;&quot;&gt;&lt;p style=&quot;font-size: 1.6em; box-sizing: border-box; color: rgb(30, 30, 30); line-height: 1.5; padding: 0px; font-family: &amp;quot;Segoe UI&amp;quot;, &amp;quot;Segoe UI Web&amp;quot;, wf_segoe-ui_normal, &amp;quot;Helvetica Neue&amp;quot;, &amp;quot;BBAlpha Sans&amp;quot;, &amp;quot;S60 Sans&amp;quot;, Arial, sans-serif;&quot;&gt;DESCRIPTION&lt;/p&gt;&lt;/th&gt;&lt;th style=&quot;box-sizing: border-box; text-align: left; padding: 3px 10px 3px 5px; background: rgb(216, 216, 216); border: 1px solid rgb(0, 0, 0); font-size: 1.12em; color: rgb(51, 51, 51); text-transform: uppercase; font-weight: normal;&quot;&gt;&lt;p style=&quot;font-size: 1.6em; box-sizing: border-box; color: rgb(30, 30, 30); line-height: 1.5; padding: 0px; font-family: &amp;quot;Segoe UI&amp;quot;, &amp;quot;Segoe UI Web&amp;quot;, wf_segoe-ui_normal, &amp;quot;Helvetica Neue&amp;quot;, &amp;quot;BBAlpha Sans&amp;quot;, &amp;quot;S60 Sans&amp;quot;, Arial, sans-serif;&quot;&gt;SYMBOL&lt;/p&gt;&lt;/th&gt;&lt;/tr&gt;&lt;/thead&gt;&lt;tbody style=&quot;box-sizing: border-box;&quot;&gt;&lt;tr style=&quot;box-sizing: border-box; vertical-align: top;&quot;&gt;&lt;td style=&quot;box-sizing: border-box; padding: 4px 10px; margin: 0px; vertical-align: top; border: 1px solid rgb(0, 0, 0);&quot;&gt;&lt;p style=&quot;font-size: 1.6em; box-sizing: border-box; color: rgb(30, 30, 30); line-height: 1.5; padding: 0px; font-family: &amp;quot;Segoe UI&amp;quot;, &amp;quot;Segoe UI Web&amp;quot;, wf_segoe-ui_normal, &amp;quot;Helvetica Neue&amp;quot;, &amp;quot;BBAlpha Sans&amp;quot;, &amp;quot;S60 Sans&amp;quot;, Arial, sans-serif;&quot;&gt;Ring&amp;nbsp;and&amp;nbsp;dash:&amp;nbsp;Minimum zero, maximum one (optional)&lt;/p&gt;&lt;/td&gt;&lt;td style=&quot;box-sizing: border-box; padding: 4px 10px; margin: 0px; vertical-align: top; border: 1px solid rgb(0, 0, 0);&quot;&gt;&lt;p style=&quot;font-size: 1.6em; box-sizing: border-box; color: rgb(30, 30, 30); line-height: 1.5; padding: 0px; font-family: &amp;quot;Segoe UI&amp;quot;, &amp;quot;Segoe UI Web&amp;quot;, wf_segoe-ui_normal, &amp;quot;Helvetica Neue&amp;quot;, &amp;quot;BBAlpha Sans&amp;quot;, &amp;quot;S60 Sans&amp;quot;, Arial, sans-serif;&quot;&gt;&lt;img style=&quot;box-sizing: border-box; border: none; max-width: none;&quot; loading=&quot;lazy&quot; alt=&quot;The symbol for Zero or One, in crow&#39;s foot notation.&quot; src=&quot;https://support.content.office.net/en-us/media/2c940893-a22e-4a59-8ed3-02afef9624ec.png&quot;&gt;&lt;/p&gt;&lt;/td&gt;&lt;/tr&gt;&lt;tr style=&quot;box-sizing: border-box; vertical-align: top;&quot;&gt;&lt;td style=&quot;box-sizing: border-box; padding: 4px 10px; margin: 0px; vertical-align: top; border: 1px solid rgb(0, 0, 0);&quot;&gt;&lt;p style=&quot;font-size: 1.6em; box-sizing: border-box; color: rgb(30, 30, 30); line-height: 1.5; padding: 0px; font-family: &amp;quot;Segoe UI&amp;quot;, &amp;quot;Segoe UI Web&amp;quot;, wf_segoe-ui_normal, &amp;quot;Helvetica Neue&amp;quot;, &amp;quot;BBAlpha Sans&amp;quot;, &amp;quot;S60 Sans&amp;quot;, Arial, sans-serif;&quot;&gt;Dash&amp;nbsp;and&amp;nbsp;dash:&amp;nbsp;Minimum one, maximum one (mandatory)&lt;/p&gt;&lt;/td&gt;&lt;td style=&quot;box-sizing: border-box; padding: 4px 10px; margin: 0px; vertical-align: top; border: 1px solid rgb(0, 0, 0);&quot;&gt;&lt;p style=&quot;font-size: 1.6em; box-sizing: border-box; color: rgb(30, 30, 30); line-height: 1.5; padding: 0px; font-family: &amp;quot;Segoe UI&amp;quot;, &amp;quot;Segoe UI Web&amp;quot;, wf_segoe-ui_normal, &amp;quot;Helvetica Neue&amp;quot;, &amp;quot;BBAlpha Sans&amp;quot;, &amp;quot;S60 Sans&amp;quot;, Arial, sans-serif;&quot;&gt;&lt;img style=&quot;box-sizing: border-box; border: none; max-width: none;&quot; loading=&quot;lazy&quot; alt=&quot;The symbol for One and Only One, in crow&#39;s foot notation.&quot; src=&quot;https://support.content.office.net/en-us/media/637523c1-13d1-4115-b283-b74f1cb26b04.png&quot;&gt;&lt;/p&gt;&lt;/td&gt;&lt;/tr&gt;&lt;tr style=&quot;box-sizing: border-box; vertical-align: top;&quot;&gt;&lt;td style=&quot;box-sizing: border-box; padding: 4px 10px; margin: 0px; vertical-align: top; border: 1px solid rgb(0, 0, 0);&quot;&gt;&lt;p style=&quot;font-size: 1.6em; box-sizing: border-box; color: rgb(30, 30, 30); line-height: 1.5; padding: 0px; font-family: &amp;quot;Segoe UI&amp;quot;, &amp;quot;Segoe UI Web&amp;quot;, wf_segoe-ui_normal, &amp;quot;Helvetica Neue&amp;quot;, &amp;quot;BBAlpha Sans&amp;quot;, &amp;quot;S60 Sans&amp;quot;, Arial, sans-serif;&quot;&gt;Ring&amp;nbsp;and&amp;nbsp;crow&#39;s foot:&amp;nbsp;Minimum zero, maximum many (optional)&lt;/p&gt;&lt;/td&gt;&lt;td style=&quot;box-sizing: border-box; padding: 4px 10px; margin: 0px; vertical-align: top; border: 1px solid rgb(0, 0, 0);&quot;&gt;&lt;p style=&quot;font-size: 1.6em; box-sizing: border-box; color: rgb(30, 30, 30); line-height: 1.5; padding: 0px; font-family: &amp;quot;Segoe UI&amp;quot;, &amp;quot;Segoe UI Web&amp;quot;, wf_segoe-ui_normal, &amp;quot;Helvetica Neue&amp;quot;, &amp;quot;BBAlpha Sans&amp;quot;, &amp;quot;S60 Sans&amp;quot;, Arial, sans-serif;&quot;&gt;&lt;img style=&quot;box-sizing: border-box; border: none; max-width: none;&quot; loading=&quot;lazy&quot; alt=&quot;The symbol for Zero or More, in crow&#39;s foot notation.&quot; src=&quot;https://support.content.office.net/en-us/media/eb23b8f6-10cb-4b76-a0fe-f86a8f75823b.png&quot;&gt;&lt;/p&gt;&lt;/td&gt;&lt;/tr&gt;&lt;tr style=&quot;box-sizing: border-box; vertical-align: top;&quot;&gt;&lt;td style=&quot;box-sizing: border-box; padding: 4px 10px; margin: 0px; vertical-align: top; border: 1px solid rgb(0, 0, 0);&quot;&gt;&lt;p style=&quot;font-size: 1.6em; box-sizing: border-box; color: rgb(30, 30, 30); line-height: 1.5; padding: 0px; font-family: &amp;quot;Segoe UI&amp;quot;, &amp;quot;Segoe UI Web&amp;quot;, wf_segoe-ui_normal, &amp;quot;Helvetica Neue&amp;quot;, &amp;quot;BBAlpha Sans&amp;quot;, &amp;quot;S60 Sans&amp;quot;, Arial, sans-serif;&quot;&gt;Dash&amp;nbsp;and&amp;nbsp;crow&#39;s foot:&amp;nbsp;Minimum one, maximum many (mandatory)&lt;/p&gt;&lt;/td&gt;&lt;td style=&quot;box-sizing: border-box; padding: 4px 10px; margin: 0px; vertical-align: top; border: 1px solid rgb(0, 0, 0);&quot;&gt;&lt;p style=&quot;font-size: 1.6em; box-sizing: border-box; color: rgb(30, 30, 30); line-height: 1.5; padding: 0px; font-family: &amp;quot;Segoe UI&amp;quot;, &amp;quot;Segoe UI Web&amp;quot;, wf_segoe-ui_normal, &amp;quot;Helvetica Neue&amp;quot;, &amp;quot;BBAlpha Sans&amp;quot;, &amp;quot;S60 Sans&amp;quot;, Arial, sans-serif;&quot;&gt;&lt;img style=&quot;box-sizing: border-box; border: none; max-width: none;&quot; loading=&quot;lazy&quot; alt=&quot;The symbol for One or More, in crow&#39;s foot notation.&quot; src=&quot;https://support.content.office.net/en-us/media/bb23dbe2-469c-4855-b1d3-60f152219e74.png&quot;&gt;&lt;/p&gt;&lt;/td&gt;&lt;/tr&gt;&lt;/tbody&gt;&lt;/table&gt;&lt;/section&gt;" style="text;whiteSpace=wrap;html=1;fontSize=10;" parent="1" vertex="1">
          <mxGeometry x="38" y="1120" width="762" height="1201" as="geometry" />
        </mxCell>
        <mxCell id="P_Ra42ijNg96cDTC_862-2" value="&lt;h2 style=&quot;box-sizing: inherit; margin: 0.5em 0px 0.2em; padding: 0px; border: 0px; font-style: normal; font-variant-ligatures: normal; font-variant-caps: normal; font-variant-numeric: inherit; font-variant-east-asian: inherit; font-weight: 700; font-stretch: inherit; line-height: 1.15; font-family: -apple-system, BlinkMacSystemFont, &amp;quot;Segoe UI&amp;quot;, Roboto, Oxygen, Ubuntu, Cantarell, &amp;quot;Open Sans&amp;quot;, &amp;quot;Helvetica Neue&amp;quot;, sans-serif; font-size: 3.6rem; vertical-align: baseline; text-rendering: optimizelegibility; min-width: 100%; color: var(--gray85); letter-spacing: normal; orphans: 2; text-align: start; text-indent: 0px; text-transform: none; widows: 2; word-spacing: 0px; -webkit-text-stroke-width: 0px; background-color: rgb(255, 255, 255); text-decoration-thickness: initial; text-decoration-style: initial; text-decoration-color: initial;&quot; id=&quot;relationship-between-entities-in-erds&quot;&gt;Relationship Between Entities in ERDs&lt;/h2&gt;&lt;p style=&quot;box-sizing: inherit; margin: 0px 0px 1.5em; padding: 0px; border: 0px; font-style: normal; font-variant-ligatures: normal; font-variant-caps: normal; font-variant-numeric: inherit; font-variant-east-asian: inherit; font-weight: 400; font-stretch: inherit; line-height: inherit; font-family: Lato, sans-serif; font-size: 27.5px; vertical-align: baseline; min-width: 100%; color: rgb(10, 10, 35); letter-spacing: normal; orphans: 2; text-align: start; text-indent: 0px; text-transform: none; widows: 2; word-spacing: 0px; -webkit-text-stroke-width: 0px; background-color: rgb(255, 255, 255); text-decoration-thickness: initial; text-decoration-style: initial; text-decoration-color: initial;&quot;&gt;In the previous sections, we talked about entities and their attributes. In most cases, databases are made up of more than one entity.&lt;/p&gt;&lt;p style=&quot;box-sizing: inherit; margin: 0px 0px 1.5em; padding: 0px; border: 0px; font-style: normal; font-variant-ligatures: normal; font-variant-caps: normal; font-variant-numeric: inherit; font-variant-east-asian: inherit; font-weight: 400; font-stretch: inherit; line-height: inherit; font-family: Lato, sans-serif; font-size: 27.5px; vertical-align: baseline; min-width: 100%; color: rgb(10, 10, 35); letter-spacing: normal; orphans: 2; text-align: start; text-indent: 0px; text-transform: none; widows: 2; word-spacing: 0px; -webkit-text-stroke-width: 0px; background-color: rgb(255, 255, 255); text-decoration-thickness: initial; text-decoration-style: initial; text-decoration-color: initial;&quot;&gt;To understand the relationship between one entity and another, we use lines to connect them. But these lines have notations (indicators) on them to specify the type of relationship that exists between two entities.&lt;/p&gt;&lt;p style=&quot;box-sizing: inherit; margin: 0px 0px 1.5em; padding: 0px; border: 0px; font-style: normal; font-variant-ligatures: normal; font-variant-caps: normal; font-variant-numeric: inherit; font-variant-east-asian: inherit; font-weight: 400; font-stretch: inherit; line-height: inherit; font-family: Lato, sans-serif; font-size: 27.5px; vertical-align: baseline; min-width: 100%; color: rgb(10, 10, 35); letter-spacing: normal; orphans: 2; text-align: start; text-indent: 0px; text-transform: none; widows: 2; word-spacing: 0px; -webkit-text-stroke-width: 0px; background-color: rgb(255, 255, 255); text-decoration-thickness: initial; text-decoration-style: initial; text-decoration-color: initial;&quot;&gt;We&#39;ll use crow&#39;s foot notation to specify our entity relationships.&lt;/p&gt;&lt;h3 style=&quot;box-sizing: inherit; margin: 0.5em 0px 0.2em; padding: 0px; border: 0px; font-style: normal; font-variant-ligatures: normal; font-variant-caps: normal; font-variant-numeric: inherit; font-variant-east-asian: inherit; font-weight: 700; font-stretch: inherit; line-height: 1.15; font-family: -apple-system, BlinkMacSystemFont, &amp;quot;Segoe UI&amp;quot;, Roboto, Oxygen, Ubuntu, Cantarell, &amp;quot;Open Sans&amp;quot;, &amp;quot;Helvetica Neue&amp;quot;, sans-serif; font-size: 2.8rem; vertical-align: baseline; text-rendering: optimizelegibility; min-width: 100%; color: var(--gray85); letter-spacing: normal; orphans: 2; text-align: start; text-indent: 0px; text-transform: none; widows: 2; word-spacing: 0px; -webkit-text-stroke-width: 0px; background-color: rgb(255, 255, 255); text-decoration-thickness: initial; text-decoration-style: initial; text-decoration-color: initial;&quot; id=&quot;symbols-in-crow-s-foot-notation-and-their-meaning&quot;&gt;Symbols in Crow’s Foot Notation and Their Meaning&lt;/h3&gt;&lt;p style=&quot;box-sizing: inherit; margin: 0px 0px 1.5em; padding: 0px; border: 0px; font-style: normal; font-variant-ligatures: normal; font-variant-caps: normal; font-variant-numeric: inherit; font-variant-east-asian: inherit; font-weight: 400; font-stretch: inherit; line-height: inherit; font-family: Lato, sans-serif; font-size: 27.5px; vertical-align: baseline; min-width: 100%; color: rgb(10, 10, 35); letter-spacing: normal; orphans: 2; text-align: start; text-indent: 0px; text-transform: none; widows: 2; word-spacing: 0px; -webkit-text-stroke-width: 0px; background-color: rgb(255, 255, 255); text-decoration-thickness: initial; text-decoration-style: initial; text-decoration-color: initial;&quot;&gt;Before we see diagrams of the symbols associated with crow&#39;s foot notation, we need to discuss a key term in crow&#39;s foot notation.&lt;/p&gt;&lt;p style=&quot;box-sizing: inherit; margin: 0px 0px 1.5em; padding: 0px; border: 0px; font-style: normal; font-variant-ligatures: normal; font-variant-caps: normal; font-variant-numeric: inherit; font-variant-east-asian: inherit; font-weight: 400; font-stretch: inherit; line-height: inherit; font-family: Lato, sans-serif; font-size: 27.5px; vertical-align: baseline; min-width: 100%; color: rgb(10, 10, 35); letter-spacing: normal; orphans: 2; text-align: start; text-indent: 0px; text-transform: none; widows: 2; word-spacing: 0px; -webkit-text-stroke-width: 0px; background-color: rgb(255, 255, 255); text-decoration-thickness: initial; text-decoration-style: initial; text-decoration-color: initial;&quot;&gt;One of the most important terms to know when using crow&#39;s foot notation is&lt;span&gt;&amp;nbsp;&lt;/span&gt;&lt;strong style=&quot;box-sizing: inherit; margin: 0px; padding: 0px; border: 0px; font-style: inherit; font-variant: inherit; font-weight: 700; font-stretch: inherit; line-height: inherit; font-family: inherit; font-size: 27.5px; vertical-align: baseline; color: var(--gray85);&quot;&gt;cardinality&lt;/strong&gt;.&lt;/p&gt;&lt;p style=&quot;box-sizing: inherit; margin: 0px 0px 1.5em; padding: 0px; border: 0px; font-style: normal; font-variant-ligatures: normal; font-variant-caps: normal; font-variant-numeric: inherit; font-variant-east-asian: inherit; font-weight: 400; font-stretch: inherit; line-height: inherit; font-family: Lato, sans-serif; font-size: 27.5px; vertical-align: baseline; min-width: 100%; color: rgb(10, 10, 35); letter-spacing: normal; orphans: 2; text-align: start; text-indent: 0px; text-transform: none; widows: 2; word-spacing: 0px; -webkit-text-stroke-width: 0px; background-color: rgb(255, 255, 255); text-decoration-thickness: initial; text-decoration-style: initial; text-decoration-color: initial;&quot;&gt;&lt;strong style=&quot;box-sizing: inherit; margin: 0px; padding: 0px; border: 0px; font-style: inherit; font-variant: inherit; font-weight: 700; font-stretch: inherit; line-height: inherit; font-family: inherit; font-size: 27.5px; vertical-align: baseline; color: var(--gray85);&quot;&gt;Cardinality&lt;span&gt;&amp;nbsp;&lt;/span&gt;&lt;/strong&gt;acts as a parameter for the relationship between entities. For one entity, there is a minimum and maximum number that helps define its relationship with another entity.&lt;/p&gt;&lt;p style=&quot;box-sizing: inherit; margin: 0px 0px 1.5em; padding: 0px; border: 0px; font-style: normal; font-variant-ligatures: normal; font-variant-caps: normal; font-variant-numeric: inherit; font-variant-east-asian: inherit; font-weight: 400; font-stretch: inherit; line-height: inherit; font-family: Lato, sans-serif; font-size: 27.5px; vertical-align: baseline; min-width: 100%; color: rgb(10, 10, 35); letter-spacing: normal; orphans: 2; text-align: start; text-indent: 0px; text-transform: none; widows: 2; word-spacing: 0px; -webkit-text-stroke-width: 0px; background-color: rgb(255, 255, 255); text-decoration-thickness: initial; text-decoration-style: initial; text-decoration-color: initial;&quot;&gt;Don&#39;t worry if these explanations seem confusing. As we go further, you&#39;ll understand them perfectly.&lt;/p&gt;&lt;p style=&quot;box-sizing: inherit; margin: 0px 0px 1.5em; padding: 0px; border: 0px; font-style: normal; font-variant-ligatures: normal; font-variant-caps: normal; font-variant-numeric: inherit; font-variant-east-asian: inherit; font-weight: 400; font-stretch: inherit; line-height: inherit; font-family: Lato, sans-serif; font-size: 27.5px; vertical-align: baseline; min-width: 100%; color: rgb(10, 10, 35); letter-spacing: normal; orphans: 2; text-align: start; text-indent: 0px; text-transform: none; widows: 2; word-spacing: 0px; -webkit-text-stroke-width: 0px; background-color: rgb(255, 255, 255); text-decoration-thickness: initial; text-decoration-style: initial; text-decoration-color: initial;&quot;&gt;Here are the symbols associated with the crow&#39;s foot notation:&lt;/p&gt;&lt;h4 style=&quot;box-sizing: inherit; margin: 0.5em 0px 0.2em; padding: 0px; border: 0px; font-style: normal; font-variant-ligatures: normal; font-variant-caps: normal; font-variant-numeric: inherit; font-variant-east-asian: inherit; font-weight: 700; font-stretch: inherit; line-height: 1.15; font-family: -apple-system, BlinkMacSystemFont, &amp;quot;Segoe UI&amp;quot;, Roboto, Oxygen, Ubuntu, Cantarell, &amp;quot;Open Sans&amp;quot;, &amp;quot;Helvetica Neue&amp;quot;, sans-serif; font-size: 2.6rem; vertical-align: baseline; text-rendering: optimizelegibility; min-width: 100%; color: var(--gray85); letter-spacing: normal; orphans: 2; text-align: start; text-indent: 0px; text-transform: none; widows: 2; word-spacing: 0px; -webkit-text-stroke-width: 0px; background-color: rgb(255, 255, 255); text-decoration-thickness: initial; text-decoration-style: initial; text-decoration-color: initial;&quot; id=&quot;zero&quot;&gt;Zero&lt;/h4&gt;&lt;figure style=&quot;box-sizing: inherit; margin: 1.5em 0px 3em; padding: 0px; border: 0px; font-style: normal; font-variant-ligatures: normal; font-variant-caps: normal; font-variant-numeric: inherit; font-variant-east-asian: inherit; font-weight: 400; font-stretch: inherit; line-height: inherit; font-family: Lato, sans-serif; font-size: 27.5px; vertical-align: baseline; color: rgb(10, 10, 35); letter-spacing: normal; orphans: 2; text-align: start; text-indent: 0px; text-transform: none; widows: 2; word-spacing: 0px; -webkit-text-stroke-width: 0px; background-color: rgb(255, 255, 255); text-decoration-thickness: initial; text-decoration-style: initial; text-decoration-color: initial;&quot; class=&quot;kg-card kg-image-card&quot;&gt;&lt;img style=&quot;box-sizing: inherit; margin: 0px auto; padding: 0px; border: 0px; font-style: inherit; font-variant: inherit; font-weight: inherit; font-stretch: inherit; line-height: inherit; font-family: inherit; font-size: 27.5px; vertical-align: middle; max-width: 100%; display: block; height: auto;&quot; loading=&quot;lazy&quot; height=&quot;209&quot; width=&quot;1607&quot; sizes=&quot;(min-width: 720px) 720px&quot; srcset=&quot;https://www.freecodecamp.org/news/content/images/size/w600/2022/06/zero-crow.png 600w, https://www.freecodecamp.org/news/content/images/size/w1000/2022/06/zero-crow.png 1000w, https://www.freecodecamp.org/news/content/images/size/w1600/2022/06/zero-crow.png 1600w, https://www.freecodecamp.org/news/content/images/2022/06/zero-crow.png 1607w&quot; alt=&quot;zero-crow&quot; class=&quot;kg-image&quot; src=&quot;https://www.freecodecamp.org/news/content/images/2022/06/zero-crow.png&quot;&gt;&lt;/figure&gt;&lt;p style=&quot;box-sizing: inherit; margin: 0px 0px 1.5em; padding: 0px; border: 0px; font-style: normal; font-variant-ligatures: normal; font-variant-caps: normal; font-variant-numeric: inherit; font-variant-east-asian: inherit; font-weight: 400; font-stretch: inherit; line-height: inherit; font-family: Lato, sans-serif; font-size: 27.5px; vertical-align: baseline; min-width: 100%; color: rgb(10, 10, 35); letter-spacing: normal; orphans: 2; text-align: start; text-indent: 0px; text-transform: none; widows: 2; word-spacing: 0px; -webkit-text-stroke-width: 0px; background-color: rgb(255, 255, 255); text-decoration-thickness: initial; text-decoration-style: initial; text-decoration-color: initial;&quot;&gt;The symbol/diagram above denotes zero in crow&#39;s foot notation. We know this because the of the zero/circle indicator at the right side of the horizontal line.&lt;/p&gt;&lt;h4 style=&quot;box-sizing: inherit; margin: 0.5em 0px 0.2em; padding: 0px; border: 0px; font-style: normal; font-variant-ligatures: normal; font-variant-caps: normal; font-variant-numeric: inherit; font-variant-east-asian: inherit; font-weight: 700; font-stretch: inherit; line-height: 1.15; font-family: -apple-system, BlinkMacSystemFont, &amp;quot;Segoe UI&amp;quot;, Roboto, Oxygen, Ubuntu, Cantarell, &amp;quot;Open Sans&amp;quot;, &amp;quot;Helvetica Neue&amp;quot;, sans-serif; font-size: 2.6rem; vertical-align: baseline; text-rendering: optimizelegibility; min-width: 100%; color: var(--gray85); letter-spacing: normal; orphans: 2; text-align: start; text-indent: 0px; text-transform: none; widows: 2; word-spacing: 0px; -webkit-text-stroke-width: 0px; background-color: rgb(255, 255, 255); text-decoration-thickness: initial; text-decoration-style: initial; text-decoration-color: initial;&quot; id=&quot;one&quot;&gt;One&lt;/h4&gt;&lt;figure style=&quot;box-sizing: inherit; margin: 1.5em 0px 3em; padding: 0px; border: 0px; font-style: normal; font-variant-ligatures: normal; font-variant-caps: normal; font-variant-numeric: inherit; font-variant-east-asian: inherit; font-weight: 400; font-stretch: inherit; line-height: inherit; font-family: Lato, sans-serif; font-size: 27.5px; vertical-align: baseline; color: rgb(10, 10, 35); letter-spacing: normal; orphans: 2; text-align: start; text-indent: 0px; text-transform: none; widows: 2; word-spacing: 0px; -webkit-text-stroke-width: 0px; background-color: rgb(255, 255, 255); text-decoration-thickness: initial; text-decoration-style: initial; text-decoration-color: initial;&quot; class=&quot;kg-card kg-image-card&quot;&gt;&lt;img style=&quot;box-sizing: inherit; margin: 0px auto; padding: 0px; border: 0px; font-style: inherit; font-variant: inherit; font-weight: inherit; font-stretch: inherit; line-height: inherit; font-family: inherit; font-size: 27.5px; vertical-align: middle; max-width: 100%; display: block; height: auto;&quot; loading=&quot;lazy&quot; height=&quot;209&quot; width=&quot;1607&quot; sizes=&quot;(min-width: 720px) 720px&quot; srcset=&quot;https://www.freecodecamp.org/news/content/images/size/w600/2022/06/one-crow.png 600w, https://www.freecodecamp.org/news/content/images/size/w1000/2022/06/one-crow.png 1000w, https://www.freecodecamp.org/news/content/images/size/w1600/2022/06/one-crow.png 1600w, https://www.freecodecamp.org/news/content/images/2022/06/one-crow.png 1607w&quot; alt=&quot;one-crow&quot; class=&quot;kg-image&quot; src=&quot;https://www.freecodecamp.org/news/content/images/2022/06/one-crow.png&quot;&gt;&lt;/figure&gt;&lt;p style=&quot;box-sizing: inherit; margin: 0px 0px 1.5em; padding: 0px; border: 0px; font-style: normal; font-variant-ligatures: normal; font-variant-caps: normal; font-variant-numeric: inherit; font-variant-east-asian: inherit; font-weight: 400; font-stretch: inherit; line-height: inherit; font-family: Lato, sans-serif; font-size: 27.5px; vertical-align: baseline; min-width: 100%; color: rgb(10, 10, 35); letter-spacing: normal; orphans: 2; text-align: start; text-indent: 0px; text-transform: none; widows: 2; word-spacing: 0px; -webkit-text-stroke-width: 0px; background-color: rgb(255, 255, 255); text-decoration-thickness: initial; text-decoration-style: initial; text-decoration-color: initial;&quot;&gt;The diagram above shows a horizontal line with a short vertical lines crossing it. The vertical line acts as the indicator – it denotes one.&lt;/p&gt;&lt;h4 style=&quot;box-sizing: inherit; margin: 0.5em 0px 0.2em; padding: 0px; border: 0px; font-style: normal; font-variant-ligatures: normal; font-variant-caps: normal; font-variant-numeric: inherit; font-variant-east-asian: inherit; font-weight: 700; font-stretch: inherit; line-height: 1.15; font-family: -apple-system, BlinkMacSystemFont, &amp;quot;Segoe UI&amp;quot;, Roboto, Oxygen, Ubuntu, Cantarell, &amp;quot;Open Sans&amp;quot;, &amp;quot;Helvetica Neue&amp;quot;, sans-serif; font-size: 2.6rem; vertical-align: baseline; text-rendering: optimizelegibility; min-width: 100%; color: var(--gray85); letter-spacing: normal; orphans: 2; text-align: start; text-indent: 0px; text-transform: none; widows: 2; word-spacing: 0px; -webkit-text-stroke-width: 0px; background-color: rgb(255, 255, 255); text-decoration-thickness: initial; text-decoration-style: initial; text-decoration-color: initial;&quot; id=&quot;many&quot;&gt;Many&lt;/h4&gt;&lt;figure style=&quot;box-sizing: inherit; margin: 1.5em 0px 3em; padding: 0px; border: 0px; font-style: normal; font-variant-ligatures: normal; font-variant-caps: normal; font-variant-numeric: inherit; font-variant-east-asian: inherit; font-weight: 400; font-stretch: inherit; line-height: inherit; font-family: Lato, sans-serif; font-size: 27.5px; vertical-align: baseline; color: rgb(10, 10, 35); letter-spacing: normal; orphans: 2; text-align: start; text-indent: 0px; text-transform: none; widows: 2; word-spacing: 0px; -webkit-text-stroke-width: 0px; background-color: rgb(255, 255, 255); text-decoration-thickness: initial; text-decoration-style: initial; text-decoration-color: initial;&quot; class=&quot;kg-card kg-image-card&quot;&gt;&lt;img style=&quot;box-sizing: inherit; margin: 0px auto; padding: 0px; border: 0px; font-style: inherit; font-variant: inherit; font-weight: inherit; font-stretch: inherit; line-height: inherit; font-family: inherit; font-size: 27.5px; vertical-align: middle; max-width: 100%; display: block; height: auto;&quot; loading=&quot;lazy&quot; height=&quot;209&quot; width=&quot;1607&quot; sizes=&quot;(min-width: 720px) 720px&quot; srcset=&quot;https://www.freecodecamp.org/news/content/images/size/w600/2022/06/crows-crows-foot.png 600w, https://www.freecodecamp.org/news/content/images/size/w1000/2022/06/crows-crows-foot.png 1000w, https://www.freecodecamp.org/news/content/images/size/w1600/2022/06/crows-crows-foot.png 1600w, https://www.freecodecamp.org/news/content/images/2022/06/crows-crows-foot.png 1607w&quot; alt=&quot;crows-crows-foot&quot; class=&quot;kg-image&quot; src=&quot;https://www.freecodecamp.org/news/content/images/2022/06/crows-crows-foot.png&quot;&gt;&lt;/figure&gt;&lt;p style=&quot;box-sizing: inherit; margin: 0px 0px 1.5em; padding: 0px; border: 0px; font-style: normal; font-variant-ligatures: normal; font-variant-caps: normal; font-variant-numeric: inherit; font-variant-east-asian: inherit; font-weight: 400; font-stretch: inherit; line-height: inherit; font-family: Lato, sans-serif; font-size: 27.5px; vertical-align: baseline; min-width: 100%; color: rgb(10, 10, 35); letter-spacing: normal; orphans: 2; text-align: start; text-indent: 0px; text-transform: none; widows: 2; word-spacing: 0px; -webkit-text-stroke-width: 0px; background-color: rgb(255, 255, 255); text-decoration-thickness: initial; text-decoration-style: initial; text-decoration-color: initial;&quot;&gt;The diagram above denotes many. You can easily remember this symbol because it looks like a crow&#39;s foot.&lt;/p&gt;&lt;p style=&quot;box-sizing: inherit; margin: 0px 0px 1.5em; padding: 0px; border: 0px; font-style: normal; font-variant-ligatures: normal; font-variant-caps: normal; font-variant-numeric: inherit; font-variant-east-asian: inherit; font-weight: 400; font-stretch: inherit; line-height: inherit; font-family: Lato, sans-serif; font-size: 27.5px; vertical-align: baseline; min-width: 100%; color: rgb(10, 10, 35); letter-spacing: normal; orphans: 2; text-align: start; text-indent: 0px; text-transform: none; widows: 2; word-spacing: 0px; -webkit-text-stroke-width: 0px; background-color: rgb(255, 255, 255); text-decoration-thickness: initial; text-decoration-style: initial; text-decoration-color: initial;&quot;&gt;The three diagrams above are the basic representation of indicators in crow&#39;s foot notation. But in most cases, these indicators are combined to fully understand the relationship between entities.&lt;/p&gt;&lt;p style=&quot;box-sizing: inherit; margin: 0px 0px 1.5em; padding: 0px; border: 0px; font-style: normal; font-variant-ligatures: normal; font-variant-caps: normal; font-variant-numeric: inherit; font-variant-east-asian: inherit; font-weight: 400; font-stretch: inherit; line-height: inherit; font-family: Lato, sans-serif; font-size: 27.5px; vertical-align: baseline; min-width: 100%; color: rgb(10, 10, 35); letter-spacing: normal; orphans: 2; text-align: start; text-indent: 0px; text-transform: none; widows: 2; word-spacing: 0px; -webkit-text-stroke-width: 0px; background-color: rgb(255, 255, 255); text-decoration-thickness: initial; text-decoration-style: initial; text-decoration-color: initial;&quot;&gt;By the time we start looking at some practical examples, you&#39;d understand the meaning of these symbols better.&lt;/p&gt;&lt;p style=&quot;box-sizing: inherit; margin: 0px 0px 1.5em; padding: 0px; border: 0px; font-style: normal; font-variant-ligatures: normal; font-variant-caps: normal; font-variant-numeric: inherit; font-variant-east-asian: inherit; font-weight: 400; font-stretch: inherit; line-height: inherit; font-family: Lato, sans-serif; font-size: 27.5px; vertical-align: baseline; min-width: 100%; color: rgb(10, 10, 35); letter-spacing: normal; orphans: 2; text-align: start; text-indent: 0px; text-transform: none; widows: 2; word-spacing: 0px; -webkit-text-stroke-width: 0px; background-color: rgb(255, 255, 255); text-decoration-thickness: initial; text-decoration-style: initial; text-decoration-color: initial;&quot;&gt;Before that, let&#39;s take a look at more diagrams and what they mean. We won&#39;t be introducing anything new – just a combination of the diagrams above.&lt;/p&gt;&lt;h4 style=&quot;box-sizing: inherit; margin: 0.5em 0px 0.2em; padding: 0px; border: 0px; font-style: normal; font-variant-ligatures: normal; font-variant-caps: normal; font-variant-numeric: inherit; font-variant-east-asian: inherit; font-weight: 700; font-stretch: inherit; line-height: 1.15; font-family: -apple-system, BlinkMacSystemFont, &amp;quot;Segoe UI&amp;quot;, Roboto, Oxygen, Ubuntu, Cantarell, &amp;quot;Open Sans&amp;quot;, &amp;quot;Helvetica Neue&amp;quot;, sans-serif; font-size: 2.6rem; vertical-align: baseline; text-rendering: optimizelegibility; min-width: 100%; color: var(--gray85); letter-spacing: normal; orphans: 2; text-align: start; text-indent: 0px; text-transform: none; widows: 2; word-spacing: 0px; -webkit-text-stroke-width: 0px; background-color: rgb(255, 255, 255); text-decoration-thickness: initial; text-decoration-style: initial; text-decoration-color: initial;&quot; id=&quot;zero-or-many&quot;&gt;Zero or Many&lt;/h4&gt;&lt;figure style=&quot;box-sizing: inherit; margin: 1.5em 0px 3em; padding: 0px; border: 0px; font-style: normal; font-variant-ligatures: normal; font-variant-caps: normal; font-variant-numeric: inherit; font-variant-east-asian: inherit; font-weight: 400; font-stretch: inherit; line-height: inherit; font-family: Lato, sans-serif; font-size: 27.5px; vertical-align: baseline; color: rgb(10, 10, 35); letter-spacing: normal; orphans: 2; text-align: start; text-indent: 0px; text-transform: none; widows: 2; word-spacing: 0px; -webkit-text-stroke-width: 0px; background-color: rgb(255, 255, 255); text-decoration-thickness: initial; text-decoration-style: initial; text-decoration-color: initial;&quot; class=&quot;kg-card kg-image-card&quot;&gt;&lt;img style=&quot;box-sizing: inherit; margin: 0px auto; padding: 0px; border: 0px; font-style: inherit; font-variant: inherit; font-weight: inherit; font-stretch: inherit; line-height: inherit; font-family: inherit; font-size: 27.5px; vertical-align: middle; max-width: 100%; display: block; height: auto;&quot; loading=&quot;lazy&quot; height=&quot;209&quot; width=&quot;1607&quot; sizes=&quot;(min-width: 720px) 720px&quot; srcset=&quot;https://www.freecodecamp.org/news/content/images/size/w600/2022/06/zero-and-many-crow.png 600w, https://www.freecodecamp.org/news/content/images/size/w1000/2022/06/zero-and-many-crow.png 1000w, https://www.freecodecamp.org/news/content/images/size/w1600/2022/06/zero-and-many-crow.png 1600w, https://www.freecodecamp.org/news/content/images/2022/06/zero-and-many-crow.png 1607w&quot; alt=&quot;zero-and-many-crow&quot; class=&quot;kg-image&quot; src=&quot;https://www.freecodecamp.org/news/content/images/2022/06/zero-and-many-crow.png&quot;&gt;&lt;/figure&gt;&lt;p style=&quot;box-sizing: inherit; margin: 0px 0px 1.5em; padding: 0px; border: 0px; font-style: normal; font-variant-ligatures: normal; font-variant-caps: normal; font-variant-numeric: inherit; font-variant-east-asian: inherit; font-weight: 400; font-stretch: inherit; line-height: inherit; font-family: Lato, sans-serif; font-size: 27.5px; vertical-align: baseline; min-width: 100%; color: rgb(10, 10, 35); letter-spacing: normal; orphans: 2; text-align: start; text-indent: 0px; text-transform: none; widows: 2; word-spacing: 0px; -webkit-text-stroke-width: 0px; background-color: rgb(255, 255, 255); text-decoration-thickness: initial; text-decoration-style: initial; text-decoration-color: initial;&quot;&gt;As can be seen above, the&lt;span&gt;&amp;nbsp;&lt;/span&gt;&lt;strong style=&quot;box-sizing: inherit; margin: 0px; padding: 0px; border: 0px; font-style: inherit; font-variant: inherit; font-weight: 700; font-stretch: inherit; line-height: inherit; font-family: inherit; font-size: 27.5px; vertical-align: baseline; color: var(--gray85);&quot;&gt;zero or many&lt;span&gt;&amp;nbsp;&lt;/span&gt;&lt;/strong&gt;symbol/indicator in crow&#39;s foot notation is a combination of the zero and many indicators.&lt;/p&gt;&lt;h4 style=&quot;box-sizing: inherit; margin: 0.5em 0px 0.2em; padding: 0px; border: 0px; font-style: normal; font-variant-ligatures: normal; font-variant-caps: normal; font-variant-numeric: inherit; font-variant-east-asian: inherit; font-weight: 700; font-stretch: inherit; line-height: 1.15; font-family: -apple-system, BlinkMacSystemFont, &amp;quot;Segoe UI&amp;quot;, Roboto, Oxygen, Ubuntu, Cantarell, &amp;quot;Open Sans&amp;quot;, &amp;quot;Helvetica Neue&amp;quot;, sans-serif; font-size: 2.6rem; vertical-align: baseline; text-rendering: optimizelegibility; min-width: 100%; color: var(--gray85); letter-spacing: normal; orphans: 2; text-align: start; text-indent: 0px; text-transform: none; widows: 2; word-spacing: 0px; -webkit-text-stroke-width: 0px; background-color: rgb(255, 255, 255); text-decoration-thickness: initial; text-decoration-style: initial; text-decoration-color: initial;&quot; id=&quot;one-or-many&quot;&gt;One or Many&lt;/h4&gt;&lt;figure style=&quot;box-sizing: inherit; margin: 1.5em 0px 3em; padding: 0px; border: 0px; font-style: normal; font-variant-ligatures: normal; font-variant-caps: normal; font-variant-numeric: inherit; font-variant-east-asian: inherit; font-weight: 400; font-stretch: inherit; line-height: inherit; font-family: Lato, sans-serif; font-size: 27.5px; vertical-align: baseline; color: rgb(10, 10, 35); letter-spacing: normal; orphans: 2; text-align: start; text-indent: 0px; text-transform: none; widows: 2; word-spacing: 0px; -webkit-text-stroke-width: 0px; background-color: rgb(255, 255, 255); text-decoration-thickness: initial; text-decoration-style: initial; text-decoration-color: initial;&quot; class=&quot;kg-card kg-image-card&quot;&gt;&lt;img style=&quot;box-sizing: inherit; margin: 0px auto; padding: 0px; border: 0px; font-style: inherit; font-variant: inherit; font-weight: inherit; font-stretch: inherit; line-height: inherit; font-family: inherit; font-size: 27.5px; vertical-align: middle; max-width: 100%; display: block; height: auto;&quot; loading=&quot;lazy&quot; height=&quot;209&quot; width=&quot;1607&quot; sizes=&quot;(min-width: 720px) 720px&quot; srcset=&quot;https://www.freecodecamp.org/news/content/images/size/w600/2022/06/one-and-many-crow.png 600w, https://www.freecodecamp.org/news/content/images/size/w1000/2022/06/one-and-many-crow.png 1000w, https://www.freecodecamp.org/news/content/images/size/w1600/2022/06/one-and-many-crow.png 1600w, https://www.freecodecamp.org/news/content/images/2022/06/one-and-many-crow.png 1607w&quot; alt=&quot;one-and-many-crow&quot; class=&quot;kg-image&quot; src=&quot;https://www.freecodecamp.org/news/content/images/2022/06/one-and-many-crow.png&quot;&gt;&lt;/figure&gt;&lt;p style=&quot;box-sizing: inherit; margin: 0px 0px 1.5em; padding: 0px; border: 0px; font-style: normal; font-variant-ligatures: normal; font-variant-caps: normal; font-variant-numeric: inherit; font-variant-east-asian: inherit; font-weight: 400; font-stretch: inherit; line-height: inherit; font-family: Lato, sans-serif; font-size: 27.5px; vertical-align: baseline; min-width: 100%; color: rgb(10, 10, 35); letter-spacing: normal; orphans: 2; text-align: start; text-indent: 0px; text-transform: none; widows: 2; word-spacing: 0px; -webkit-text-stroke-width: 0px; background-color: rgb(255, 255, 255); text-decoration-thickness: initial; text-decoration-style: initial; text-decoration-color: initial;&quot;&gt;As expected, the&lt;span&gt;&amp;nbsp;&lt;/span&gt;&lt;strong style=&quot;box-sizing: inherit; margin: 0px; padding: 0px; border: 0px; font-style: inherit; font-variant: inherit; font-weight: 700; font-stretch: inherit; line-height: inherit; font-family: inherit; font-size: 27.5px; vertical-align: baseline; color: var(--gray85);&quot;&gt;one or many&lt;span&gt;&amp;nbsp;&lt;/span&gt;&lt;/strong&gt;indicator is a combination of two indicators – one and many.&lt;/p&gt;&lt;h4 style=&quot;box-sizing: inherit; margin: 0.5em 0px 0.2em; padding: 0px; border: 0px; font-style: normal; font-variant-ligatures: normal; font-variant-caps: normal; font-variant-numeric: inherit; font-variant-east-asian: inherit; font-weight: 700; font-stretch: inherit; line-height: 1.15; font-family: -apple-system, BlinkMacSystemFont, &amp;quot;Segoe UI&amp;quot;, Roboto, Oxygen, Ubuntu, Cantarell, &amp;quot;Open Sans&amp;quot;, &amp;quot;Helvetica Neue&amp;quot;, sans-serif; font-size: 2.6rem; vertical-align: baseline; text-rendering: optimizelegibility; min-width: 100%; color: var(--gray85); letter-spacing: normal; orphans: 2; text-align: start; text-indent: 0px; text-transform: none; widows: 2; word-spacing: 0px; -webkit-text-stroke-width: 0px; background-color: rgb(255, 255, 255); text-decoration-thickness: initial; text-decoration-style: initial; text-decoration-color: initial;&quot; id=&quot;one-and-only-one&quot;&gt;One and only one&lt;/h4&gt;&lt;figure style=&quot;box-sizing: inherit; margin: 1.5em 0px 3em; padding: 0px; border: 0px; font-style: normal; font-variant-ligatures: normal; font-variant-caps: normal; font-variant-numeric: inherit; font-variant-east-asian: inherit; font-weight: 400; font-stretch: inherit; line-height: inherit; font-family: Lato, sans-serif; font-size: 27.5px; vertical-align: baseline; color: rgb(10, 10, 35); letter-spacing: normal; orphans: 2; text-align: start; text-indent: 0px; text-transform: none; widows: 2; word-spacing: 0px; -webkit-text-stroke-width: 0px; background-color: rgb(255, 255, 255); text-decoration-thickness: initial; text-decoration-style: initial; text-decoration-color: initial;&quot; class=&quot;kg-card kg-image-card&quot;&gt;&lt;img style=&quot;box-sizing: inherit; margin: 0px auto; padding: 0px; border: 0px; font-style: inherit; font-variant: inherit; font-weight: inherit; font-stretch: inherit; line-height: inherit; font-family: inherit; font-size: 27.5px; vertical-align: middle; max-width: 100%; display: block; height: auto;&quot; loading=&quot;lazy&quot; height=&quot;209&quot; width=&quot;1607&quot; sizes=&quot;(min-width: 720px) 720px&quot; srcset=&quot;https://www.freecodecamp.org/news/content/images/size/w600/2022/06/one-and-one-crow.png 600w, https://www.freecodecamp.org/news/content/images/size/w1000/2022/06/one-and-one-crow.png 1000w, https://www.freecodecamp.org/news/content/images/size/w1600/2022/06/one-and-one-crow.png 1600w, https://www.freecodecamp.org/news/content/images/2022/06/one-and-one-crow.png 1607w&quot; alt=&quot;one-and-one-crow&quot; class=&quot;kg-image&quot; src=&quot;https://www.freecodecamp.org/news/content/images/2022/06/one-and-one-crow.png&quot;&gt;&lt;/figure&gt;&lt;p style=&quot;box-sizing: inherit; margin: 0px 0px 1.5em; padding: 0px; border: 0px; font-style: normal; font-variant-ligatures: normal; font-variant-caps: normal; font-variant-numeric: inherit; font-variant-east-asian: inherit; font-weight: 400; font-stretch: inherit; line-height: inherit; font-family: Lato, sans-serif; font-size: 27.5px; vertical-align: baseline; min-width: 100%; color: rgb(10, 10, 35); letter-spacing: normal; orphans: 2; text-align: start; text-indent: 0px; text-transform: none; widows: 2; word-spacing: 0px; -webkit-text-stroke-width: 0px; background-color: rgb(255, 255, 255); text-decoration-thickness: initial; text-decoration-style: initial; text-decoration-color: initial;&quot;&gt;The&lt;span&gt;&amp;nbsp;&lt;/span&gt;&lt;strong style=&quot;box-sizing: inherit; margin: 0px; padding: 0px; border: 0px; font-style: inherit; font-variant: inherit; font-weight: 700; font-stretch: inherit; line-height: inherit; font-family: inherit; font-size: 27.5px; vertical-align: baseline; color: var(--gray85);&quot;&gt;one and only one&lt;span&gt;&amp;nbsp;&lt;/span&gt;&lt;/strong&gt;indicator has two &quot;one&quot; indicators. In our examples in the next section, you&#39;ll understand its use better.&lt;/p&gt;&lt;p style=&quot;box-sizing: inherit; margin: 0px 0px 1.5em; padding: 0px; border: 0px; font-style: normal; font-variant-ligatures: normal; font-variant-caps: normal; font-variant-numeric: inherit; font-variant-east-asian: inherit; font-weight: 400; font-stretch: inherit; line-height: inherit; font-family: Lato, sans-serif; font-size: 27.5px; vertical-align: baseline; min-width: 100%; color: rgb(10, 10, 35); letter-spacing: normal; orphans: 2; text-align: start; text-indent: 0px; text-transform: none; widows: 2; word-spacing: 0px; -webkit-text-stroke-width: 0px; background-color: rgb(255, 255, 255); text-decoration-thickness: initial; text-decoration-style: initial; text-decoration-color: initial;&quot;&gt;&lt;br&gt;&lt;/p&gt;&lt;p style=&quot;box-sizing: inherit; margin: 0px 0px 1.5em; padding: 0px; border: 0px; font-style: normal; font-variant-ligatures: normal; font-variant-caps: normal; font-variant-numeric: inherit; font-variant-east-asian: inherit; font-weight: 400; font-stretch: inherit; line-height: inherit; font-family: Lato, sans-serif; font-size: 27.5px; vertical-align: baseline; min-width: 100%; color: rgb(10, 10, 35); letter-spacing: normal; orphans: 2; text-align: start; text-indent: 0px; text-transform: none; widows: 2; word-spacing: 0px; -webkit-text-stroke-width: 0px; background-color: rgb(255, 255, 255); text-decoration-thickness: initial; text-decoration-style: initial; text-decoration-color: initial;&quot;&gt;&lt;br&gt;&lt;/p&gt;" style="text;whiteSpace=wrap;html=1;fontSize=10;" parent="1" vertex="1">
          <mxGeometry x="25" y="2830" width="800" height="3590" as="geometry" />
        </mxCell>
      </root>
    </mxGraphModel>
  </diagram>
  <diagram name="Copy of Expanded with no Junction Tables" id="xqx7ujk-Mis2W56Vytcl">
    <mxGraphModel dx="1517" dy="987" grid="1" gridSize="10" guides="1" tooltips="1" connect="1" arrows="1" fold="1" page="1" pageScale="1" pageWidth="850" pageHeight="1100" math="0" shadow="0">
      <root>
        <mxCell id="Lk9Vd1HJ_zHl8-M2dufm-0" />
        <mxCell id="Lk9Vd1HJ_zHl8-M2dufm-1" parent="Lk9Vd1HJ_zHl8-M2dufm-0" />
        <mxCell id="Lk9Vd1HJ_zHl8-M2dufm-2" value="DataRequest" style="swimlane;childLayout=stackLayout;horizontal=1;startSize=30;horizontalStack=0;rounded=1;fontSize=14;fontStyle=0;strokeWidth=2;resizeParent=0;resizeLast=1;shadow=0;dashed=0;align=center;fillColor=#ffe6cc;strokeColor=#d79b00;" vertex="1" parent="Lk9Vd1HJ_zHl8-M2dufm-1">
          <mxGeometry x="60" y="290" width="275" height="250" as="geometry" />
        </mxCell>
        <mxCell id="Lk9Vd1HJ_zHl8-M2dufm-3" value="+DataRequest_ID&#xa;+Name&#xa;+Status&#xa;+Protocol_ID&#xa;+Project_ID&#xa;+GitLabIssue_ID&#xa;+ MUCH MUCH MORE!!" style="align=left;strokeColor=none;fillColor=none;spacingLeft=4;fontSize=12;verticalAlign=top;resizable=0;rotatable=0;part=1;" vertex="1" parent="Lk9Vd1HJ_zHl8-M2dufm-2">
          <mxGeometry y="30" width="275" height="220" as="geometry" />
        </mxCell>
        <mxCell id="Lk9Vd1HJ_zHl8-M2dufm-4" value="Protocol" style="swimlane;childLayout=stackLayout;horizontal=1;startSize=30;horizontalStack=0;rounded=1;fontSize=14;fontStyle=0;strokeWidth=2;resizeParent=0;resizeLast=1;shadow=0;dashed=0;align=center;fillColor=#ffe6cc;strokeColor=#d79b00;" vertex="1" parent="Lk9Vd1HJ_zHl8-M2dufm-1">
          <mxGeometry x="638.75" y="210" width="230" height="190" as="geometry" />
        </mxCell>
        <mxCell id="Lk9Vd1HJ_zHl8-M2dufm-5" value="+Protocol_ID&#xa;+IRAP_ID&#xa;+Name&#xa;+" style="align=left;strokeColor=none;fillColor=none;spacingLeft=4;fontSize=12;verticalAlign=top;resizable=0;rotatable=0;part=1;" vertex="1" parent="Lk9Vd1HJ_zHl8-M2dufm-4">
          <mxGeometry y="30" width="230" height="160" as="geometry" />
        </mxCell>
        <mxCell id="Lk9Vd1HJ_zHl8-M2dufm-6" value="Cohort" style="swimlane;childLayout=stackLayout;horizontal=1;startSize=30;horizontalStack=0;rounded=1;fontSize=14;fontStyle=0;strokeWidth=2;resizeParent=0;resizeLast=1;shadow=0;dashed=0;align=center;fillColor=#ffe6cc;strokeColor=#d79b00;" vertex="1" parent="Lk9Vd1HJ_zHl8-M2dufm-1">
          <mxGeometry x="638.75" y="440" width="230" height="200" as="geometry" />
        </mxCell>
        <mxCell id="Lk9Vd1HJ_zHl8-M2dufm-7" value="+Cohort_ID&#xa;+Source&#xa;+Name&#xa;+Visibility" style="align=left;strokeColor=none;fillColor=none;spacingLeft=4;fontSize=12;verticalAlign=top;resizable=0;rotatable=0;part=1;" vertex="1" parent="Lk9Vd1HJ_zHl8-M2dufm-6">
          <mxGeometry y="30" width="230" height="170" as="geometry" />
        </mxCell>
        <mxCell id="Lk9Vd1HJ_zHl8-M2dufm-8" style="edgeStyle=orthogonalEdgeStyle;rounded=0;orthogonalLoop=1;jettySize=auto;html=1;exitX=0.5;exitY=0;exitDx=0;exitDy=0;entryX=1;entryY=0.5;entryDx=0;entryDy=0;startArrow=ERzeroToMany;startFill=0;endArrow=ERzeroToMany;endFill=0;endSize=10;startSize=10;" edge="1" parent="Lk9Vd1HJ_zHl8-M2dufm-1" source="Lk9Vd1HJ_zHl8-M2dufm-10" target="Lk9Vd1HJ_zHl8-M2dufm-3">
          <mxGeometry relative="1" as="geometry">
            <mxPoint x="718.75" y="820" as="targetPoint" />
            <Array as="points">
              <mxPoint x="718.75" y="720" />
              <mxPoint x="493.75" y="720" />
              <mxPoint x="493.75" y="430" />
            </Array>
          </mxGeometry>
        </mxCell>
        <mxCell id="Lk9Vd1HJ_zHl8-M2dufm-9" style="edgeStyle=orthogonalEdgeStyle;rounded=0;orthogonalLoop=1;jettySize=auto;html=1;exitX=0.75;exitY=0;exitDx=0;exitDy=0;entryX=0.566;entryY=1.009;entryDx=0;entryDy=0;startArrow=ERzeroToMany;startFill=0;endArrow=ERzeroToMany;endFill=0;entryPerimeter=0;endSize=10;startSize=10;" edge="1" parent="Lk9Vd1HJ_zHl8-M2dufm-1" source="Lk9Vd1HJ_zHl8-M2dufm-10" target="Lk9Vd1HJ_zHl8-M2dufm-7">
          <mxGeometry relative="1" as="geometry">
            <mxPoint x="1068.75" y="580" as="targetPoint" />
            <Array as="points">
              <mxPoint x="778.75" y="770" />
              <mxPoint x="768.75" y="770" />
            </Array>
          </mxGeometry>
        </mxCell>
        <mxCell id="Lk9Vd1HJ_zHl8-M2dufm-10" value="Person" style="swimlane;childLayout=stackLayout;horizontal=1;startSize=30;horizontalStack=0;rounded=1;fontSize=14;fontStyle=0;strokeWidth=2;resizeParent=0;resizeLast=1;shadow=0;dashed=0;align=center;fillColor=#d5e8d4;strokeColor=#82b366;" vertex="1" parent="Lk9Vd1HJ_zHl8-M2dufm-1">
          <mxGeometry x="598.75" y="910" width="240" height="200" as="geometry" />
        </mxCell>
        <mxCell id="Lk9Vd1HJ_zHl8-M2dufm-11" value="+Person_ID&#xa;+Name&#xa;+Institution_ID&#xa;+" style="align=left;strokeColor=none;fillColor=none;spacingLeft=4;fontSize=12;verticalAlign=top;resizable=0;rotatable=0;part=1;" vertex="1" parent="Lk9Vd1HJ_zHl8-M2dufm-10">
          <mxGeometry y="30" width="240" height="170" as="geometry" />
        </mxCell>
        <mxCell id="Lk9Vd1HJ_zHl8-M2dufm-12" style="edgeStyle=orthogonalEdgeStyle;rounded=0;orthogonalLoop=1;jettySize=auto;html=1;exitX=0.5;exitY=0;exitDx=0;exitDy=0;startArrow=ERmandOne;startFill=0;endArrow=ERzeroToMany;endFill=0;entryX=0.5;entryY=1;entryDx=0;entryDy=0;endSize=10;startSize=10;" edge="1" parent="Lk9Vd1HJ_zHl8-M2dufm-1" source="Lk9Vd1HJ_zHl8-M2dufm-13" target="Lk9Vd1HJ_zHl8-M2dufm-31">
          <mxGeometry relative="1" as="geometry">
            <mxPoint x="848.75" y="1110" as="targetPoint" />
          </mxGeometry>
        </mxCell>
        <mxCell id="Lk9Vd1HJ_zHl8-M2dufm-13" value="User" style="swimlane;childLayout=stackLayout;horizontal=1;startSize=30;horizontalStack=0;rounded=1;fontSize=14;fontStyle=0;strokeWidth=2;resizeParent=0;resizeLast=1;shadow=0;dashed=0;align=center;fillColor=#dae8fc;strokeColor=#6c8ebf;" vertex="1" parent="Lk9Vd1HJ_zHl8-M2dufm-1">
          <mxGeometry x="1088.75" y="930" width="210" height="200" as="geometry" />
        </mxCell>
        <mxCell id="Lk9Vd1HJ_zHl8-M2dufm-14" value="+User_ID&#xa;+Person_ID&#xa;+blazerID&#xa;+UABMC_ID&#xa;+" style="align=left;strokeColor=none;fillColor=none;spacingLeft=4;fontSize=12;verticalAlign=top;resizable=0;rotatable=0;part=1;" vertex="1" parent="Lk9Vd1HJ_zHl8-M2dufm-13">
          <mxGeometry y="30" width="210" height="170" as="geometry" />
        </mxCell>
        <mxCell id="Lk9Vd1HJ_zHl8-M2dufm-15" style="edgeStyle=orthogonalEdgeStyle;rounded=0;orthogonalLoop=1;jettySize=auto;html=1;exitX=1;exitY=0;exitDx=0;exitDy=0;entryX=1;entryY=0;entryDx=0;entryDy=0;startArrow=ERzeroToMany;startFill=0;endArrow=ERzeroToMany;endFill=0;endSize=10;startSize=10;" edge="1" parent="Lk9Vd1HJ_zHl8-M2dufm-1" source="Lk9Vd1HJ_zHl8-M2dufm-17" target="Lk9Vd1HJ_zHl8-M2dufm-5">
          <mxGeometry relative="1" as="geometry">
            <Array as="points">
              <mxPoint x="1048.75" y="1280" />
              <mxPoint x="1048.75" y="240" />
            </Array>
            <mxPoint x="1308.75" y="310" as="targetPoint" />
          </mxGeometry>
        </mxCell>
        <mxCell id="Lk9Vd1HJ_zHl8-M2dufm-16" value="Project" style="swimlane;childLayout=stackLayout;horizontal=1;startSize=30;horizontalStack=0;rounded=1;fontSize=14;fontStyle=0;strokeWidth=2;resizeParent=0;resizeLast=1;shadow=0;dashed=0;align=center;fillColor=#f5f5f5;strokeColor=#666666;fontColor=#333333;" vertex="1" parent="Lk9Vd1HJ_zHl8-M2dufm-1">
          <mxGeometry x="598.75" y="1250" width="260" height="210" as="geometry" />
        </mxCell>
        <mxCell id="Lk9Vd1HJ_zHl8-M2dufm-17" value="+Project_ID&#xa;+Name&#xa;+Description&#xa;+Institution_ID&#xa;+ProjectGroup_ID" style="align=left;strokeColor=none;fillColor=none;spacingLeft=4;fontSize=12;verticalAlign=top;resizable=0;rotatable=0;part=1;" vertex="1" parent="Lk9Vd1HJ_zHl8-M2dufm-16">
          <mxGeometry y="30" width="260" height="180" as="geometry" />
        </mxCell>
        <mxCell id="Lk9Vd1HJ_zHl8-M2dufm-18" style="edgeStyle=orthogonalEdgeStyle;rounded=0;orthogonalLoop=1;jettySize=auto;html=1;exitX=0;exitY=0;exitDx=0;exitDy=0;entryX=0.75;entryY=0;entryDx=0;entryDy=0;startArrow=ERzeroToOne;startFill=0;endArrow=ERzeroToMany;endFill=0;strokeWidth=1;endSize=10;startSize=10;" edge="1" parent="Lk9Vd1HJ_zHl8-M2dufm-1" source="Lk9Vd1HJ_zHl8-M2dufm-5" target="Lk9Vd1HJ_zHl8-M2dufm-2">
          <mxGeometry relative="1" as="geometry">
            <Array as="points">
              <mxPoint x="266.75" y="240" />
            </Array>
          </mxGeometry>
        </mxCell>
        <mxCell id="Lk9Vd1HJ_zHl8-M2dufm-19" style="edgeStyle=orthogonalEdgeStyle;rounded=0;orthogonalLoop=1;jettySize=auto;html=1;startArrow=ERzeroToMany;startFill=0;endArrow=ERzeroToOne;endFill=0;entryX=0;entryY=0.75;entryDx=0;entryDy=0;exitX=0.25;exitY=1;exitDx=0;exitDy=0;endSize=10;startSize=10;" edge="1" parent="Lk9Vd1HJ_zHl8-M2dufm-1" source="Lk9Vd1HJ_zHl8-M2dufm-3" target="Lk9Vd1HJ_zHl8-M2dufm-17">
          <mxGeometry relative="1" as="geometry">
            <Array as="points">
              <mxPoint x="128.75" y="830" />
              <mxPoint x="63.75" y="830" />
              <mxPoint x="63.75" y="1415" />
            </Array>
            <mxPoint x="278.75" y="760" as="sourcePoint" />
            <mxPoint x="698.75" y="1550" as="targetPoint" />
          </mxGeometry>
        </mxCell>
        <mxCell id="Lk9Vd1HJ_zHl8-M2dufm-20" style="edgeStyle=orthogonalEdgeStyle;rounded=0;orthogonalLoop=1;jettySize=auto;html=1;exitX=1;exitY=0.75;exitDx=0;exitDy=0;startArrow=ERmandOne;startFill=0;endArrow=ERzeroToOne;endFill=0;entryX=-0.014;entryY=0.629;entryDx=0;entryDy=0;entryPerimeter=0;endSize=10;startSize=10;" edge="1" parent="Lk9Vd1HJ_zHl8-M2dufm-1" source="Lk9Vd1HJ_zHl8-M2dufm-11" target="Lk9Vd1HJ_zHl8-M2dufm-14">
          <mxGeometry relative="1" as="geometry">
            <mxPoint x="978.75" y="1110" as="targetPoint" />
            <Array as="points">
              <mxPoint x="1085.75" y="1068" />
            </Array>
          </mxGeometry>
        </mxCell>
        <mxCell id="Lk9Vd1HJ_zHl8-M2dufm-21" style="edgeStyle=orthogonalEdgeStyle;rounded=0;orthogonalLoop=1;jettySize=auto;html=1;exitX=0.5;exitY=0;exitDx=0;exitDy=0;startArrow=ERzeroToMany;startFill=0;endArrow=ERzeroToMany;endFill=0;entryX=0.5;entryY=1;entryDx=0;entryDy=0;endSize=10;startSize=10;" edge="1" parent="Lk9Vd1HJ_zHl8-M2dufm-1" source="Lk9Vd1HJ_zHl8-M2dufm-22" target="Lk9Vd1HJ_zHl8-M2dufm-17">
          <mxGeometry relative="1" as="geometry">
            <mxPoint x="898.75" y="1940" as="targetPoint" />
          </mxGeometry>
        </mxCell>
        <mxCell id="Lk9Vd1HJ_zHl8-M2dufm-22" value="Asset" style="swimlane;childLayout=stackLayout;horizontal=1;startSize=30;horizontalStack=0;rounded=1;fontSize=14;fontStyle=0;strokeWidth=2;resizeParent=0;resizeLast=1;shadow=0;dashed=0;align=center;fillColor=#f5f5f5;strokeColor=#666666;fontColor=#333333;" vertex="1" parent="Lk9Vd1HJ_zHl8-M2dufm-1">
          <mxGeometry x="598.75" y="1550" width="260" height="210" as="geometry" />
        </mxCell>
        <mxCell id="Lk9Vd1HJ_zHl8-M2dufm-23" value="+Asset_ID&#xa;+Type&#xa;+ContentType&#xa;+Name&#xa;+URL&#xa;+AssetGroup_ID" style="align=left;strokeColor=none;fillColor=none;spacingLeft=4;fontSize=12;verticalAlign=top;resizable=0;rotatable=0;part=1;" vertex="1" parent="Lk9Vd1HJ_zHl8-M2dufm-22">
          <mxGeometry y="30" width="260" height="180" as="geometry" />
        </mxCell>
        <mxCell id="Lk9Vd1HJ_zHl8-M2dufm-24" style="edgeStyle=orthogonalEdgeStyle;rounded=0;orthogonalLoop=1;jettySize=auto;html=1;exitX=1;exitY=0.25;exitDx=0;exitDy=0;entryX=1;entryY=0.5;entryDx=0;entryDy=0;startArrow=ERzeroToMany;startFill=0;endArrow=ERzeroToMany;endFill=0;endSize=10;startSize=10;" edge="1" parent="Lk9Vd1HJ_zHl8-M2dufm-1" source="Lk9Vd1HJ_zHl8-M2dufm-11" target="Lk9Vd1HJ_zHl8-M2dufm-5">
          <mxGeometry relative="1" as="geometry">
            <Array as="points">
              <mxPoint x="1008.75" y="983" />
              <mxPoint x="1008.75" y="320" />
            </Array>
            <mxPoint x="1158.75" y="62.5" as="targetPoint" />
          </mxGeometry>
        </mxCell>
        <mxCell id="Lk9Vd1HJ_zHl8-M2dufm-25" value="ProjectGroup" style="swimlane;childLayout=stackLayout;horizontal=1;startSize=30;horizontalStack=0;rounded=1;fontSize=14;fontStyle=0;strokeWidth=2;resizeParent=0;resizeLast=1;shadow=0;dashed=0;align=center;fillColor=#f5f5f5;strokeColor=#666666;fontColor=#333333;" vertex="1" parent="Lk9Vd1HJ_zHl8-M2dufm-1">
          <mxGeometry x="998.75" y="1460" width="230" height="160" as="geometry" />
        </mxCell>
        <mxCell id="Lk9Vd1HJ_zHl8-M2dufm-26" value="+ProjectGroup_ID&#xa;+Name&#xa;+Parent_ProjectGroup_ID&#xa;+" style="align=left;strokeColor=none;fillColor=none;spacingLeft=4;fontSize=12;verticalAlign=top;resizable=0;rotatable=0;part=1;" vertex="1" parent="Lk9Vd1HJ_zHl8-M2dufm-25">
          <mxGeometry y="30" width="230" height="130" as="geometry" />
        </mxCell>
        <mxCell id="Lk9Vd1HJ_zHl8-M2dufm-27" style="edgeStyle=orthogonalEdgeStyle;rounded=0;orthogonalLoop=1;jettySize=auto;html=1;exitX=0.75;exitY=1;exitDx=0;exitDy=0;entryX=0.2;entryY=1.011;entryDx=0;entryDy=0;entryPerimeter=0;startArrow=ERmandOne;startFill=0;endArrow=ERzeroToMany;endFill=0;endSize=10;startSize=10;" edge="1" parent="Lk9Vd1HJ_zHl8-M2dufm-25" source="Lk9Vd1HJ_zHl8-M2dufm-26" target="Lk9Vd1HJ_zHl8-M2dufm-26">
          <mxGeometry relative="1" as="geometry">
            <Array as="points">
              <mxPoint x="173" y="230" />
              <mxPoint x="46" y="230" />
            </Array>
          </mxGeometry>
        </mxCell>
        <mxCell id="Lk9Vd1HJ_zHl8-M2dufm-28" style="edgeStyle=orthogonalEdgeStyle;rounded=0;orthogonalLoop=1;jettySize=auto;html=1;entryX=1;entryY=0.75;entryDx=0;entryDy=0;startArrow=ERzeroToOne;startFill=0;endArrow=ERoneToMany;endFill=0;endSize=10;startSize=10;" edge="1" parent="Lk9Vd1HJ_zHl8-M2dufm-1" source="Lk9Vd1HJ_zHl8-M2dufm-26" target="Lk9Vd1HJ_zHl8-M2dufm-17">
          <mxGeometry relative="1" as="geometry">
            <mxPoint x="1178.75" y="1700" as="sourcePoint" />
            <Array as="points" />
          </mxGeometry>
        </mxCell>
        <mxCell id="Lk9Vd1HJ_zHl8-M2dufm-29" style="edgeStyle=orthogonalEdgeStyle;rounded=0;orthogonalLoop=1;jettySize=auto;html=1;exitX=0;exitY=0.5;exitDx=0;exitDy=0;entryX=1;entryY=0.25;entryDx=0;entryDy=0;startArrow=ERzeroToMany;startFill=0;endArrow=ERzeroToMany;endFill=0;endSize=10;startSize=10;" edge="1" parent="Lk9Vd1HJ_zHl8-M2dufm-1" source="Lk9Vd1HJ_zHl8-M2dufm-7" target="Lk9Vd1HJ_zHl8-M2dufm-3">
          <mxGeometry relative="1" as="geometry">
            <Array as="points">
              <mxPoint x="573.75" y="555" />
              <mxPoint x="573.75" y="375" />
            </Array>
            <mxPoint x="378.75" y="516.02" as="sourcePoint" />
          </mxGeometry>
        </mxCell>
        <mxCell id="Lk9Vd1HJ_zHl8-M2dufm-30" style="edgeStyle=orthogonalEdgeStyle;rounded=0;orthogonalLoop=1;jettySize=auto;html=1;entryX=0.25;entryY=1;entryDx=0;entryDy=0;startArrow=ERzeroToMany;startFill=0;endArrow=ERzeroToMany;endFill=0;exitX=0.25;exitY=0;exitDx=0;exitDy=0;endSize=10;startSize=10;" edge="1" parent="Lk9Vd1HJ_zHl8-M2dufm-1" source="Lk9Vd1HJ_zHl8-M2dufm-16" target="Lk9Vd1HJ_zHl8-M2dufm-11">
          <mxGeometry relative="1" as="geometry">
            <mxPoint x="778.75" y="1560" as="sourcePoint" />
            <Array as="points">
              <mxPoint x="663.75" y="1180" />
              <mxPoint x="658.75" y="1180" />
            </Array>
          </mxGeometry>
        </mxCell>
        <mxCell id="Lk9Vd1HJ_zHl8-M2dufm-31" value="&lt;font style=&quot;font-size: 16px;&quot;&gt;&lt;b&gt;All Tables/Audit Logs&lt;/b&gt;&lt;/font&gt;&lt;br&gt;(CreatedBy, UpdatedBy, Logins,&amp;nbsp;&lt;br&gt;Downloads, Admin Activity, etc)" style="whiteSpace=wrap;html=1;align=center;" vertex="1" parent="Lk9Vd1HJ_zHl8-M2dufm-1">
          <mxGeometry x="1103.75" y="730" width="180" height="90" as="geometry" />
        </mxCell>
        <mxCell id="Lk9Vd1HJ_zHl8-M2dufm-32" style="edgeStyle=orthogonalEdgeStyle;rounded=0;orthogonalLoop=1;jettySize=auto;html=1;exitX=0.75;exitY=1;exitDx=0;exitDy=0;startArrow=ERmandOne;startFill=0;endArrow=ERzeroToMany;endFill=0;endSize=10;startSize=10;" edge="1" parent="Lk9Vd1HJ_zHl8-M2dufm-1" source="Lk9Vd1HJ_zHl8-M2dufm-34">
          <mxGeometry relative="1" as="geometry">
            <Array as="points">
              <mxPoint x="473.75" y="1340" />
            </Array>
            <mxPoint x="598.75" y="1340" as="targetPoint" />
          </mxGeometry>
        </mxCell>
        <mxCell id="Lk9Vd1HJ_zHl8-M2dufm-33" value="PersonGroup" style="swimlane;childLayout=stackLayout;horizontal=1;startSize=30;horizontalStack=0;rounded=1;fontSize=14;fontStyle=0;strokeWidth=2;resizeParent=0;resizeLast=1;shadow=0;dashed=0;align=center;fillColor=#d5e8d4;strokeColor=#82b366;" vertex="1" parent="Lk9Vd1HJ_zHl8-M2dufm-1">
          <mxGeometry x="353.75" y="1170" width="160" height="120" as="geometry" />
        </mxCell>
        <mxCell id="Lk9Vd1HJ_zHl8-M2dufm-34" value="+PersonGroup_ID&#xa;+Group_Name&#xa;+" style="align=left;strokeColor=none;fillColor=none;spacingLeft=4;fontSize=12;verticalAlign=top;resizable=0;rotatable=0;part=1;" vertex="1" parent="Lk9Vd1HJ_zHl8-M2dufm-33">
          <mxGeometry y="30" width="160" height="90" as="geometry" />
        </mxCell>
        <mxCell id="Lk9Vd1HJ_zHl8-M2dufm-35" style="edgeStyle=orthogonalEdgeStyle;rounded=0;orthogonalLoop=1;jettySize=auto;html=1;exitX=0.5;exitY=1;exitDx=0;exitDy=0;entryX=0.25;entryY=1;entryDx=0;entryDy=0;strokeWidth=1;fontSize=16;startArrow=ERzeroToMany;startFill=0;endArrow=ERmandOne;endFill=0;startSize=8;endSize=8;" edge="1" parent="Lk9Vd1HJ_zHl8-M2dufm-33" source="Lk9Vd1HJ_zHl8-M2dufm-34" target="Lk9Vd1HJ_zHl8-M2dufm-34">
          <mxGeometry relative="1" as="geometry">
            <Array as="points">
              <mxPoint x="80" y="180" />
              <mxPoint x="40" y="180" />
            </Array>
          </mxGeometry>
        </mxCell>
        <mxCell id="Lk9Vd1HJ_zHl8-M2dufm-36" style="edgeStyle=orthogonalEdgeStyle;rounded=0;orthogonalLoop=1;jettySize=auto;html=1;entryX=0.5;entryY=0;entryDx=0;entryDy=0;startArrow=ERzeroToMany;startFill=0;endArrow=ERzeroToMany;endFill=0;exitX=-0.006;exitY=0.465;exitDx=0;exitDy=0;exitPerimeter=0;endSize=8;startSize=8;" edge="1" parent="Lk9Vd1HJ_zHl8-M2dufm-1" source="Lk9Vd1HJ_zHl8-M2dufm-11" target="Lk9Vd1HJ_zHl8-M2dufm-33">
          <mxGeometry relative="1" as="geometry">
            <Array as="points">
              <mxPoint x="543.75" y="1019" />
              <mxPoint x="543.75" y="1130" />
              <mxPoint x="433.75" y="1130" />
            </Array>
            <mxPoint x="578.75" y="1050" as="sourcePoint" />
            <mxPoint x="478.75" y="1020" as="targetPoint" />
          </mxGeometry>
        </mxCell>
        <mxCell id="Lk9Vd1HJ_zHl8-M2dufm-37" style="edgeStyle=orthogonalEdgeStyle;rounded=0;orthogonalLoop=1;jettySize=auto;html=1;entryX=1;entryY=0.75;entryDx=0;entryDy=0;startArrow=ERzeroToMany;startFill=0;endArrow=ERzeroToMany;endFill=0;exitX=0.615;exitY=0.005;exitDx=0;exitDy=0;exitPerimeter=0;endSize=10;startSize=10;" edge="1" parent="Lk9Vd1HJ_zHl8-M2dufm-1" source="Lk9Vd1HJ_zHl8-M2dufm-16" target="Lk9Vd1HJ_zHl8-M2dufm-7">
          <mxGeometry relative="1" as="geometry">
            <Array as="points">
              <mxPoint x="758.75" y="1150" />
              <mxPoint x="928.75" y="1150" />
              <mxPoint x="928.75" y="598" />
            </Array>
            <mxPoint x="888.75" y="1560" as="sourcePoint" />
            <mxPoint x="1028.75" y="752.5" as="targetPoint" />
          </mxGeometry>
        </mxCell>
        <mxCell id="Lk9Vd1HJ_zHl8-M2dufm-38" value="ClinicalDataSet" style="swimlane;childLayout=stackLayout;horizontal=1;startSize=30;horizontalStack=0;rounded=1;fontSize=14;fontStyle=0;strokeWidth=2;resizeParent=0;resizeLast=1;shadow=0;dashed=0;align=center;fillColor=#ffe6cc;strokeColor=#d79b00;" vertex="1" parent="Lk9Vd1HJ_zHl8-M2dufm-1">
          <mxGeometry x="188.75" y="610" width="200" height="140" as="geometry" />
        </mxCell>
        <mxCell id="Lk9Vd1HJ_zHl8-M2dufm-39" value="+ClinicalDataSet_ID&#xa;+DataRequest_ID&#xa;+FilePath&#xa;+etc" style="align=left;strokeColor=none;fillColor=none;spacingLeft=4;fontSize=12;verticalAlign=top;resizable=0;rotatable=0;part=1;" vertex="1" parent="Lk9Vd1HJ_zHl8-M2dufm-38">
          <mxGeometry y="30" width="200" height="110" as="geometry" />
        </mxCell>
        <mxCell id="Lk9Vd1HJ_zHl8-M2dufm-40" style="edgeStyle=orthogonalEdgeStyle;rounded=0;orthogonalLoop=1;jettySize=auto;html=1;entryX=0.5;entryY=0;entryDx=0;entryDy=0;startArrow=ERzeroToOne;startFill=0;endArrow=ERzeroToMany;endFill=0;endSize=10;startSize=10;exitX=0.576;exitY=0.995;exitDx=0;exitDy=0;exitPerimeter=0;" edge="1" parent="Lk9Vd1HJ_zHl8-M2dufm-1" source="Lk9Vd1HJ_zHl8-M2dufm-3" target="Lk9Vd1HJ_zHl8-M2dufm-38">
          <mxGeometry relative="1" as="geometry" />
        </mxCell>
        <mxCell id="Lk9Vd1HJ_zHl8-M2dufm-41" value="Note" style="swimlane;childLayout=stackLayout;horizontal=1;startSize=30;horizontalStack=0;rounded=1;fontSize=14;fontStyle=0;strokeWidth=2;resizeParent=0;resizeLast=1;shadow=0;dashed=0;align=center;fillColor=#fff2cc;strokeColor=#d6b656;" vertex="1" parent="Lk9Vd1HJ_zHl8-M2dufm-1">
          <mxGeometry x="1333.75" y="270" width="160" height="170" as="geometry" />
        </mxCell>
        <mxCell id="Lk9Vd1HJ_zHl8-M2dufm-42" value="+Note_ID&#xa;+Text&#xa;+NoteOrder&#xa;+CreatedBy&#xa;+Visibility&#xa;+etc&#xa;+Table_Name&#xa;+Table_PK" style="align=left;strokeColor=none;fillColor=none;spacingLeft=4;fontSize=12;verticalAlign=top;resizable=0;rotatable=0;part=1;" vertex="1" parent="Lk9Vd1HJ_zHl8-M2dufm-41">
          <mxGeometry y="30" width="160" height="140" as="geometry" />
        </mxCell>
        <mxCell id="Lk9Vd1HJ_zHl8-M2dufm-43" value="EventLog" style="swimlane;childLayout=stackLayout;horizontal=1;startSize=30;horizontalStack=0;rounded=1;fontSize=14;fontStyle=0;strokeWidth=2;resizeParent=0;resizeLast=1;shadow=0;dashed=0;align=center;fillColor=#fff2cc;strokeColor=#d6b656;" vertex="1" parent="Lk9Vd1HJ_zHl8-M2dufm-1">
          <mxGeometry x="1333.75" y="490" width="160" height="120" as="geometry" />
        </mxCell>
        <mxCell id="Lk9Vd1HJ_zHl8-M2dufm-44" value="+EventID&#xa;+SourceModule_ID&#xa;+Message&#xa;+StackTrace&#xa;+EventDate" style="align=left;strokeColor=none;fillColor=none;spacingLeft=4;fontSize=12;verticalAlign=top;resizable=0;rotatable=0;part=1;" vertex="1" parent="Lk9Vd1HJ_zHl8-M2dufm-43">
          <mxGeometry y="30" width="160" height="90" as="geometry" />
        </mxCell>
        <mxCell id="Lk9Vd1HJ_zHl8-M2dufm-45" value="AppSettings" style="swimlane;childLayout=stackLayout;horizontal=1;startSize=30;horizontalStack=0;rounded=1;fontSize=14;fontStyle=0;strokeWidth=2;resizeParent=0;resizeLast=1;shadow=0;dashed=0;align=center;fillColor=#fff2cc;strokeColor=#d6b656;" vertex="1" parent="Lk9Vd1HJ_zHl8-M2dufm-1">
          <mxGeometry x="1333.75" y="660" width="160" height="120" as="geometry" />
        </mxCell>
        <mxCell id="Lk9Vd1HJ_zHl8-M2dufm-46" value="+AppSettingID&#xa;+Name&#xa;+Value" style="align=left;strokeColor=none;fillColor=none;spacingLeft=4;fontSize=12;verticalAlign=top;resizable=0;rotatable=0;part=1;" vertex="1" parent="Lk9Vd1HJ_zHl8-M2dufm-45">
          <mxGeometry y="30" width="160" height="90" as="geometry" />
        </mxCell>
        <mxCell id="Lk9Vd1HJ_zHl8-M2dufm-47" value="UserGroup" style="swimlane;childLayout=stackLayout;horizontal=1;startSize=30;horizontalStack=0;rounded=1;fontSize=14;fontStyle=0;strokeWidth=2;resizeParent=0;resizeLast=1;shadow=0;dashed=0;align=center;fillColor=#dae8fc;strokeColor=#6c8ebf;" vertex="1" parent="Lk9Vd1HJ_zHl8-M2dufm-1">
          <mxGeometry x="1088.75" y="1220" width="210" height="170" as="geometry" />
        </mxCell>
        <mxCell id="Lk9Vd1HJ_zHl8-M2dufm-48" value="+UserGroup_ID&#xa;+UserGroup_Name&#xa;+" style="align=left;strokeColor=none;fillColor=none;spacingLeft=4;fontSize=12;verticalAlign=top;resizable=0;rotatable=0;part=1;" vertex="1" parent="Lk9Vd1HJ_zHl8-M2dufm-47">
          <mxGeometry y="30" width="210" height="140" as="geometry" />
        </mxCell>
        <mxCell id="Lk9Vd1HJ_zHl8-M2dufm-49" value="Institutions" style="swimlane;childLayout=stackLayout;horizontal=1;startSize=30;horizontalStack=0;rounded=1;fontSize=14;fontStyle=0;strokeWidth=2;resizeParent=0;resizeLast=1;shadow=0;dashed=0;align=center;fillColor=#d5e8d4;strokeColor=#82b366;" vertex="1" parent="Lk9Vd1HJ_zHl8-M2dufm-1">
          <mxGeometry x="103.75" y="1100" width="160" height="120" as="geometry" />
        </mxCell>
        <mxCell id="Lk9Vd1HJ_zHl8-M2dufm-50" value="+Institution_ID&#xa;+PersonGroup_ID&#xa;+InstitutionName" style="align=left;strokeColor=none;fillColor=none;spacingLeft=4;fontSize=12;verticalAlign=top;resizable=0;rotatable=0;part=1;" vertex="1" parent="Lk9Vd1HJ_zHl8-M2dufm-49">
          <mxGeometry y="30" width="160" height="90" as="geometry" />
        </mxCell>
        <mxCell id="Lk9Vd1HJ_zHl8-M2dufm-51" style="edgeStyle=orthogonalEdgeStyle;rounded=0;orthogonalLoop=1;jettySize=auto;html=1;exitX=0;exitY=0.25;exitDx=0;exitDy=0;entryX=1.006;entryY=0.339;entryDx=0;entryDy=0;entryPerimeter=0;endArrow=ERzeroToOne;endFill=0;startArrow=ERzeroToMany;startFill=0;endSize=8;startSize=8;" edge="1" parent="Lk9Vd1HJ_zHl8-M2dufm-1" source="Lk9Vd1HJ_zHl8-M2dufm-34" target="Lk9Vd1HJ_zHl8-M2dufm-50">
          <mxGeometry relative="1" as="geometry" />
        </mxCell>
        <mxCell id="Lk9Vd1HJ_zHl8-M2dufm-52" value="Training" style="swimlane;childLayout=stackLayout;horizontal=1;startSize=30;horizontalStack=0;rounded=1;fontSize=14;fontStyle=0;strokeWidth=2;resizeParent=0;resizeLast=1;shadow=0;dashed=0;align=center;fillColor=#d5e8d4;strokeColor=#82b366;" vertex="1" parent="Lk9Vd1HJ_zHl8-M2dufm-1">
          <mxGeometry x="318.75" y="790" width="160" height="120" as="geometry" />
        </mxCell>
        <mxCell id="Lk9Vd1HJ_zHl8-M2dufm-53" value="+Training_ID&#xa;+Person_ID&#xa;+TrainingName" style="align=left;strokeColor=none;fillColor=none;spacingLeft=4;fontSize=12;verticalAlign=top;resizable=0;rotatable=0;part=1;" vertex="1" parent="Lk9Vd1HJ_zHl8-M2dufm-52">
          <mxGeometry y="30" width="160" height="90" as="geometry" />
        </mxCell>
        <mxCell id="Lk9Vd1HJ_zHl8-M2dufm-54" style="edgeStyle=orthogonalEdgeStyle;rounded=0;orthogonalLoop=1;jettySize=auto;html=1;exitX=1;exitY=0.25;exitDx=0;exitDy=0;entryX=-0.005;entryY=0.173;entryDx=0;entryDy=0;entryPerimeter=0;startArrow=ERzeroToMany;startFill=0;endArrow=ERmandOne;endFill=0;endSize=10;startSize=10;" edge="1" parent="Lk9Vd1HJ_zHl8-M2dufm-1" source="Lk9Vd1HJ_zHl8-M2dufm-53" target="Lk9Vd1HJ_zHl8-M2dufm-11">
          <mxGeometry relative="1" as="geometry">
            <Array as="points">
              <mxPoint x="568.75" y="842" />
              <mxPoint x="568.75" y="969" />
            </Array>
          </mxGeometry>
        </mxCell>
        <mxCell id="Lk9Vd1HJ_zHl8-M2dufm-55" style="edgeStyle=orthogonalEdgeStyle;rounded=0;orthogonalLoop=1;jettySize=auto;html=1;entryX=-0.006;entryY=0.322;entryDx=0;entryDy=0;entryPerimeter=0;startArrow=ERoneToMany;startFill=0;endArrow=ERmandOne;endFill=0;exitX=1;exitY=0.25;exitDx=0;exitDy=0;endSize=8;startSize=8;" edge="1" parent="Lk9Vd1HJ_zHl8-M2dufm-1" source="Lk9Vd1HJ_zHl8-M2dufm-57" target="Lk9Vd1HJ_zHl8-M2dufm-11">
          <mxGeometry relative="1" as="geometry">
            <mxPoint x="523.75" y="1040" as="sourcePoint" />
            <Array as="points">
              <mxPoint x="518.75" y="1013" />
              <mxPoint x="518.75" y="995" />
            </Array>
          </mxGeometry>
        </mxCell>
        <mxCell id="Lk9Vd1HJ_zHl8-M2dufm-56" value="PersonKeys" style="swimlane;childLayout=stackLayout;horizontal=1;startSize=30;horizontalStack=0;rounded=1;fontSize=14;fontStyle=0;strokeWidth=2;resizeParent=0;resizeLast=1;shadow=0;dashed=0;align=center;fillColor=#d5e8d4;strokeColor=#82b366;" vertex="1" parent="Lk9Vd1HJ_zHl8-M2dufm-1">
          <mxGeometry x="283.75" y="960" width="210" height="120" as="geometry" />
        </mxCell>
        <mxCell id="Lk9Vd1HJ_zHl8-M2dufm-57" value="+Person_ID&#xa;+RelatedSystemName&#xa;+RelatedSystem_ID&#xa;+" style="align=left;strokeColor=none;fillColor=none;spacingLeft=4;fontSize=12;verticalAlign=top;resizable=0;rotatable=0;part=1;" vertex="1" parent="Lk9Vd1HJ_zHl8-M2dufm-56">
          <mxGeometry y="30" width="210" height="90" as="geometry" />
        </mxCell>
        <mxCell id="Lk9Vd1HJ_zHl8-M2dufm-58" value="Roles" style="swimlane;childLayout=stackLayout;horizontal=1;startSize=30;horizontalStack=0;rounded=1;fontSize=14;fontStyle=0;strokeWidth=2;resizeParent=0;resizeLast=1;shadow=0;dashed=0;align=center;fillColor=#dae8fc;strokeColor=#6c8ebf;" vertex="1" parent="Lk9Vd1HJ_zHl8-M2dufm-1">
          <mxGeometry x="1408.75" y="1030" width="240" height="210" as="geometry" />
        </mxCell>
        <mxCell id="Lk9Vd1HJ_zHl8-M2dufm-59" value="+Role_D&#xa;+Name&#xa;+Description&#xa;+" style="align=left;strokeColor=none;fillColor=none;spacingLeft=4;fontSize=12;verticalAlign=top;resizable=0;rotatable=0;part=1;" vertex="1" parent="Lk9Vd1HJ_zHl8-M2dufm-58">
          <mxGeometry y="30" width="240" height="180" as="geometry" />
        </mxCell>
        <mxCell id="Lk9Vd1HJ_zHl8-M2dufm-60" style="edgeStyle=orthogonalEdgeStyle;rounded=0;orthogonalLoop=1;jettySize=auto;html=1;exitX=1;exitY=0.5;exitDx=0;exitDy=0;entryX=0;entryY=0.25;entryDx=0;entryDy=0;startArrow=ERzeroToMany;startFill=0;endArrow=ERoneToMany;endFill=0;endSize=10;startSize=10;" edge="1" parent="Lk9Vd1HJ_zHl8-M2dufm-1" source="Lk9Vd1HJ_zHl8-M2dufm-14" target="Lk9Vd1HJ_zHl8-M2dufm-58">
          <mxGeometry relative="1" as="geometry" />
        </mxCell>
        <mxCell id="Lk9Vd1HJ_zHl8-M2dufm-61" style="edgeStyle=orthogonalEdgeStyle;rounded=0;orthogonalLoop=1;jettySize=auto;html=1;exitX=1;exitY=0.25;exitDx=0;exitDy=0;entryX=0;entryY=0.75;entryDx=0;entryDy=0;startArrow=ERzeroToMany;startFill=0;endArrow=ERzeroToMany;endFill=0;endSize=10;startSize=10;" edge="1" parent="Lk9Vd1HJ_zHl8-M2dufm-1" source="Lk9Vd1HJ_zHl8-M2dufm-48" target="Lk9Vd1HJ_zHl8-M2dufm-59">
          <mxGeometry relative="1" as="geometry" />
        </mxCell>
        <mxCell id="Lk9Vd1HJ_zHl8-M2dufm-62" style="edgeStyle=orthogonalEdgeStyle;rounded=0;orthogonalLoop=1;jettySize=auto;html=1;exitX=0.5;exitY=1;exitDx=0;exitDy=0;entryX=0.5;entryY=0;entryDx=0;entryDy=0;startArrow=ERoneToMany;startFill=0;endArrow=ERzeroToMany;endFill=0;endSize=10;startSize=10;" edge="1" parent="Lk9Vd1HJ_zHl8-M2dufm-1" source="Lk9Vd1HJ_zHl8-M2dufm-14" target="Lk9Vd1HJ_zHl8-M2dufm-47">
          <mxGeometry relative="1" as="geometry" />
        </mxCell>
        <mxCell id="Lk9Vd1HJ_zHl8-M2dufm-63" value="Actions" style="swimlane;childLayout=stackLayout;horizontal=1;startSize=30;horizontalStack=0;rounded=1;fontSize=14;fontStyle=0;strokeWidth=2;resizeParent=0;resizeLast=1;shadow=0;dashed=0;align=center;fillColor=#dae8fc;strokeColor=#6c8ebf;" vertex="1" parent="Lk9Vd1HJ_zHl8-M2dufm-1">
          <mxGeometry x="1418.75" y="1340" width="220" height="150" as="geometry" />
        </mxCell>
        <mxCell id="Lk9Vd1HJ_zHl8-M2dufm-64" value="+Action_ID&#xa;+Name&#xa;+Description&#xa;+Module_ID" style="align=left;strokeColor=none;fillColor=none;spacingLeft=4;fontSize=12;verticalAlign=top;resizable=0;rotatable=0;part=1;" vertex="1" parent="Lk9Vd1HJ_zHl8-M2dufm-63">
          <mxGeometry y="30" width="220" height="120" as="geometry" />
        </mxCell>
        <mxCell id="Lk9Vd1HJ_zHl8-M2dufm-65" style="edgeStyle=orthogonalEdgeStyle;rounded=0;orthogonalLoop=1;jettySize=auto;html=1;exitX=0.5;exitY=0;exitDx=0;exitDy=0;entryX=0.5;entryY=1;entryDx=0;entryDy=0;startArrow=ERmandOne;startFill=0;endArrow=ERoneToMany;endFill=0;endSize=10;startSize=10;" edge="1" parent="Lk9Vd1HJ_zHl8-M2dufm-1" source="Lk9Vd1HJ_zHl8-M2dufm-66" target="Lk9Vd1HJ_zHl8-M2dufm-64">
          <mxGeometry relative="1" as="geometry" />
        </mxCell>
        <mxCell id="Lk9Vd1HJ_zHl8-M2dufm-66" value="Modules" style="swimlane;childLayout=stackLayout;horizontal=1;startSize=30;horizontalStack=0;rounded=1;fontSize=14;fontStyle=0;strokeWidth=2;resizeParent=0;resizeLast=1;shadow=0;dashed=0;align=center;fillColor=#dae8fc;strokeColor=#6c8ebf;" vertex="1" parent="Lk9Vd1HJ_zHl8-M2dufm-1">
          <mxGeometry x="1418.75" y="1570" width="220" height="150" as="geometry" />
        </mxCell>
        <mxCell id="Lk9Vd1HJ_zHl8-M2dufm-67" value="+Module_ID&#xa;+Name&#xa;+Description" style="align=left;strokeColor=none;fillColor=none;spacingLeft=4;fontSize=12;verticalAlign=top;resizable=0;rotatable=0;part=1;" vertex="1" parent="Lk9Vd1HJ_zHl8-M2dufm-66">
          <mxGeometry y="30" width="220" height="120" as="geometry" />
        </mxCell>
        <mxCell id="Lk9Vd1HJ_zHl8-M2dufm-68" style="edgeStyle=orthogonalEdgeStyle;rounded=0;orthogonalLoop=1;jettySize=auto;html=1;exitX=0.5;exitY=1;exitDx=0;exitDy=0;entryX=0.5;entryY=0;entryDx=0;entryDy=0;startArrow=ERzeroToMany;startFill=0;endArrow=ERzeroToMany;endFill=0;endSize=10;startSize=10;" edge="1" parent="Lk9Vd1HJ_zHl8-M2dufm-1" source="Lk9Vd1HJ_zHl8-M2dufm-59" target="Lk9Vd1HJ_zHl8-M2dufm-63">
          <mxGeometry relative="1" as="geometry" />
        </mxCell>
        <mxCell id="Lk9Vd1HJ_zHl8-M2dufm-69" value="&lt;h1&gt;DataLens V2 Entity-Relationship Diagram DRAFT&lt;/h1&gt;&lt;p&gt;Authors: Nick Timkovich, Brian Harmon&lt;br&gt;Last Updated: September 23, 2022&lt;/p&gt;" style="text;html=1;strokeColor=none;fillColor=none;spacing=5;spacingTop=-20;whiteSpace=wrap;overflow=hidden;rounded=0;fontSize=16;" vertex="1" parent="Lk9Vd1HJ_zHl8-M2dufm-1">
          <mxGeometry x="73.75" y="30" width="876.25" height="120" as="geometry" />
        </mxCell>
        <mxCell id="Lk9Vd1HJ_zHl8-M2dufm-70" value="&lt;ul&gt;&lt;li&gt;Many-to-Many relationships have an implied JOIN table between the entities.&lt;/li&gt;&lt;li&gt;Color Coding represents general entity collections for functional purposes.&lt;/li&gt;&lt;li&gt;Lookup and other tables are omitted for brevity&lt;/li&gt;&lt;li&gt;THIS IS A DRAFT and SUBJECT to change.&lt;/li&gt;&lt;/ul&gt;" style="text;html=1;strokeColor=none;fillColor=none;align=left;verticalAlign=top;whiteSpace=wrap;rounded=0;fontSize=16;" vertex="1" parent="Lk9Vd1HJ_zHl8-M2dufm-1">
          <mxGeometry x="1020" y="40" width="530" height="150" as="geometry" />
        </mxCell>
        <mxCell id="Lk9Vd1HJ_zHl8-M2dufm-71" style="edgeStyle=orthogonalEdgeStyle;rounded=0;orthogonalLoop=1;jettySize=auto;html=1;exitX=0.5;exitY=0;exitDx=0;exitDy=0;startArrow=ERzeroToOne;startFill=0;entryX=0.385;entryY=1.005;entryDx=0;entryDy=0;entryPerimeter=0;endArrow=ERoneToMany;endFill=0;" edge="1" parent="Lk9Vd1HJ_zHl8-M2dufm-1" source="Lk9Vd1HJ_zHl8-M2dufm-72" target="Lk9Vd1HJ_zHl8-M2dufm-3">
          <mxGeometry relative="1" as="geometry" />
        </mxCell>
        <mxCell id="Lk9Vd1HJ_zHl8-M2dufm-72" value="Attachment" style="swimlane;childLayout=stackLayout;horizontal=1;startSize=30;horizontalStack=0;rounded=1;fontSize=14;fontStyle=0;strokeWidth=2;resizeParent=0;resizeLast=1;shadow=0;dashed=0;align=center;fillColor=#ffe6cc;strokeColor=#d79b00;" vertex="1" parent="Lk9Vd1HJ_zHl8-M2dufm-1">
          <mxGeometry x="90" y="860" width="160" height="160" as="geometry" />
        </mxCell>
        <mxCell id="Lk9Vd1HJ_zHl8-M2dufm-73" value="+Attachment_ID&#xa;+DataRequest_ID&#xa;+DocumentName&#xa;+FileName&#xa;+ContentType&#xa;+" style="align=left;strokeColor=none;fillColor=none;spacingLeft=4;fontSize=12;verticalAlign=top;resizable=0;rotatable=0;part=1;" vertex="1" parent="Lk9Vd1HJ_zHl8-M2dufm-72">
          <mxGeometry y="30" width="160" height="130" as="geometry" />
        </mxCell>
        <mxCell id="Lk9Vd1HJ_zHl8-M2dufm-74" style="edgeStyle=orthogonalEdgeStyle;rounded=0;orthogonalLoop=1;jettySize=auto;html=1;exitX=0;exitY=0.75;exitDx=0;exitDy=0;entryX=0;entryY=0.25;entryDx=0;entryDy=0;startArrow=ERzeroToOne;startFill=0;endArrow=ERoneToMany;endFill=0;endSize=10;startSize=10;" edge="1" parent="Lk9Vd1HJ_zHl8-M2dufm-1" source="Lk9Vd1HJ_zHl8-M2dufm-11" target="Lk9Vd1HJ_zHl8-M2dufm-23">
          <mxGeometry relative="1" as="geometry">
            <Array as="points">
              <mxPoint x="560" y="1068" />
              <mxPoint x="560" y="1625" />
            </Array>
          </mxGeometry>
        </mxCell>
        <mxCell id="O8aVpAZ3vla6B1g6umUf-0" value="&lt;Object&gt;_Roles" style="swimlane;childLayout=stackLayout;horizontal=1;startSize=30;horizontalStack=0;rounded=1;fontSize=14;fontStyle=0;strokeWidth=2;resizeParent=0;resizeLast=1;shadow=0;dashed=0;align=center;" vertex="1" parent="Lk9Vd1HJ_zHl8-M2dufm-1">
          <mxGeometry x="1103.75" y="270" width="160" height="120" as="geometry" />
        </mxCell>
        <mxCell id="O8aVpAZ3vla6B1g6umUf-1" value="+ObjectRole_ID&#xa;+Name&#xa;+" style="align=left;strokeColor=none;fillColor=none;spacingLeft=4;fontSize=12;verticalAlign=top;resizable=0;rotatable=0;part=1;" vertex="1" parent="O8aVpAZ3vla6B1g6umUf-0">
          <mxGeometry y="30" width="160" height="90" as="geometry" />
        </mxCell>
        <mxCell id="O8aVpAZ3vla6B1g6umUf-2" value="&amp;lt;Object&amp;gt;_Role would be created for every many-to-many PERSON-to-Object relationship&lt;br&gt;&lt;br&gt;It would contain the possible functional roles for a Person on that object type. So &quot;DataRequest_Roles&quot; could be &quot;Owner&quot;, &quot;Viewer&quot;, &quot;Collaborator&quot;, etc.&amp;nbsp; Each role would have functional meaning, i.e. &quot;Can view, edit, and delete.&quot; or &quot;Can view and add attachments&quot;, etc." style="text;html=1;strokeColor=none;fillColor=none;align=left;verticalAlign=top;whiteSpace=wrap;rounded=0;" vertex="1" parent="Lk9Vd1HJ_zHl8-M2dufm-1">
          <mxGeometry x="1103.75" y="410" width="156.25" height="260" as="geometry" />
        </mxCell>
      </root>
    </mxGraphModel>
  </diagram>
</mxfile>
